<mxfile host="app.diagrams.net" agent="Mozilla/5.0 (Macintosh; Intel Mac OS X 10.15; rv:136.0) Gecko/20100101 Firefox/136.0" version="26.1.1">
  <diagram name="Page-1" id="FBkxHMepI6tSABWe1Jr1">
    <mxGraphModel dx="1434" dy="686" grid="1" gridSize="10" guides="1" tooltips="1" connect="1" arrows="1" fold="1" page="1" pageScale="1" pageWidth="1920" pageHeight="1200" math="0" shadow="0">
      <root>
        <mxCell id="0" />
        <mxCell id="1" parent="0" />
        <mxCell id="lquwiNytcV9NUcsQfciu-1" value="" style="rounded=1;whiteSpace=wrap;html=1;fillColor=#dae8fc;strokeColor=#6c8ebf;" vertex="1" parent="1">
          <mxGeometry x="50" y="30" width="360" height="590" as="geometry" />
        </mxCell>
        <mxCell id="lquwiNytcV9NUcsQfciu-116" value="" style="edgeStyle=orthogonalEdgeStyle;rounded=0;orthogonalLoop=1;jettySize=auto;html=1;" edge="1" parent="1" source="lquwiNytcV9NUcsQfciu-3" target="lquwiNytcV9NUcsQfciu-108">
          <mxGeometry relative="1" as="geometry">
            <Array as="points">
              <mxPoint x="1150" y="174" />
              <mxPoint x="1150" y="325" />
            </Array>
          </mxGeometry>
        </mxCell>
        <mxCell id="lquwiNytcV9NUcsQfciu-3" value="" style="rounded=1;whiteSpace=wrap;html=1;fillColor=#dae8fc;strokeColor=#6c8ebf;" vertex="1" parent="1">
          <mxGeometry x="800" y="39" width="340" height="270" as="geometry" />
        </mxCell>
        <mxCell id="lquwiNytcV9NUcsQfciu-82" value="" style="edgeStyle=orthogonalEdgeStyle;rounded=0;orthogonalLoop=1;jettySize=auto;html=1;exitX=-0.001;exitY=0.469;exitDx=0;exitDy=0;endArrow=none;startFill=1;startArrow=classic;exitPerimeter=0;" edge="1" parent="1" source="lquwiNytcV9NUcsQfciu-4">
          <mxGeometry relative="1" as="geometry">
            <mxPoint x="400" y="330" as="targetPoint" />
            <Array as="points">
              <mxPoint x="780" y="461" />
              <mxPoint x="780" y="540" />
              <mxPoint x="400" y="540" />
            </Array>
          </mxGeometry>
        </mxCell>
        <mxCell id="lquwiNytcV9NUcsQfciu-115" value="" style="edgeStyle=orthogonalEdgeStyle;rounded=0;orthogonalLoop=1;jettySize=auto;html=1;" edge="1" parent="1" source="lquwiNytcV9NUcsQfciu-4" target="lquwiNytcV9NUcsQfciu-108">
          <mxGeometry relative="1" as="geometry">
            <Array as="points">
              <mxPoint x="1150" y="470" />
              <mxPoint x="1150" y="325" />
            </Array>
          </mxGeometry>
        </mxCell>
        <mxCell id="lquwiNytcV9NUcsQfciu-4" value="" style="rounded=1;whiteSpace=wrap;html=1;fillColor=#dae8fc;strokeColor=#6c8ebf;" vertex="1" parent="1">
          <mxGeometry x="800" y="329.38" width="340" height="280.62" as="geometry" />
        </mxCell>
        <mxCell id="lquwiNytcV9NUcsQfciu-5" value="&lt;font face=&quot;Courier New&quot;&gt;Basic Protocol 1&lt;/font&gt;" style="rounded=1;whiteSpace=wrap;html=1;fillColor=#b1ddf0;strokeColor=#10739e;" vertex="1" parent="1">
          <mxGeometry x="50" y="20" width="120" height="30" as="geometry" />
        </mxCell>
        <mxCell id="lquwiNytcV9NUcsQfciu-9" value="" style="rounded=1;whiteSpace=wrap;html=1;fillColor=#bac8d3;strokeColor=#23445d;" vertex="1" parent="1">
          <mxGeometry x="75" y="60" width="310" height="110" as="geometry" />
        </mxCell>
        <mxCell id="lquwiNytcV9NUcsQfciu-8" value="&lt;font face=&quot;Courier New&quot;&gt;Sinai2024.ipynb&lt;/font&gt;" style="shape=card;whiteSpace=wrap;html=1;rounded=1;" vertex="1" parent="1">
          <mxGeometry x="99" y="80" width="122" height="70" as="geometry" />
        </mxCell>
        <mxCell id="lquwiNytcV9NUcsQfciu-27" value="" style="edgeStyle=orthogonalEdgeStyle;rounded=0;orthogonalLoop=1;jettySize=auto;html=1;" edge="1" parent="1" source="lquwiNytcV9NUcsQfciu-13" target="lquwiNytcV9NUcsQfciu-2">
          <mxGeometry relative="1" as="geometry">
            <Array as="points">
              <mxPoint x="400" y="248" />
              <mxPoint x="400" y="337" />
            </Array>
          </mxGeometry>
        </mxCell>
        <mxCell id="lquwiNytcV9NUcsQfciu-13" value="" style="rounded=1;whiteSpace=wrap;html=1;fillColor=#bac8d3;strokeColor=#23445d;" vertex="1" parent="1">
          <mxGeometry x="75" y="185" width="310" height="125" as="geometry" />
        </mxCell>
        <mxCell id="lquwiNytcV9NUcsQfciu-12" value="&lt;font face=&quot;Courier New&quot;&gt;Brimr_2024.xlsx&lt;/font&gt;" style="shape=card;whiteSpace=wrap;html=1;rounded=1;" vertex="1" parent="1">
          <mxGeometry x="239" y="80" width="122" height="70" as="geometry" />
        </mxCell>
        <mxCell id="lquwiNytcV9NUcsQfciu-23" value="" style="group" vertex="1" connectable="0" parent="1">
          <mxGeometry x="117.5" y="201.25" width="225" height="92.5" as="geometry" />
        </mxCell>
        <mxCell id="lquwiNytcV9NUcsQfciu-11" value="Network Files" style="swimlane;whiteSpace=wrap;html=1;rounded=1;swimlaneLine=1;glass=0;shadow=0;separatorColor=#000000;" vertex="1" parent="lquwiNytcV9NUcsQfciu-23">
          <mxGeometry width="225" height="92.5" as="geometry" />
        </mxCell>
        <mxCell id="lquwiNytcV9NUcsQfciu-15" value="&lt;font face=&quot;Courier New&quot;&gt;Nodes&lt;/font&gt;" style="shape=card;whiteSpace=wrap;html=1;rounded=1;" vertex="1" parent="lquwiNytcV9NUcsQfciu-23">
          <mxGeometry x="15.580000000000013" y="32.5" width="81.92" height="47" as="geometry" />
        </mxCell>
        <mxCell id="lquwiNytcV9NUcsQfciu-19" value="&lt;font face=&quot;Courier New&quot;&gt;Nodes&lt;/font&gt;" style="shape=card;whiteSpace=wrap;html=1;rounded=1;" vertex="1" parent="lquwiNytcV9NUcsQfciu-23">
          <mxGeometry x="21.580000000000013" y="37.25" width="81.92" height="47" as="geometry" />
        </mxCell>
        <mxCell id="lquwiNytcV9NUcsQfciu-20" value="&lt;font face=&quot;Courier New&quot;&gt;Nodes&lt;/font&gt;" style="shape=card;whiteSpace=wrap;html=1;rounded=1;" vertex="1" parent="lquwiNytcV9NUcsQfciu-23">
          <mxGeometry x="121.5" y="32.5" width="81.92" height="47" as="geometry" />
        </mxCell>
        <mxCell id="lquwiNytcV9NUcsQfciu-21" value="&lt;font face=&quot;Courier New&quot;&gt;Edges&lt;/font&gt;" style="shape=card;whiteSpace=wrap;html=1;rounded=1;" vertex="1" parent="lquwiNytcV9NUcsQfciu-23">
          <mxGeometry x="127.5" y="37.25" width="81.92" height="47" as="geometry" />
        </mxCell>
        <mxCell id="lquwiNytcV9NUcsQfciu-24" value="" style="rounded=1;whiteSpace=wrap;html=1;fillColor=#bac8d3;strokeColor=#23445d;" vertex="1" parent="1">
          <mxGeometry x="75" y="320" width="310" height="125" as="geometry" />
        </mxCell>
        <mxCell id="lquwiNytcV9NUcsQfciu-29" value="" style="edgeStyle=orthogonalEdgeStyle;rounded=0;orthogonalLoop=1;jettySize=auto;html=1;" edge="1" parent="1" source="lquwiNytcV9NUcsQfciu-25" target="lquwiNytcV9NUcsQfciu-28">
          <mxGeometry relative="1" as="geometry" />
        </mxCell>
        <mxCell id="lquwiNytcV9NUcsQfciu-25" value="&lt;font face=&quot;Courier New&quot;&gt;NetCounts.ipynb&lt;/font&gt;" style="shape=card;whiteSpace=wrap;html=1;rounded=1;" vertex="1" parent="1">
          <mxGeometry x="110" y="347.5" width="122" height="70" as="geometry" />
        </mxCell>
        <mxCell id="lquwiNytcV9NUcsQfciu-26" value="" style="edgeStyle=orthogonalEdgeStyle;rounded=0;orthogonalLoop=1;jettySize=auto;html=1;entryX=0.003;entryY=0.617;entryDx=0;entryDy=0;entryPerimeter=0;" edge="1" parent="1" source="lquwiNytcV9NUcsQfciu-11" target="lquwiNytcV9NUcsQfciu-25">
          <mxGeometry relative="1" as="geometry">
            <Array as="points">
              <mxPoint x="230" y="330" />
              <mxPoint x="90" y="330" />
              <mxPoint x="90" y="391" />
            </Array>
          </mxGeometry>
        </mxCell>
        <mxCell id="lquwiNytcV9NUcsQfciu-50" value="" style="edgeStyle=orthogonalEdgeStyle;rounded=0;orthogonalLoop=1;jettySize=auto;html=1;" edge="1" parent="1" source="lquwiNytcV9NUcsQfciu-28">
          <mxGeometry relative="1" as="geometry">
            <mxPoint x="800" y="130" as="targetPoint" />
            <Array as="points">
              <mxPoint x="420" y="383" />
              <mxPoint x="420" y="80" />
              <mxPoint x="780" y="80" />
              <mxPoint x="780" y="130" />
              <mxPoint x="799" y="130" />
            </Array>
          </mxGeometry>
        </mxCell>
        <mxCell id="lquwiNytcV9NUcsQfciu-28" value="&lt;div&gt;&lt;font face=&quot;Courier New&quot;&gt;Network&lt;/font&gt;&lt;/div&gt;&lt;div&gt;&lt;font face=&quot;Courier New&quot;&gt;Statistics&lt;/font&gt;&lt;/div&gt;" style="shape=cylinder3;whiteSpace=wrap;html=1;boundedLbl=1;backgroundOutline=1;size=15;" vertex="1" parent="1">
          <mxGeometry x="273.5" y="343.75" width="87.5" height="77.5" as="geometry" />
        </mxCell>
        <mxCell id="lquwiNytcV9NUcsQfciu-44" value="" style="edgeStyle=orthogonalEdgeStyle;rounded=0;orthogonalLoop=1;jettySize=auto;html=1;endArrow=none;startFill=0;" edge="1" parent="1" source="lquwiNytcV9NUcsQfciu-38">
          <mxGeometry relative="1" as="geometry">
            <mxPoint x="602.4999999999998" y="243.75" as="targetPoint" />
            <Array as="points">
              <mxPoint x="602" y="244" />
            </Array>
          </mxGeometry>
        </mxCell>
        <mxCell id="lquwiNytcV9NUcsQfciu-47" value="&lt;font face=&quot;Courier New&quot;&gt;Basic Protocol 3&lt;/font&gt;" style="rounded=1;whiteSpace=wrap;html=1;fillColor=#b1ddf0;strokeColor=#10739e;" vertex="1" parent="1">
          <mxGeometry x="800" y="29" width="120" height="30" as="geometry" />
        </mxCell>
        <mxCell id="lquwiNytcV9NUcsQfciu-60" value="" style="rounded=1;whiteSpace=wrap;html=1;fillColor=#bac8d3;strokeColor=#23445d;" vertex="1" parent="1">
          <mxGeometry x="75" y="460" width="310" height="125" as="geometry" />
        </mxCell>
        <mxCell id="lquwiNytcV9NUcsQfciu-63" value="" style="edgeStyle=orthogonalEdgeStyle;rounded=0;orthogonalLoop=1;jettySize=auto;html=1;endArrow=none;startFill=1;startArrow=classicThin;strokeColor=default;" edge="1" parent="1" source="lquwiNytcV9NUcsQfciu-61">
          <mxGeometry relative="1" as="geometry">
            <mxPoint x="90" y="390" as="targetPoint" />
          </mxGeometry>
        </mxCell>
        <mxCell id="lquwiNytcV9NUcsQfciu-64" value="" style="rounded=1;whiteSpace=wrap;html=1;" vertex="1" parent="1">
          <mxGeometry x="117.5" y="480" width="92.5" height="90" as="geometry" />
        </mxCell>
        <mxCell id="lquwiNytcV9NUcsQfciu-61" value="" style="shape=image;verticalLabelPosition=bottom;labelBackgroundColor=default;verticalAlign=top;aspect=fixed;imageAspect=0;image=https://cytoscape.org/images/logo/cy3logoOrange.svg;imageBorder=none;perimeterSpacing=0;strokeColor=default;" vertex="1" parent="1">
          <mxGeometry x="117.5" y="482.5" width="85" height="85" as="geometry" />
        </mxCell>
        <mxCell id="lquwiNytcV9NUcsQfciu-65" value="" style="rounded=1;whiteSpace=wrap;html=1;fillColor=#bac8d3;strokeColor=#23445d;" vertex="1" parent="1">
          <mxGeometry x="815" y="199" width="310" height="90" as="geometry" />
        </mxCell>
        <mxCell id="lquwiNytcV9NUcsQfciu-66" value="&lt;div align=&quot;left&quot;&gt;&lt;font face=&quot;Courier New&quot;&gt;&lt;span style=&quot;color: rgb(255, 255, 255);&quot;&gt;&lt;b&gt;neo4j&lt;/b&gt;$ MATCH N RETURN N LIMIT 25&lt;/span&gt;&lt;/font&gt;&lt;/div&gt;" style="rounded=1;whiteSpace=wrap;html=1;strokeColor=light-dark(#000000, #ededed);fillColor=#000000;align=left;" vertex="1" parent="1">
          <mxGeometry x="820" y="207" width="300" height="32" as="geometry" />
        </mxCell>
        <mxCell id="lquwiNytcV9NUcsQfciu-67" value="&lt;div&gt;&lt;font face=&quot;Courier New&quot;&gt;Basic Protocol 4&lt;/font&gt;&lt;/div&gt;" style="rounded=1;whiteSpace=wrap;html=1;fillColor=#b1ddf0;strokeColor=#10739e;" vertex="1" parent="1">
          <mxGeometry x="800" y="320" width="120" height="30" as="geometry" />
        </mxCell>
        <mxCell id="lquwiNytcV9NUcsQfciu-68" value="" style="group" vertex="1" connectable="0" parent="1">
          <mxGeometry x="815" y="79" width="310" height="103.75" as="geometry" />
        </mxCell>
        <mxCell id="lquwiNytcV9NUcsQfciu-49" value="" style="rounded=1;whiteSpace=wrap;html=1;fillColor=#bac8d3;strokeColor=#23445d;" vertex="1" parent="lquwiNytcV9NUcsQfciu-68">
          <mxGeometry width="310" height="103.75" as="geometry" />
        </mxCell>
        <mxCell id="lquwiNytcV9NUcsQfciu-51" value="&lt;div&gt;&lt;font face=&quot;Courier New&quot;&gt;Network&lt;/font&gt;&lt;/div&gt;&lt;div&gt;&lt;font face=&quot;Courier New&quot;&gt;Statistics&lt;/font&gt;&lt;/div&gt;" style="shape=cylinder3;whiteSpace=wrap;html=1;boundedLbl=1;backgroundOutline=1;size=15;" vertex="1" parent="lquwiNytcV9NUcsQfciu-68">
          <mxGeometry x="205" y="13.75" width="87.5" height="77.5" as="geometry" />
        </mxCell>
        <mxCell id="lquwiNytcV9NUcsQfciu-52" value="" style="shape=image;html=1;verticalAlign=top;verticalLabelPosition=bottom;labelBackgroundColor=#ffffff;imageAspect=0;aspect=fixed;image=https://cdn0.iconfinder.com/data/icons/phosphor-thin-vol-2/256/equals-thin-128.png" vertex="1" parent="lquwiNytcV9NUcsQfciu-68">
          <mxGeometry x="128" y="25.5" width="54" height="54" as="geometry" />
        </mxCell>
        <mxCell id="lquwiNytcV9NUcsQfciu-56" value="&lt;b&gt;MeSH&lt;/b&gt;" style="rounded=1;whiteSpace=wrap;html=1;strokeWidth=1;fillColor=light-dark(#f9c354, #ededed);absoluteArcSize=1;" vertex="1" parent="lquwiNytcV9NUcsQfciu-68">
          <mxGeometry x="15" y="13.75" width="67" height="24.25" as="geometry" />
        </mxCell>
        <mxCell id="lquwiNytcV9NUcsQfciu-54" value="&lt;b&gt;Node&lt;/b&gt;" style="rounded=1;whiteSpace=wrap;html=1;strokeWidth=1;fillColor=light-dark(#8dcc93, #ededed);absoluteArcSize=1;" vertex="1" parent="lquwiNytcV9NUcsQfciu-68">
          <mxGeometry x="25" y="20.75" width="67" height="24.25" as="geometry" />
        </mxCell>
        <mxCell id="lquwiNytcV9NUcsQfciu-58" value="&lt;b style=&quot;color: rgb(0, 0, 0);&quot;&gt;Property Key&lt;/b&gt;" style="rounded=0;whiteSpace=wrap;html=1;fillColor=light-dark(#bac8d2, #ededed);strokeWidth=1;strokeColor=light-dark(#000000,#EDEDED);" vertex="1" parent="lquwiNytcV9NUcsQfciu-68">
          <mxGeometry x="15" y="60.5" width="83.5" height="25.75" as="geometry" />
        </mxCell>
        <mxCell id="lquwiNytcV9NUcsQfciu-57" value="&lt;b style=&quot;color: rgb(0, 0, 0);&quot;&gt;Property Key&lt;/b&gt;" style="rounded=0;whiteSpace=wrap;html=1;fillColor=#BAC8D3;strokeWidth=1;strokeColor=light-dark(#000000,#EDEDED);" vertex="1" parent="lquwiNytcV9NUcsQfciu-68">
          <mxGeometry x="21.5" y="65.5" width="83.5" height="25.75" as="geometry" />
        </mxCell>
        <mxCell id="lquwiNytcV9NUcsQfciu-69" value="&lt;div align=&quot;left&quot;&gt;&lt;font face=&quot;Courier New&quot;&gt;&lt;span style=&quot;color: rgb(255, 255, 255);&quot;&gt;&lt;b&gt;neo4j&lt;/b&gt;$ MATCH p=()-[r:Coauthors]-&amp;gt;() &lt;span style=&quot;white-space: pre;&quot;&gt;&#x9;&lt;/span&gt; &lt;span style=&quot;white-space: pre;&quot;&gt;&#x9;&lt;/span&gt;&amp;nbsp;&amp;nbsp; RETURN p LIMIT 25&lt;/span&gt;&lt;/font&gt;&lt;/div&gt;" style="rounded=1;whiteSpace=wrap;html=1;strokeColor=light-dark(#000000, #ededed);fillColor=#000000;align=left;" vertex="1" parent="1">
          <mxGeometry x="820" y="244.5" width="300" height="32" as="geometry" />
        </mxCell>
        <mxCell id="lquwiNytcV9NUcsQfciu-48" value="" style="edgeStyle=orthogonalEdgeStyle;rounded=0;orthogonalLoop=1;jettySize=auto;html=1;" edge="1" parent="1" source="lquwiNytcV9NUcsQfciu-46" target="lquwiNytcV9NUcsQfciu-3">
          <mxGeometry relative="1" as="geometry" />
        </mxCell>
        <mxCell id="lquwiNytcV9NUcsQfciu-91" value="" style="rounded=1;whiteSpace=wrap;html=1;fillColor=#bac8d3;strokeColor=#23445d;" vertex="1" parent="1">
          <mxGeometry x="815" y="365" width="310" height="225" as="geometry" />
        </mxCell>
        <mxCell id="lquwiNytcV9NUcsQfciu-92" value="" style="group" vertex="1" connectable="0" parent="1">
          <mxGeometry x="857.5" y="375" width="225" height="95" as="geometry" />
        </mxCell>
        <mxCell id="lquwiNytcV9NUcsQfciu-93" value="Network Files" style="swimlane;whiteSpace=wrap;html=1;rounded=1;swimlaneLine=1;glass=0;shadow=0;separatorColor=#000000;" vertex="1" parent="lquwiNytcV9NUcsQfciu-92">
          <mxGeometry width="225" height="95" as="geometry" />
        </mxCell>
        <mxCell id="lquwiNytcV9NUcsQfciu-94" value="&lt;font face=&quot;Courier New&quot;&gt;Nodes&lt;/font&gt;" style="shape=card;whiteSpace=wrap;html=1;rounded=1;" vertex="1" parent="lquwiNytcV9NUcsQfciu-92">
          <mxGeometry x="15.580000000000013" y="33.37837837837838" width="81.92" height="48.27027027027027" as="geometry" />
        </mxCell>
        <mxCell id="lquwiNytcV9NUcsQfciu-95" value="&lt;font face=&quot;Courier New&quot;&gt;Nodes&lt;/font&gt;" style="shape=card;whiteSpace=wrap;html=1;rounded=1;" vertex="1" parent="lquwiNytcV9NUcsQfciu-92">
          <mxGeometry x="21.580000000000013" y="38.25675675675676" width="81.92" height="48.27027027027027" as="geometry" />
        </mxCell>
        <mxCell id="lquwiNytcV9NUcsQfciu-96" value="&lt;font face=&quot;Courier New&quot;&gt;Nodes&lt;/font&gt;" style="shape=card;whiteSpace=wrap;html=1;rounded=1;" vertex="1" parent="lquwiNytcV9NUcsQfciu-92">
          <mxGeometry x="121.5" y="33.37837837837838" width="81.92" height="48.27027027027027" as="geometry" />
        </mxCell>
        <mxCell id="lquwiNytcV9NUcsQfciu-97" value="&lt;font face=&quot;Courier New&quot;&gt;Edges&lt;/font&gt;" style="shape=card;whiteSpace=wrap;html=1;rounded=1;" vertex="1" parent="lquwiNytcV9NUcsQfciu-92">
          <mxGeometry x="127.5" y="38.25675675675676" width="81.92" height="48.27027027027027" as="geometry" />
        </mxCell>
        <mxCell id="lquwiNytcV9NUcsQfciu-2" value="" style="rounded=1;whiteSpace=wrap;html=1;fillColor=#dae8fc;strokeColor=#6c8ebf;" vertex="1" parent="1">
          <mxGeometry x="434" y="162" width="340" height="350" as="geometry" />
        </mxCell>
        <mxCell id="lquwiNytcV9NUcsQfciu-46" value="" style="rounded=1;whiteSpace=wrap;html=1;fillColor=#bac8d3;strokeColor=#23445d;" vertex="1" parent="1">
          <mxGeometry x="449" y="181.25" width="310" height="308.75" as="geometry" />
        </mxCell>
        <mxCell id="lquwiNytcV9NUcsQfciu-30" value="&lt;font face=&quot;Courier New&quot;&gt;Basic Protocol 2&lt;/font&gt;" style="rounded=1;whiteSpace=wrap;html=1;fillColor=#b1ddf0;strokeColor=#10739e;" vertex="1" parent="1">
          <mxGeometry x="434" y="140" width="120" height="30" as="geometry" />
        </mxCell>
        <mxCell id="lquwiNytcV9NUcsQfciu-31" value="" style="group" vertex="1" connectable="0" parent="1">
          <mxGeometry x="490" y="200" width="260" height="290" as="geometry" />
        </mxCell>
        <mxCell id="lquwiNytcV9NUcsQfciu-32" value="Network Files" style="swimlane;whiteSpace=wrap;html=1;rounded=1;swimlaneLine=1;glass=0;shadow=0;separatorColor=#000000;" vertex="1" parent="lquwiNytcV9NUcsQfciu-31">
          <mxGeometry width="225" height="100" as="geometry" />
        </mxCell>
        <mxCell id="lquwiNytcV9NUcsQfciu-33" value="&lt;font face=&quot;Courier New&quot;&gt;Nodes&lt;/font&gt;" style="shape=card;whiteSpace=wrap;html=1;rounded=1;" vertex="1" parent="lquwiNytcV9NUcsQfciu-31">
          <mxGeometry x="15.580000000000013" y="32.5" width="81.92" height="47" as="geometry" />
        </mxCell>
        <mxCell id="lquwiNytcV9NUcsQfciu-34" value="&lt;font face=&quot;Courier New&quot;&gt;Nodes&lt;/font&gt;" style="shape=card;whiteSpace=wrap;html=1;rounded=1;" vertex="1" parent="lquwiNytcV9NUcsQfciu-31">
          <mxGeometry x="21.580000000000013" y="37.25" width="81.92" height="47" as="geometry" />
        </mxCell>
        <mxCell id="lquwiNytcV9NUcsQfciu-35" value="&lt;font face=&quot;Courier New&quot;&gt;Nodes&lt;/font&gt;" style="shape=card;whiteSpace=wrap;html=1;rounded=1;" vertex="1" parent="lquwiNytcV9NUcsQfciu-31">
          <mxGeometry x="121.5" y="32.5" width="81.92" height="47" as="geometry" />
        </mxCell>
        <mxCell id="lquwiNytcV9NUcsQfciu-36" value="&lt;font face=&quot;Courier New&quot;&gt;Edges&lt;/font&gt;" style="shape=card;whiteSpace=wrap;html=1;rounded=1;" vertex="1" parent="lquwiNytcV9NUcsQfciu-31">
          <mxGeometry x="127.5" y="37.25" width="81.92" height="47" as="geometry" />
        </mxCell>
        <mxCell id="lquwiNytcV9NUcsQfciu-103" value="" style="edgeStyle=orthogonalEdgeStyle;rounded=0;orthogonalLoop=1;jettySize=auto;html=1;endArrow=none;startFill=0;" edge="1" parent="1">
          <mxGeometry relative="1" as="geometry">
            <mxPoint x="645.0799999999999" y="337" as="sourcePoint" />
            <mxPoint x="602" y="337" as="targetPoint" />
          </mxGeometry>
        </mxCell>
        <mxCell id="lquwiNytcV9NUcsQfciu-38" value="&lt;font face=&quot;Courier New&quot;&gt;import_csv.py&lt;/font&gt;" style="shape=card;whiteSpace=wrap;html=1;rounded=1;" vertex="1" parent="1">
          <mxGeometry x="643.08" y="307" width="106.92" height="60" as="geometry" />
        </mxCell>
        <mxCell id="lquwiNytcV9NUcsQfciu-41" value="&lt;font face=&quot;Courier New&quot;&gt;Neo4J Database&lt;/font&gt;" style="shape=cylinder3;whiteSpace=wrap;html=1;boundedLbl=1;backgroundOutline=1;size=15;" vertex="1" parent="1">
          <mxGeometry x="522.5" y="383.75" width="160" height="80" as="geometry" />
        </mxCell>
        <mxCell id="lquwiNytcV9NUcsQfciu-42" value="" style="edgeStyle=orthogonalEdgeStyle;rounded=0;orthogonalLoop=1;jettySize=auto;html=1;" edge="1" parent="1" source="lquwiNytcV9NUcsQfciu-32" target="lquwiNytcV9NUcsQfciu-41">
          <mxGeometry relative="1" as="geometry" />
        </mxCell>
        <mxCell id="lquwiNytcV9NUcsQfciu-109" value="" style="edgeStyle=orthogonalEdgeStyle;rounded=0;orthogonalLoop=1;jettySize=auto;html=1;" edge="1" parent="1" source="lquwiNytcV9NUcsQfciu-104" target="lquwiNytcV9NUcsQfciu-107">
          <mxGeometry relative="1" as="geometry">
            <Array as="points">
              <mxPoint x="990" y="523" />
              <mxPoint x="990" y="523" />
            </Array>
          </mxGeometry>
        </mxCell>
        <mxCell id="lquwiNytcV9NUcsQfciu-104" value="&lt;font face=&quot;Courier New&quot;&gt;setting_up_ui.ipynb&lt;/font&gt;" style="shape=card;whiteSpace=wrap;html=1;rounded=1;" vertex="1" parent="1">
          <mxGeometry x="820" y="496" width="162.5" height="58" as="geometry" />
        </mxCell>
        <mxCell id="lquwiNytcV9NUcsQfciu-107" value="&lt;font face=&quot;Courier New&quot;&gt;schema.json&lt;/font&gt;" style="shape=card;whiteSpace=wrap;html=1;rounded=1;" vertex="1" parent="1">
          <mxGeometry x="1010" y="493.5" width="100" height="58" as="geometry" />
        </mxCell>
        <mxCell id="lquwiNytcV9NUcsQfciu-108" value="" style="rounded=1;whiteSpace=wrap;html=1;fillColor=#dae8fc;strokeColor=#6c8ebf;" vertex="1" parent="1">
          <mxGeometry x="1170" y="30" width="360" height="590" as="geometry" />
        </mxCell>
        <mxCell id="lquwiNytcV9NUcsQfciu-114" value="" style="edgeStyle=orthogonalEdgeStyle;rounded=0;orthogonalLoop=1;jettySize=auto;html=1;" edge="1" parent="1" source="lquwiNytcV9NUcsQfciu-93" target="lquwiNytcV9NUcsQfciu-104">
          <mxGeometry relative="1" as="geometry">
            <Array as="points">
              <mxPoint x="970" y="480" />
              <mxPoint x="901" y="480" />
            </Array>
          </mxGeometry>
        </mxCell>
        <mxCell id="lquwiNytcV9NUcsQfciu-117" value="&lt;div&gt;&lt;font face=&quot;Courier New&quot;&gt;Basic Protocol 5&lt;/font&gt;&lt;/div&gt;" style="rounded=1;whiteSpace=wrap;html=1;fillColor=#b1ddf0;strokeColor=#10739e;" vertex="1" parent="1">
          <mxGeometry x="1170" y="20" width="120" height="30" as="geometry" />
        </mxCell>
        <mxCell id="lquwiNytcV9NUcsQfciu-122" value="" style="edgeStyle=orthogonalEdgeStyle;rounded=0;orthogonalLoop=1;jettySize=auto;html=1;" edge="1" parent="1" source="lquwiNytcV9NUcsQfciu-119" target="lquwiNytcV9NUcsQfciu-121">
          <mxGeometry relative="1" as="geometry" />
        </mxCell>
        <mxCell id="lquwiNytcV9NUcsQfciu-119" value="" style="rounded=1;whiteSpace=wrap;html=1;fillColor=#bac8d3;strokeColor=#23445d;" vertex="1" parent="1">
          <mxGeometry x="1195" y="59" width="310" height="111" as="geometry" />
        </mxCell>
        <mxCell id="lquwiNytcV9NUcsQfciu-118" value="&lt;font face=&quot;Courier New&quot;&gt;schema.json&lt;/font&gt;" style="shape=card;whiteSpace=wrap;html=1;rounded=1;" vertex="1" parent="1">
          <mxGeometry x="1215" y="86" width="100" height="58" as="geometry" />
        </mxCell>
        <mxCell id="lquwiNytcV9NUcsQfciu-120" value="&lt;font face=&quot;Courier New&quot;&gt;Neo4J Database&lt;/font&gt;" style="shape=cylinder3;whiteSpace=wrap;html=1;boundedLbl=1;backgroundOutline=1;size=15;" vertex="1" parent="1">
          <mxGeometry x="1335" y="69" width="160" height="80" as="geometry" />
        </mxCell>
        <mxCell id="lquwiNytcV9NUcsQfciu-121" value="" style="rounded=1;whiteSpace=wrap;html=1;fillColor=#bac8d3;strokeColor=#23445d;" vertex="1" parent="1">
          <mxGeometry x="1195" y="207" width="310" height="393" as="geometry" />
        </mxCell>
        <mxCell id="lquwiNytcV9NUcsQfciu-125" value="" style="group" vertex="1" connectable="0" parent="1">
          <mxGeometry x="1230" y="244.5" width="240" height="35.5" as="geometry" />
        </mxCell>
        <mxCell id="lquwiNytcV9NUcsQfciu-123" value="&lt;font face=&quot;Courier New&quot;&gt;Single Term Search&lt;/font&gt;" style="rounded=1;whiteSpace=wrap;html=1;" vertex="1" parent="lquwiNytcV9NUcsQfciu-125">
          <mxGeometry width="240" height="35.5" as="geometry" />
        </mxCell>
        <mxCell id="lquwiNytcV9NUcsQfciu-124" value="" style="sketch=0;pointerEvents=1;shadow=0;dashed=0;html=1;strokeColor=none;fillColor=#505050;labelPosition=center;verticalLabelPosition=bottom;verticalAlign=top;outlineConnect=0;align=center;shape=mxgraph.office.concepts.search;" vertex="1" parent="lquwiNytcV9NUcsQfciu-125">
          <mxGeometry x="200" y="5.3799999999999955" width="25" height="24.75" as="geometry" />
        </mxCell>
        <mxCell id="lquwiNytcV9NUcsQfciu-126" value="" style="group" vertex="1" connectable="0" parent="1">
          <mxGeometry x="1230" y="284.5" width="240" height="35.5" as="geometry" />
        </mxCell>
        <mxCell id="lquwiNytcV9NUcsQfciu-127" value="&lt;font face=&quot;Courier New&quot;&gt;Two Term Search&lt;/font&gt;" style="rounded=1;whiteSpace=wrap;html=1;" vertex="1" parent="lquwiNytcV9NUcsQfciu-126">
          <mxGeometry width="240" height="35.5" as="geometry" />
        </mxCell>
        <mxCell id="lquwiNytcV9NUcsQfciu-128" value="" style="sketch=0;pointerEvents=1;shadow=0;dashed=0;html=1;strokeColor=none;fillColor=#505050;labelPosition=center;verticalLabelPosition=bottom;verticalAlign=top;outlineConnect=0;align=center;shape=mxgraph.office.concepts.search;" vertex="1" parent="lquwiNytcV9NUcsQfciu-126">
          <mxGeometry x="200" y="5.3799999999999955" width="25" height="24.75" as="geometry" />
        </mxCell>
        <mxCell id="lquwiNytcV9NUcsQfciu-129" value="" style="group" vertex="1" connectable="0" parent="1">
          <mxGeometry x="1230" y="324.25" width="240" height="35.5" as="geometry" />
        </mxCell>
        <mxCell id="lquwiNytcV9NUcsQfciu-130" value="&lt;font face=&quot;Courier New&quot;&gt;Shortest Path Search&lt;/font&gt;" style="rounded=1;whiteSpace=wrap;html=1;" vertex="1" parent="lquwiNytcV9NUcsQfciu-129">
          <mxGeometry width="240" height="35.5" as="geometry" />
        </mxCell>
        <mxCell id="lquwiNytcV9NUcsQfciu-131" value="" style="sketch=0;pointerEvents=1;shadow=0;dashed=0;html=1;strokeColor=none;fillColor=#505050;labelPosition=center;verticalLabelPosition=bottom;verticalAlign=top;outlineConnect=0;align=center;shape=mxgraph.office.concepts.search;" vertex="1" parent="lquwiNytcV9NUcsQfciu-129">
          <mxGeometry x="200" y="5.3799999999999955" width="25" height="24.75" as="geometry" />
        </mxCell>
        <mxCell id="lquwiNytcV9NUcsQfciu-132" value="" style="rounded=1;whiteSpace=wrap;html=1;" vertex="1" parent="1">
          <mxGeometry x="1230" y="373.5" width="240" height="196.5" as="geometry" />
        </mxCell>
        <mxCell id="lquwiNytcV9NUcsQfciu-133" value="&lt;font face=&quot;Courier New&quot;&gt;Optional&lt;/font&gt;" style="rounded=1;whiteSpace=wrap;html=1;fillColor=#b1ddf0;strokeColor=#10739e;" vertex="1" parent="1">
          <mxGeometry x="250" y="452.5" width="120" height="30" as="geometry" />
        </mxCell>
        <mxCell id="lquwiNytcV9NUcsQfciu-134" value="" style="shape=image;verticalLabelPosition=bottom;labelBackgroundColor=default;verticalAlign=top;aspect=fixed;imageAspect=0;editableCssRules=.*;image=data:image/svg+xml,PHN2ZyBoZWlnaHQ9IjY0MS4zODczMjkxMDE1NjI1IiB3aWR0aD0iNjc5LjA3NDQ2Mjg5MDYyNSIgeG1sbnM6eGxpbms9Imh0dHA6Ly93d3cudzMub3JnLzE5OTkveGxpbmsiIHhtbG5zPSJodHRwOi8vd3d3LnczLm9yZy8yMDAwL3N2ZyIgdmVyc2lvbj0iMS4xIiB2aWV3Qm94PSI1NS41MjMwODI3MzMxNTQzIDI4LjMwNjM0Njg5MzMxMDU0NyA2NzkuMDc0NDYyODkwNjI1IDY0MS4zODczMjkxMDE1NjI1Ij48ZGVmcy8+PGcgdHJhbnNmb3JtPSJ0cmFuc2xhdGUoODMuODIxMDg2MDQwOTU2MDUsMjkuODA2MzQ3NTc5Mjg0OTI1KSBzY2FsZSgwLjgwNjM0NzU3OTI4NDk2MTgsMC44MDYzNDc1NzkyODQ5NjE4KSI+PHBhdGggc3Ryb2tlLXdpZHRoPSIzIiBzdHJva2UtbWl0ZXJsaW1pdD0iMTAiIHN0cm9rZS1saW5lam9pbj0icm91bmQiIHN0cm9rZS1vcGFjaXR5PSIxIiBkPSJNIDQ2MC4wOTkyMzczMzg2MjQ3IDM1OC4wODIyOTEzMzYwNTM4IEwgNTg1Ljc2MDg4NTAwNTYwMDQgMjg0LjE5NTIyMjk5NzUzOTkiIHBhaW50LW9yZGVyPSJmaWxsIHN0cm9rZSBtYXJrZXJzIiBzdHJva2U9InJnYigyMjQsMjI0LDIyNCkiIGZpbGw9Im5vbmUiLz48cGF0aCBzdHJva2Utd2lkdGg9IjMiIHN0cm9rZS1taXRlcmxpbWl0PSIxMCIgc3Ryb2tlLWxpbmVqb2luPSJyb3VuZCIgc3Ryb2tlLW9wYWNpdHk9IjEiIGQ9Ik0gNDU0LjQ1NzMwMDI5NDA5Njk3IDQ0Mi4zODcwNjIwOTk0MTI1NiBMIDU2Mi43MDg1MjU0MzM5ODQ2IDUyNy4zMDQyODE2MzkwMzU3IiBwYWludC1vcmRlcj0iZmlsbCBzdHJva2UgbWFya2VycyIgc3Ryb2tlPSJyZ2IoMjI0LDIyNCwyMjQpIiBmaWxsPSJub25lIi8+PHBhdGggc3Ryb2tlLXdpZHRoPSIzIiBzdHJva2UtbWl0ZXJsaW1pdD0iMTAiIHN0cm9rZS1saW5lam9pbj0icm91bmQiIHN0cm9rZS1vcGFjaXR5PSIxIiBkPSJNIDQ2OC40NjQ0ODM2NzEzNzM1IDM3OC45NjYxMDc3MTc0MzA1MyBMIDcyMS4yNTY3NjcyMDAyNjkgMzE5LjY1ODQzOTIyNjE4MDkiIHBhaW50LW9yZGVyPSJmaWxsIHN0cm9rZSBtYXJrZXJzIiBzdHJva2U9InJnYigyMjQsMjI0LDIyNCkiIGZpbGw9Im5vbmUiLz48cGF0aCBzdHJva2Utd2lkdGg9IjMiIHN0cm9rZS1taXRlcmxpbWl0PSIxMCIgc3Ryb2tlLWxpbmVqb2luPSJyb3VuZCIgc3Ryb2tlLW9wYWNpdHk9IjEiIGQ9Ik0gMzUxLjgyNTY2NDYzODQzMDMgNDU3LjEwNjM0OTAxNjcwMjIgTCAxOTEuMzUxNzMzNTc2ODk0NjUgNjgxLjU0Nzc1NDYyMDU2NTUiIHBhaW50LW9yZGVyPSJmaWxsIHN0cm9rZSBtYXJrZXJzIiBzdHJva2U9InJnYigyMjQsMjI0LDIyNCkiIGZpbGw9Im5vbmUiLz48cGF0aCBzdHJva2Utd2lkdGg9IjMiIHN0cm9rZS1taXRlcmxpbWl0PSIxMCIgc3Ryb2tlLWxpbmVqb2luPSJyb3VuZCIgc3Ryb2tlLW9wYWNpdHk9IjEiIGQ9Ik0gMzU1LjMwODI0NTgzMTMzNzMzIDMzMi43NDE1OTkwNjI0MzkyNiBMIDI3NS44MTcyOTAwMjgxMzI1NiAyMDcuMjczMDU4MjMzNTgyIiBwYWludC1vcmRlcj0iZmlsbCBzdHJva2UgbWFya2VycyIgc3Ryb2tlPSJyZ2IoMjI0LDIyNCwyMjQpIiBmaWxsPSJub25lIi8+PHBhdGggc3Ryb2tlLXdpZHRoPSIzIiBzdHJva2UtbWl0ZXJsaW1pdD0iMTAiIHN0cm9rZS1saW5lam9pbj0icm91bmQiIHN0cm9rZS1vcGFjaXR5PSIxIiBkPSJNIDQwNi43MDQyMDA2MDA4ODUxNCA0NzAuMjQ3MTEwNDI4OTM2MSBMIDQ0NC45MzkwMjA5NzI5MjQzNyA3MjIuMDk4ODgzNDQ0MzU4NSIgcGFpbnQtb3JkZXI9ImZpbGwgc3Ryb2tlIG1hcmtlcnMiIHN0cm9rZT0icmdiKDIyNCwyMjQsMjI0KSIgZmlsbD0ibm9uZSIvPjxwYXRoIHN0cm9rZS13aWR0aD0iMyIgc3Ryb2tlLW1pdGVybGltaXQ9IjEwIiBzdHJva2UtbGluZWpvaW49InJvdW5kIiBzdHJva2Utb3BhY2l0eT0iMSIgZD0iTSAzNjguOTY0MDEwMzc3NjA3NTYgMzI1LjkyODAzNzA5NzIwNTQ1IEwgMjcyLjM3NTczMzI4ODE4NDM0IDcwLjAxMDc4MDU4MzkzNjQyIiBwYWludC1vcmRlcj0iZmlsbCBzdHJva2UgbWFya2VycyIgc3Ryb2tlPSJyZ2IoMjI0LDIyNCwyMjQpIiBmaWxsPSJub25lIi8+PHBhdGggc3Ryb2tlLXdpZHRoPSIzIiBzdHJva2UtbWl0ZXJsaW1pdD0iMTAiIHN0cm9rZS1saW5lam9pbj0icm91bmQiIHN0cm9rZS1vcGFjaXR5PSIxIiBkPSJNIDMyMC43NzY3NTkzNjIyMDU1IDQwMy4xMjEyMjQ4NjgwNDI2NSBMIDY5Ljg0NjE0OTE1OTcxNDM0IDQyNi43MjcwOTU0MTkzMDg5IiBwYWludC1vcmRlcj0iZmlsbCBzdHJva2UgbWFya2VycyIgc3Ryb2tlPSJyZ2IoMjI0LDIyNCwyMjQpIiBmaWxsPSJub25lIi8+PHBhdGggc3Ryb2tlLXdpZHRoPSIzIiBzdHJva2UtbWl0ZXJsaW1pdD0iMTAiIHN0cm9rZS1saW5lam9pbj0icm91bmQiIHN0cm9rZS1vcGFjaXR5PSIxIiBkPSJNIDQ0MC40NjM3MTI1OTcyOTU5IDMzNi4xMDkyMjAzMDM2NDM2IEwgNDU1Ljg3MzE4NTkyMjg4NDkgMzE1LjU3NTExOTE1OTMxMjI0IiBwYWludC1vcmRlcj0iZmlsbCBzdHJva2UgbWFya2VycyIgc3Ryb2tlPSJyZ2IoMjI0LDIyNCwyMjQpIiBmaWxsPSJub25lIi8+PHBhdGggc3Ryb2tlLXdpZHRoPSIzIiBzdHJva2UtbWl0ZXJsaW1pdD0iMTAiIHN0cm9rZS1saW5lam9pbj0icm91bmQiIHN0cm9rZS1vcGFjaXR5PSIxIiBkPSJNIDM5Ni42MjgyMjEzNTk3Mjg2IDMyMS4xMDYwNDI3MjAzODIxNiBMIDQwMC41ODMzNDAwMzQzMTc1IDY5Ljk5NTY1OTQyODE0Njc4IiBwYWludC1vcmRlcj0iZmlsbCBzdHJva2UgbWFya2VycyIgc3Ryb2tlPSJyZ2IoMjI0LDIyNCwyMjQpIiBmaWxsPSJub25lIi8+PHBhdGggc3Ryb2tlLXdpZHRoPSIzIiBzdHJva2UtbWl0ZXJsaW1pdD0iMTAiIHN0cm9rZS1saW5lam9pbj0icm91bmQiIHN0cm9rZS1vcGFjaXR5PSIxIiBkPSJNIDMyMS4zMTE5ODc1NjEwNTE4NiA0MDcuNDU0MDM5NTM2MjAxMyBMIDIwOS43MzMwODM4MjY1OTc5OCA0MjQuNTQ3NjI5NjM0OTc5MiIgcGFpbnQtb3JkZXI9ImZpbGwgc3Ryb2tlIG1hcmtlcnMiIHN0cm9rZT0icmdiKDIyNCwyMjQsMjI0KSIgZmlsbD0ibm9uZSIvPjxwYXRoIHN0cm9rZS13aWR0aD0iMyIgc3Ryb2tlLW1pdGVybGltaXQ9IjEwIiBzdHJva2UtbGluZWpvaW49InJvdW5kIiBzdHJva2Utb3BhY2l0eT0iMSIgZD0iTSA0MTMuNjI5NjUxMzY2NzEyOCA0NjguODU5MzI4NDU5NTE3OSBMIDQ0Mi4yNTY3OTIxNjQyMjE2IDU4My40MTg3NDE2NTQwNjYiIHBhaW50LW9yZGVyPSJmaWxsIHN0cm9rZSBtYXJrZXJzIiBzdHJva2U9InJnYigyMjQsMjI0LDIyNCkiIGZpbGw9Im5vbmUiLz48cGF0aCBzdHJva2Utd2lkdGg9IjMiIHN0cm9rZS1taXRlcmxpbWl0PSIxMCIgc3Ryb2tlLWxpbmVqb2luPSJyb3VuZCIgc3Ryb2tlLW9wYWNpdHk9IjEiIGQ9Ik0gNDMwLjU3ODYzNjM5MjM2MjggMzI5LjgzMzgyODIyODk5MjcgTCA1MjIuMjcwODEwNDA2MTIwNyAxNTYuODg5ODcwNjI3Mzk5NTUiIHBhaW50LW9yZGVyPSJmaWxsIHN0cm9rZSBtYXJrZXJzIiBzdHJva2U9InJnYigyMjQsMjI0LDIyNCkiIGZpbGw9Im5vbmUiLz48cGF0aCBzdHJva2Utd2lkdGg9IjMiIHN0cm9rZS1taXRlcmxpbWl0PSIxMCIgc3Ryb2tlLWxpbmVqb2luPSJyb3VuZCIgc3Ryb2tlLW9wYWNpdHk9IjEiIGQ9Ik0gMzQ2LjM5Nzg1NTUxODk0NDIgNDUyLjgzNDUwMzg0ODM3Njc2IEwgMjY3LjMwMDAzMzI2NDIyODcgNTQ0LjMzMTAyNzYyOTA3MDEiIHBhaW50LW9yZGVyPSJmaWxsIHN0cm9rZSBtYXJrZXJzIiBzdHJva2U9InJnYigyMjQsMjI0LDIyNCkiIGZpbGw9Im5vbmUiLz48cGF0aCBzdHJva2Utd2lkdGg9IjMiIHN0cm9rZS1taXRlcmxpbWl0PSIxMCIgc3Ryb2tlLWxpbmVqb2luPSJyb3VuZCIgc3Ryb2tlLW9wYWNpdHk9IjEiIGQ9Ik0gMzc1LjkwNTkxMzc2ODk3NDMgNDY4LjUwNjI5MTAxNTczMzYgTCAzMTkuODU3MTk0Njk0MDEyNyA2NzYuMTk0MTM2MzE1MzYyOCIgcGFpbnQtb3JkZXI9ImZpbGwgc3Ryb2tlIG1hcmtlcnMiIHN0cm9rZT0icmdiKDIyNCwyMjQsMjI0KSIgZmlsbD0ibm9uZSIvPjxwYXRoIHN0cm9rZS13aWR0aD0iMyIgc3Ryb2tlLW1pdGVybGltaXQ9IjEwIiBzdHJva2UtbGluZWpvaW49InJvdW5kIiBzdHJva2Utb3BhY2l0eT0iMSIgZD0iTSA0NjkuNTc1NDA1MDQ0NTA4MzMgNDA3LjQ5ODExMzE4MzU1MjUgTCA3MjAuMDE4MTg1MTE1ODc1NCA0NDYuMDE3NjgyODg1MTQyOCIgcGFpbnQtb3JkZXI9ImZpbGwgc3Ryb2tlIG1hcmtlcnMiIHN0cm9rZT0icmdiKDIyNCwyMjQsMjI0KSIgZmlsbD0ibm9uZSIvPjxwYXRoIHN0cm9rZS13aWR0aD0iMyIgc3Ryb2tlLW1pdGVybGltaXQ9IjEwIiBzdHJva2UtbGluZWpvaW49InJvdW5kIiBzdHJva2Utb3BhY2l0eT0iMSIgZD0iTSA0MzcuMDQ2MTI5OTU1MDI2MiA0NTguNTAyODIyNTk5NDkzOCBMIDU3MS4yNzczMjE0Nzg0NiA2NTkuODczODI1Nzk5NjAzMyIgcGFpbnQtb3JkZXI9ImZpbGwgc3Ryb2tlIG1hcmtlcnMiIHN0cm9rZT0icmdiKDIyNCwyMjQsMjI0KSIgZmlsbD0ibm9uZSIvPjxwYXRoIHN0cm9rZS13aWR0aD0iMyIgc3Ryb2tlLW1pdGVybGltaXQ9IjEwIiBzdHJva2UtbGluZWpvaW49InJvdW5kIiBzdHJva2Utb3BhY2l0eT0iMSIgZD0iTSAzMjcuODU0MDYwMDQ1MDY5MyAzNjMuNTk3NzYwMTI4MDUzOCBMIDIwNy44MDIxODQxMTA2NzYzNiAzMDUuODc2MzYwMTk3MzAzMzciIHBhaW50LW9yZGVyPSJmaWxsIHN0cm9rZSBtYXJrZXJzIiBzdHJva2U9InJnYigyMjQsMjI0LDIyNCkiIGZpbGw9Im5vbmUiLz48cGF0aCBzdHJva2Utd2lkdGg9IjMiIHN0cm9rZS1taXRlcmxpbWl0PSIxMCIgc3Ryb2tlLWxpbmVqb2luPSJyb3VuZCIgc3Ryb2tlLW9wYWNpdHk9IjEiIGQ9Ik0gMzM5LjMzOTU4Nzk3NjE1OTI0IDM0Ni4zMjc3ODA3NjUyOTM2NSBMIDE0My43MzUyMDMyNTkwMDUxNSAxNzIuODIxMDU3MDUzMjUwOTciIHBhaW50LW9yZGVyPSJmaWxsIHN0cm9rZSBtYXJrZXJzIiBzdHJva2U9InJnYigyMjQsMjI0LDIyNCkiIGZpbGw9Im5vbmUiLz48cGF0aCBzdHJva2Utd2lkdGg9IjMiIHN0cm9rZS1taXRlcmxpbWl0PSIxMCIgc3Ryb2tlLWxpbmVqb2luPSJyb3VuZCIgc3Ryb2tlLW9wYWNpdHk9IjEiIGQ9Ik0gMzk2LjQxMjg1NDA0MjY2NCAzMjEuMTAyOTU5ODk1Nzg1OTQgTCAzOTcuODM0MDk0NDU2MDcwMDMgMjEwLjc0MTY1NjkzMjg0MzA5IiBwYWludC1vcmRlcj0iZmlsbCBzdHJva2UgbWFya2VycyIgc3Ryb2tlPSJyZ2IoMjI0LDIyNCwyMjQpIiBmaWxsPSJub25lIi8+PHBhdGggc3Ryb2tlLXdpZHRoPSIzIiBzdHJva2UtbWl0ZXJsaW1pdD0iMTAiIHN0cm9rZS1saW5lam9pbj0icm91bmQiIHN0cm9rZS1vcGFjaXR5PSIxIiBkPSJNIDQ0OS44NTIwODkzNzgyNTIgMzQ0LjQ3MjE4NDg4OTg5MjU2IEwgNjUzLjkxMzk0NzYzMDczOCAxNTAuODM5MjI5NDQ3OTQzODQiIHBhaW50LW9yZGVyPSJmaWxsIHN0cm9rZSBtYXJrZXJzIiBzdHJva2U9InJnYigyMjQsMjI0LDIyNCkiIGZpbGw9Im5vbmUiLz48cGF0aCBzdHJva2Utd2lkdGg9IjMiIHN0cm9rZS1taXRlcmxpbWl0PSIxMCIgc3Ryb2tlLWxpbmVqb2luPSJyb3VuZCIgc3Ryb2tlLW9wYWNpdHk9IjEiIGQ9Ik0gNDcwLjM0MzYxNjIyNzI1ODA1IDQwMC4wMzQ4NTE0MzQxMTQ0IEwgNTc5LjU5NDEwMDIwODAxNDQgNDA1Ljc3OTMxNDgzMjQzNzIiIHBhaW50LW9yZGVyPSJmaWxsIHN0cm9rZSBtYXJrZXJzIiBzdHJva2U9InJnYigyMjQsMjI0LDIyNCkiIGZpbGw9Im5vbmUiLz48cGF0aCBzdHJva2Utd2lkdGg9IjMiIHN0cm9rZS1taXRlcmxpbWl0PSIxMCIgc3Ryb2tlLWxpbmVqb2luPSJyb3VuZCIgc3Ryb2tlLW9wYWNpdHk9IjEiIGQ9Ik0gMzIzLjQ2ODg3NDExMTI1OTMgMzc1LjAyMjE1OTExNjkwNjIgTCA2OS4wODE1NDYwMTQ0NDQ3NyAzMDAuNTM5Nzk3MjU1NjQiIHBhaW50LW9yZGVyPSJmaWxsIHN0cm9rZSBtYXJrZXJzIiBzdHJva2U9InJnYigyMjQsMjI0LDIyNCkiIGZpbGw9Im5vbmUiLz48cGF0aCBzdHJva2Utd2lkdGg9IjMiIHN0cm9rZS1taXRlcmxpbWl0PSIxMCIgc3Ryb2tlLWxpbmVqb2luPSJyb3VuZCIgc3Ryb2tlLW9wYWNpdHk9IjEiIGQ9Ik0gMzMxLjExMzQxODQzMzc3NTM0IDQzNC42NDc3NDgyMTg3NDA3MyBMIDEzMy45NzYzMDQ2NjkwNDA5MyA1NTIuNzc5Mjg1MTU0NzYyMiIgcGFpbnQtb3JkZXI9ImZpbGwgc3Ryb2tlIG1hcmtlcnMiIHN0cm9rZT0icmdiKDIyNCwyMjQsMjI0KSIgZmlsbD0ibm9uZSIvPjxwYXRoIHN0cm9rZS13aWR0aD0iMyIgc3Ryb2tlLW1pdGVybGltaXQ9IjEwIiBzdHJva2UtbGluZWpvaW49InJvdW5kIiBzdHJva2Utb3BhY2l0eT0iMSIgZD0iTSA0NjAuMTg2NjgxNjAwNjMwOCA0MzMuOTYyMDc5OTE3MzMwMjQgTCA2OTkuODYwMDU1NjUzNzY2IDU3NC4xNDM4NzA1NTg3MzI5IiBwYWludC1vcmRlcj0iZmlsbCBzdHJva2UgbWFya2VycyIgc3Ryb2tlPSJyZ2IoMjI0LDIyNCwyMjQpIiBmaWxsPSJub25lIi8+PHBhdGggZmlsbC1vcGFjaXR5PSIxIiBkPSJNIDQzMy4yODQ3ODk0ODA1Njk2NiAxNzUuNzQ0NTU4ODUzMjE4MSBMIDQzMy4xNzY4OTYxNjEyMjkxNCAxNzguNDkwNjI3MjAzNjkyNjcgTCA0MzIuODUzODgxNDAxMzk5NDYgMTgxLjIxOTc2NTEyOTYyNjE4IEwgNDMyLjMxNzczNjY5NDQ4ODM2IDE4My45MTUxNDY1ODgxNzQ4IEwgNDMxLjU3MTc2NzU1MDkgMTg2LjU2MDE1MzY1NjM0MTI3IEwgNDMwLjYyMDU3MzExODQ2NDcgMTg5LjEzODQ3ODk4NTk5NjI0IEwgNDI5LjQ3MDAxNzgyNzE2MjUgMTkxLjYzNDIyNjM0NDEwMjI1IEwgNDI4LjEyNzE5NTIzMjk2MjkgMTk0LjAzMjAwODYxODI3NjMgTCA0MjYuNjAwMzg0MjgzNjkyODUgMTk2LjMxNzA0MjY4MzQ1NDY3IEwgNDI0Ljg5ODk5ODI3NjU3MDc1IDE5OC40NzUyNDA1NDQ3NzQ1MiBMIDQyMy4wMzM1MjY4MjIwOTg4IDIwMC40OTMyOTYxOTQ3NDcyNyBMIDQyMS4wMTU0NzExNzIxMjYwNyAyMDIuMzU4NzY3NjQ5MjE5MiBMIDQxOC44NTcyNzMzMTA4MDYyIDIwNC4wNjAxNTM2NTYzNDEyNyBMIDQxNi41NzIyMzkyNDU2Mjc5IDIwNS41ODY5NjQ2MDU2MTEzNCBMIDQxNC4xNzQ0NTY5NzE0NTM4IDIwNi45Mjk3ODcxOTk4MTEgTCA0MTEuNjc4NzA5NjEzMzQ3OCAyMDguMDgwMzQyNDkxMTEzMTMgTCA0MDkuMTAwMzg0MjgzNjkyODUgMjA5LjAzMTUzNjkyMzU0ODUgTCA0MDYuNDU1Mzc3MjE1NTI2MzcgMjA5Ljc3NzUwNjA2NzEzNjc4IEwgNDAzLjc1OTk5NTc1Njk3NzczIDIxMC4zMTM2NTA3NzQwNDc5MSBMIDQwMS4wMzA4NTc4MzEwNDQyIDIxMC42MzY2NjU1MzM4Nzc2IEwgMzk4LjI4NDc4OTQ4MDU2OTY2IDIxMC43NDQ1NTg4NTMyMTgxIEwgMzk1LjUzODcyMTEzMDA5NTEgMjEwLjYzNjY2NTUzMzg3NzYgTCAzOTIuODA5NTgzMjA0MTYxNiAyMTAuMzEzNjUwNzc0MDQ3OTEgTCAzOTAuMTE0MjAxNzQ1NjEyOTUgMjA5Ljc3NzUwNjA2NzEzNjc4IEwgMzg3LjQ2OTE5NDY3NzQ0NjUgMjA5LjAzMTUzNjkyMzU0ODUgTCAzODQuODkwODY5MzQ3NzkxNSAyMDguMDgwMzQyNDkxMTEzMTMgTCAzODIuMzk1MTIxOTg5Njg1NTUgMjA2LjkyOTc4NzE5OTgxMSBMIDM3OS45OTczMzk3MTU1MTE0MyAyMDUuNTg2OTY0NjA1NjExMzQgTCAzNzcuNzEyMzA1NjUwMzMzMSAyMDQuMDYwMTUzNjU2MzQxMjcgTCAzNzUuNTU0MTA3Nzg5MDEzMjQgMjAyLjM1ODc2NzY0OTIxOTIgTCAzNzMuNTM2MDUyMTM5MDQwNSAyMDAuNDkzMjk2MTk0NzQ3MjcgTCAzNzEuNjcwNTgwNjg0NTY4NTYgMTk4LjQ3NTI0MDU0NDc3NDU1IEwgMzY5Ljk2OTE5NDY3NzQ0NjUgMTk2LjMxNzA0MjY4MzQ1NDY3IEwgMzY4LjQ0MjM4MzcyODE3NjQgMTk0LjAzMjAwODYxODI3NjM0IEwgMzY3LjA5OTU2MTEzMzk3NjggMTkxLjYzNDIyNjM0NDEwMjI1IEwgMzY1Ljk0OTAwNTg0MjY3NDY0IDE4OS4xMzg0Nzg5ODU5OTYyNCBMIDM2NC45OTc4MTE0MTAyMzkzIDE4Ni41NjAxNTM2NTYzNDEyNyBMIDM2NC4yNTE4NDIyNjY2NTA5NSAxODMuOTE1MTQ2NTg4MTc0OCBMIDM2My43MTU2OTc1NTk3Mzk4NSAxODEuMjE5NzY1MTI5NjI2MTggTCAzNjMuMzkyNjgyNzk5OTEwMiAxNzguNDkwNjI3MjAzNjkyNyBMIDM2My4yODQ3ODk0ODA1Njk2NiAxNzUuNzQ0NTU4ODUzMjE4MSBMIDM2My4zOTI2ODI3OTk5MTAyIDE3Mi45OTg0OTA1MDI3NDM1NSBMIDM2My43MTU2OTc1NTk3Mzk4NSAxNzAuMjY5MzUyNTc2ODEwMDQgTCAzNjQuMjUxODQyMjY2NjUwOTUgMTY3LjU3Mzk3MTExODI2MTQzIEwgMzY0Ljk5NzgxMTQxMDIzOTI1IDE2NC45Mjg5NjQwNTAwOTQ5NSBMIDM2NS45NDkwMDU4NDI2NzQ2NCAxNjIuMzUwNjM4NzIwNDM5OTcgTCAzNjcuMDk5NTYxMTMzOTc2OCAxNTkuODU0ODkxMzYyMzMzOTcgTCAzNjguNDQyMzgzNzI4MTc2NCAxNTcuNDU3MTA5MDg4MTU5OSBMIDM2OS45NjkxOTQ2Nzc0NDY0NyAxNTUuMTcyMDc1MDIyOTgxNTUgTCAzNzEuNjcwNTgwNjg0NTY4NTYgMTUzLjAxMzg3NzE2MTY2MTcgTCAzNzMuNTM2MDUyMTM5MDQwNDYgMTUwLjk5NTgyMTUxMTY4ODk0IEwgMzc1LjU1NDEwNzc4OTAxMzIgMTQ5LjEzMDM1MDA1NzIxNzA0IEwgMzc3LjcxMjMwNTY1MDMzMzA2IDE0Ny40Mjg5NjQwNTAwOTQ5NSBMIDM3OS45OTczMzk3MTU1MTE0MyAxNDUuOTAyMTUzMTAwODI0ODggTCAzODIuMzk1MTIxOTg5Njg1NTUgMTQ0LjU1OTMzMDUwNjYyNTIzIEwgMzg0Ljg5MDg2OTM0Nzc5MTYgMTQzLjQwODc3NTIxNTMyMzA2IEwgMzg3LjQ2OTE5NDY3NzQ0NjUgMTQyLjQ1NzU4MDc4Mjg4NzcgTCAzOTAuMTE0MjAxNzQ1NjEzMDYgMTQxLjcxMTYxMTYzOTI5OTQgTCAzOTIuODA5NTgzMjA0MTYxNjQgMTQxLjE3NTQ2NjkzMjM4ODI4IEwgMzk1LjUzODcyMTEzMDA5NTIgMTQwLjg1MjQ1MjE3MjU1ODYzIEwgMzk4LjI4NDc4OTQ4MDU2OTc3IDE0MC43NDQ1NTg4NTMyMTgxIEwgNDAxLjAzMDg1NzgzMTA0NDQgMTQwLjg1MjQ1MjE3MjU1ODYzIEwgNDAzLjc1OTk5NTc1Njk3NzkgMTQxLjE3NTQ2NjkzMjM4ODMgTCA0MDYuNDU1Mzc3MjE1NTI2NSAxNDEuNzExNjExNjM5Mjk5NDYgTCA0MDkuMTAwMzg0MjgzNjkyOTYgMTQyLjQ1NzU4MDc4Mjg4NzggTCA0MTEuNjc4NzA5NjEzMzQ3OTYgMTQzLjQwODc3NTIxNTMyMzE1IEwgNDE0LjE3NDQ1Njk3MTQ1NCAxNDQuNTU5MzMwNTA2NjI1MzIgTCA0MTYuNTcyMjM5MjQ1NjI4MDUgMTQ1LjkwMjE1MzEwMDgyNSBMIDQxOC44NTcyNzMzMTA4MDY0IDE0Ny40Mjg5NjQwNTAwOTUxIEwgNDIxLjAxNTQ3MTE3MjEyNjMgMTQ5LjEzMDM1MDA1NzIxNzE5IEwgNDIzLjAzMzUyNjgyMjA5OSAxNTAuOTk1ODIxNTExNjg5MTQgTCA0MjQuODk4OTk4Mjc2NTcwOSAxNTMuMDEzODc3MTYxNjYxOSBMIDQyNi42MDAzODQyODM2OTMgMTU1LjE3MjA3NTAyMjk4MTggTCA0MjguMTI3MTk1MjMyOTYzMDYgMTU3LjQ1NzEwOTA4ODE2MDE3IEwgNDI5LjQ3MDAxNzgyNzE2MjcgMTU5Ljg1NDg5MTM2MjMzNDI2IEwgNDMwLjYyMDU3MzExODQ2NDg1IDE2Mi4zNTA2Mzg3MjA0NDAzIEwgNDMxLjU3MTc2NzU1MDkwMDEgMTY0LjkyODk2NDA1MDA5NTMgTCA0MzIuMzE3NzM2Njk0NDg4NCAxNjcuNTczOTcxMTE4MjYxOCBMIDQzMi44NTM4ODE0MDEzOTk1IDE3MC4yNjkzNTI1NzY4MTA0MyBMIDQzMy4xNzY4OTYxNjEyMjkxNCAxNzIuOTk4NDkwNTAyNzQzOTUgWiIgcGFpbnQtb3JkZXI9InN0cm9rZSBmaWxsIG1hcmtlcnMiIHN0cm9rZT0ibm9uZSIgZmlsbD0icmdiKDEyOCwyMTYsMjU1KSIvPjx0ZXh0IGZpbGwtb3BhY2l0eT0iMSIgdGV4dC1hbmNob3I9Im1pZGRsZSIgeT0iMTgzLjc0NDU1ODg1MzIxODEiIHg9IjM5OC4yODQ3ODk0ODA1Njk2NiIgdGV4dC1kZWNvcmF0aW9uPSJub3JtYWwiIGZvbnQtd2VpZ2h0PSJub3JtYWwiIGZvbnQtc3R5bGU9Im5vcm1hbCIgZm9udC1zaXplPSIxNnB4IiBmb250LWZhbWlseT0iSGVsdmV0aWNhIE5ldWUsIEhlbHZldGljYSwgc2Fucy1zZXJpZiIgc3Ryb2tlPSJub25lIiBmaWxsPSJyZ2IoMCwwLDApIj5HaWFjb21vIEIgTWFyaW5vPC90ZXh0PjxwYXRoIGZpbGwtb3BhY2l0eT0iMSIgZD0iTSA0NzAuNDQ3MDc4OTkwMTY0NzUgMzk2LjA5Njc0MTQ5NDk4MjMgTCA0NzAuMjE1ODc5MDIwMTQ5NCA0MDEuOTgxMTczNjc0NTcwNyBMIDQ2OS41MjM3MDQ1MzQ4MDAxIDQwNy44MjkzMjYzNzI5OTk2IEwgNDY4LjM3NDgyMzAxOTk5MDUgNDEzLjYwNTE0Mzc4NDE3NTI1IEwgNDY2Ljc3NjMxNzcxMjMwMTI1IDQxOS4yNzMwMTYwNzMxMDM0IEwgNDY0LjczODA0MzkyODUxMTMgNDI0Ljc5Nzk5ODkyMjM2NDA2IEwgNDYyLjI3MjU2ODMwNDI5MjM1IDQzMC4xNDYwMjg5NzU0NDgzIEwgNDU5LjM5NTA5MTMxNjcyMTcgNDM1LjI4NDEzMzg0ODY3ODUgTCA0NTYuMTIzMzUzNTY4Mjg1ODQgNDQwLjE4MDYzNTQxNjkxNzggTCA0NTIuNDc3NTI2NDEwMTY3MDYgNDQ0LjgwNTM0NTExOTc0NjEgTCA0NDguNDgwMDg3NTc5MTU1OCA0NDkuMTI5NzUwMDgzOTczMzYgTCA0NDQuMTU1NjgyNjE0OTI4NTQgNDUzLjEyNzE4ODkxNDk4NDYzIEwgNDM5LjUzMDk3MjkxMjEwMDI1IDQ1Ni43NzMwMTYwNzMxMDM0IEwgNDM0LjYzNDQ3MTM0Mzg2MDkgNDYwLjA0NDc1MzgyMTUzOTI1IEwgNDI5LjQ5NjM2NjQ3MDYzMDggNDYyLjkyMjIzMDgwOTEwOTkgTCA0MjQuMTQ4MzM2NDE3NTQ2NSA0NjUuMzg3NzA2NDMzMzI4ODQgTCA0MTguNjIzMzUzNTY4Mjg1ODQgNDY3LjQyNTk4MDIxNzExODggTCA0MTIuOTU1NDgxMjc5MzU3NyA0NjkuMDI0NDg1NTI0ODA4MSBMIDQwNy4xNzk2NjM4NjgxODIwNSA0NzAuMTczMzY3MDM5NjE3NyBMIDQwMS4zMzE1MTExNjk3NTMxIDQ3MC44NjU1NDE1MjQ5NjY5NCBMIDM5NS40NDcwNzg5OTAxNjQ3NSA0NzEuMDk2NzQxNDk0OTgyMyBMIDM4OS41NjI2NDY4MTA1NzY0IDQ3MC44NjU1NDE1MjQ5NjY5NCBMIDM4My43MTQ0OTQxMTIxNDc0NiA0NzAuMTczMzY3MDM5NjE3NyBMIDM3Ny45Mzg2NzY3MDA5NzE5IDQ2OS4wMjQ0ODU1MjQ4MDgxIEwgMzcyLjI3MDgwNDQxMjA0MzczIDQ2Ny40MjU5ODAyMTcxMTg5IEwgMzY2Ljc0NTgyMTU2Mjc4MyA0NjUuMzg3NzA2NDMzMzI4ODQgTCAzNjEuMzk3NzkxNTA5Njk4OCA0NjIuOTIyMjMwODA5MTA5OSBMIDM1Ni4yNTk2ODY2MzY0Njg2IDQ2MC4wNDQ3NTM4MjE1MzkyNSBMIDM1MS4zNjMxODUwNjgyMjkyNiA0NTYuNzczMDE2MDczMTAzNCBMIDM0Ni43Mzg0NzUzNjU0MDEgNDUzLjEyNzE4ODkxNDk4NDYzIEwgMzQyLjQxNDA3MDQwMTE3MzcgNDQ5LjEyOTc1MDA4Mzk3MzM2IEwgMzM4LjQxNjYzMTU3MDE2MjQ1IDQ0NC44MDUzNDUxMTk3NDYxIEwgMzM0Ljc3MDgwNDQxMjA0MzczIDQ0MC4xODA2MzU0MTY5MTc4IEwgMzMxLjQ5OTA2NjY2MzYwNzgzIDQzNS4yODQxMzM4NDg2Nzg1IEwgMzI4LjYyMTU4OTY3NjAzNzE2IDQzMC4xNDYwMjg5NzU0NDgzNiBMIDMyNi4xNTYxMTQwNTE4MTgyNCA0MjQuNzk3OTk4OTIyMzY0MDYgTCAzMjQuMTE3ODQwMjY4MDI4MjYgNDE5LjI3MzAxNjA3MzEwMzQgTCAzMjIuNTE5MzM0OTYwMzM5IDQxMy42MDUxNDM3ODQxNzUyNSBMIDMyMS4zNzA0NTM0NDU1Mjk0NSA0MDcuODI5MzI2MzcyOTk5NyBMIDMyMC42NzgyNzg5NjAxODAxNCA0MDEuOTgxMTczNjc0NTcwNyBMIDMyMC40NDcwNzg5OTAxNjQ3NSAzOTYuMDk2NzQxNDk0OTgyMyBMIDMyMC42NzgyNzg5NjAxODAxNCAzOTAuMjEyMzA5MzE1MzkzOTUgTCAzMjEuMzcwNDUzNDQ1NTI5NCAzODQuMzY0MTU2NjE2OTY1MDMgTCAzMjIuNTE5MzM0OTYwMzM5IDM3OC41ODgzMzkyMDU3ODk0NSBMIDMyNC4xMTc4NDAyNjgwMjgyIDM3Mi45MjA0NjY5MTY4NjEzIEwgMzI2LjE1NjExNDA1MTgxODI0IDM2Ny4zOTU0ODQwNjc2MDA2IEwgMzI4LjYyMTU4OTY3NjAzNzE2IDM2Mi4wNDc0NTQwMTQ1MTYzNSBMIDMzMS40OTkwNjY2NjM2MDc4MyAzNTYuOTA5MzQ5MTQxMjg2MTYgTCAzMzQuNzcwODA0NDEyMDQzNyAzNTIuMDEyODQ3NTczMDQ2OCBMIDMzOC40MTY2MzE1NzAxNjI0NSAzNDcuMzg4MTM3ODcwMjE4NTQgTCAzNDIuNDE0MDcwNDAxMTczNjYgMzQzLjA2MzczMjkwNTk5MTMgTCAzNDYuNzM4NDc1MzY1NDAxIDMzOS4wNjYyOTQwNzQ5OCBMIDM1MS4zNjMxODUwNjgyMjkyNiAzMzUuNDIwNDY2OTE2ODYxMyBMIDM1Ni4yNTk2ODY2MzY0Njg2IDMzMi4xNDg3MjkxNjg0MjU0IEwgMzYxLjM5Nzc5MTUwOTY5ODggMzI5LjI3MTI1MjE4MDg1NDczIEwgMzY2Ljc0NTgyMTU2Mjc4MzEgMzI2LjgwNTc3NjU1NjYzNTggTCAzNzIuMjcwODA0NDEyMDQzOCAzMjQuNzY3NTAyNzcyODQ1OCBMIDM3Ny45Mzg2NzY3MDA5NzIgMzIzLjE2ODk5NzQ2NTE1NjUgTCAzODMuNzE0NDk0MTEyMTQ3NjMgMzIyLjAyMDExNTk1MDM0Njk2IEwgMzg5LjU2MjY0NjgxMDU3NjYgMzIxLjMyNzk0MTQ2NDk5NzcgTCAzOTUuNDQ3MDc4OTkwMTY1IDMyMS4wOTY3NDE0OTQ5ODIzIEwgNDAxLjMzMTUxMTE2OTc1MzQgMzIxLjMyNzk0MTQ2NDk5Nzc2IEwgNDA3LjE3OTY2Mzg2ODE4MjQgMzIyLjAyMDExNTk1MDM0NzEgTCA0MTIuOTU1NDgxMjc5MzU4IDMyMy4xNjg5OTc0NjUxNTY3IEwgNDE4LjYyMzM1MzU2ODI4NjIgMzI0Ljc2NzUwMjc3Mjg0NTk0IEwgNDI0LjE0ODMzNjQxNzU0NjkgMzI2LjgwNTc3NjU1NjYzNiBMIDQyOS40OTYzNjY0NzA2MzEyIDMyOS4yNzEyNTIxODA4NTQ5NiBMIDQzNC42MzQ0NzEzNDM4NjEzIDMzMi4xNDg3MjkxNjg0MjU3IEwgNDM5LjUzMDk3MjkxMjEwMDY1IDMzNS40MjA0NjY5MTY4NjE2IEwgNDQ0LjE1NTY4MjYxNDkyODkzIDMzOS4wNjYyOTQwNzQ5ODAzNiBMIDQ0OC40ODAwODc1NzkxNTYyNSAzNDMuMDYzNzMyOTA1OTkxNyBMIDQ1Mi40Nzc1MjY0MTAxNjc0NiAzNDcuMzg4MTM3ODcwMjE5IEwgNDU2LjEyMzM1MzU2ODI4NjIgMzUyLjAxMjg0NzU3MzA0NzM0IEwgNDU5LjM5NTA5MTMxNjcyMiAzNTYuOTA5MzQ5MTQxMjg2NyBMIDQ2Mi4yNzI1NjgzMDQyOTI3IDM2Mi4wNDc0NTQwMTQ1MTcgTCA0NjQuNzM4MDQzOTI4NTExNTYgMzY3LjM5NTQ4NDA2NzYwMTMgTCA0NjYuNzc2MzE3NzEyMzAxNTMgMzcyLjkyMDQ2NjkxNjg2MiBMIDQ2OC4zNzQ4MjMwMTk5OTA3IDM3OC41ODgzMzkyMDU3OTAyIEwgNDY5LjUyMzcwNDUzNDgwMDIzIDM4NC4zNjQxNTY2MTY5NjU4MyBMIDQ3MC4yMTU4NzkwMjAxNDk0MyAzOTAuMjEyMzA5MzE1Mzk0OCBaIiBwYWludC1vcmRlcj0ic3Ryb2tlIGZpbGwgbWFya2VycyIgc3Ryb2tlPSJub25lIiBmaWxsPSJyZ2IoMjU1LDEzOCwxMjgpIi8+PHRleHQgZmlsbC1vcGFjaXR5PSIxIiB0ZXh0LWFuY2hvcj0ibWlkZGxlIiB5PSI0MDQuMDk2NzQxNDk0OTgyMyIgeD0iMzk1LjQ0NzA3ODk5MDE2NDc1IiB0ZXh0LWRlY29yYXRpb249Im5vcm1hbCIgZm9udC13ZWlnaHQ9Im5vcm1hbCIgZm9udC1zdHlsZT0ibm9ybWFsIiBmb250LXNpemU9IjE2cHgiIGZvbnQtZmFtaWx5PSJIZWx2ZXRpY2EgTmV1ZSwgSGVsdmV0aWNhLCBzYW5zLXNlcmlmIiBzdHJva2U9Im5vbmUiIGZpbGw9InJnYigwLDAsMCkiPkRhbmllbCBKIEIgQ2xhcmtlPC90ZXh0PjxwYXRoIGZpbGwtb3BhY2l0eT0iMSIgZD0iTSAxNTIuNTUxNzA3NDUyNDY5MjMgMTQ5LjU5NTU0MjA0NjA2MjkyIEwgMTUyLjQ0MzgxNDEzMzEyODcgMTUyLjM0MTYxMDM5NjUzNzQ4IEwgMTUyLjEyMDc5OTM3MzI5OTA2IDE1NS4wNzA3NDgzMjI0NzEgTCAxNTEuNTg0NjU0NjY2Mzg3OSAxNTcuNzY2MTI5NzgxMDE5NiBMIDE1MC44Mzg2ODU1MjI3OTk2IDE2MC40MTExMzY4NDkxODYwOCBMIDE0OS44ODc0OTEwOTAzNjQyOCAxNjIuOTg5NDYyMTc4ODQxMDUgTCAxNDguNzM2OTM1Nzk5MDYyMSAxNjUuNDg1MjA5NTM2OTQ3MDUgTCAxNDcuMzk0MTEzMjA0ODYyNDYgMTY3Ljg4Mjk5MTgxMTEyMTEyIEwgMTQ1Ljg2NzMwMjI1NTU5MjQgMTcwLjE2ODAyNTg3NjI5OTQ4IEwgMTQ0LjE2NTkxNjI0ODQ3MDMyIDE3Mi4zMjYyMjM3Mzc2MTkzMyBMIDE0Mi4zMDA0NDQ3OTM5OTg0IDE3NC4zNDQyNzkzODc1OTIwOCBMIDE0MC4yODIzODkxNDQwMjU2NyAxNzYuMjA5NzUwODQyMDY0IEwgMTM4LjEyNDE5MTI4MjcwNTggMTc3LjkxMTEzNjg0OTE4NjA4IEwgMTM1LjgzOTE1NzIxNzUyNzQzIDE3OS40Mzc5NDc3OTg0NTYxNSBMIDEzMy40NDEzNzQ5NDMzNTMzNyAxODAuNzgwNzcwMzkyNjU1OCBMIDEzMC45NDU2Mjc1ODUyNDczNyAxODEuOTMxMzI1NjgzOTU3OTQgTCAxMjguMzY3MzAyMjU1NTkyNCAxODIuODgyNTIwMTE2MzkzMyBMIDEyNS43MjIyOTUxODc0MjU5MyAxODMuNjI4NDg5MjU5OTgxNiBMIDEyMy4wMjY5MTM3Mjg4NzczMiAxODQuMTY0NjMzOTY2ODkyNzIgTCAxMjAuMjk3Nzc1ODAyOTQzOCAxODQuNDg3NjQ4NzI2NzIyNCBMIDExNy41NTE3MDc0NTI0NjkyMyAxODQuNTk1NTQyMDQ2MDYyOTIgTCAxMTQuODA1NjM5MTAxOTk0NjYgMTg0LjQ4NzY0ODcyNjcyMjQgTCAxMTIuMDc2NTAxMTc2MDYxMTYgMTg0LjE2NDYzMzk2Njg5MjcyIEwgMTA5LjM4MTExOTcxNzUxMjU1IDE4My42Mjg0ODkyNTk5ODE2IEwgMTA2LjczNjExMjY0OTM0NjA3IDE4Mi44ODI1MjAxMTYzOTMzIEwgMTA0LjE1Nzc4NzMxOTY5MTEgMTgxLjkzMTMyNTY4Mzk1Nzk0IEwgMTAxLjY2MjAzOTk2MTU4NTEgMTgwLjc4MDc3MDM5MjY1NTggTCA5OS4yNjQyNTc2ODc0MTEwMiAxNzkuNDM3OTQ3Nzk4NDU2MTUgTCA5Ni45NzkyMjM2MjIyMzI2NyAxNzcuOTExMTM2ODQ5MTg2MDggTCA5NC44MjEwMjU3NjA5MTI4IDE3Ni4yMDk3NTA4NDIwNjQgTCA5Mi44MDI5NzAxMTA5NDAwNyAxNzQuMzQ0Mjc5Mzg3NTkyMDggTCA5MC45Mzc0OTg2NTY0NjgxNSAxNzIuMzI2MjIzNzM3NjE5MzYgTCA4OS4yMzYxMTI2NDkzNDYwNyAxNzAuMTY4MDI1ODc2Mjk5NDggTCA4Ny43MDkzMDE3MDAwNzYgMTY3Ljg4Mjk5MTgxMTEyMTE0IEwgODYuMzY2NDc5MTA1ODc2MzUgMTY1LjQ4NTIwOTUzNjk0NzA1IEwgODUuMjE1OTIzODE0NTc0MiAxNjIuOTg5NDYyMTc4ODQxMDUgTCA4NC4yNjQ3MjkzODIxMzg4NSAxNjAuNDExMTM2ODQ5MTg2MDggTCA4My41MTg3NjAyMzg1NTA1NiAxNTcuNzY2MTI5NzgxMDE5NiBMIDgyLjk4MjYxNTUzMTYzOTQxIDE1NS4wNzA3NDgzMjI0NzEgTCA4Mi42NTk2MDA3NzE4MDk3NSAxNTIuMzQxNjEwMzk2NTM3NSBMIDgyLjU1MTcwNzQ1MjQ2OTIzIDE0OS41OTU1NDIwNDYwNjI5MiBMIDgyLjY1OTYwMDc3MTgwOTc1IDE0Ni44NDk0NzM2OTU1ODgzNiBMIDgyLjk4MjYxNTUzMTYzOTQxIDE0NC4xMjAzMzU3Njk2NTQ4NCBMIDgzLjUxODc2MDIzODU1MDU2IDE0MS40MjQ5NTQzMTExMDYyMyBMIDg0LjI2NDcyOTM4MjEzODg1IDEzOC43Nzk5NDcyNDI5Mzk3NiBMIDg1LjIxNTkyMzgxNDU3NDE4IDEzNi4yMDE2MjE5MTMyODQ3OCBMIDg2LjM2NjQ3OTEwNTg3NjM1IDEzMy43MDU4NzQ1NTUxNzg3OCBMIDg3LjcwOTMwMTcwMDA3NiAxMzEuMzA4MDkyMjgxMDA0NzIgTCA4OS4yMzYxMTI2NDkzNDYwNyAxMjkuMDIzMDU4MjE1ODI2MzUgTCA5MC45Mzc0OTg2NTY0NjgxNCAxMjYuODY0ODYwMzU0NTA2NDkgTCA5Mi44MDI5NzAxMTA5NDAwNyAxMjQuODQ2ODA0NzA0NTMzNzUgTCA5NC44MjEwMjU3NjA5MTI3OSAxMjIuOTgxMzMzMjUwMDYxODUgTCA5Ni45NzkyMjM2MjIyMzI2NyAxMjEuMjc5OTQ3MjQyOTM5NzYgTCA5OS4yNjQyNTc2ODc0MTEwMyAxMTkuNzUzMTM2MjkzNjY5NjggTCAxMDEuNjYyMDM5OTYxNTg1MTIgMTE4LjQxMDMxMzY5OTQ3MDA0IEwgMTA0LjE1Nzc4NzMxOTY5MTEyIDExNy4yNTk3NTg0MDgxNjc4NyBMIDEwNi43MzYxMTI2NDkzNDYxMyAxMTYuMzA4NTYzOTc1NzMyNTMgTCAxMDkuMzgxMTE5NzE3NTEyNiAxMTUuNTYyNTk0ODMyMTQ0MjEgTCAxMTIuMDc2NTAxMTc2MDYxMjQgMTE1LjAyNjQ1MDEyNTIzMzA4IEwgMTE0LjgwNTYzOTEwMTk5NDc2IDExNC43MDM0MzUzNjU0MDM0NCBMIDExNy41NTE3MDc0NTI0NjkzNCAxMTQuNTk1NTQyMDQ2MDYyOTIgTCAxMjAuMjk3Nzc1ODAyOTQzOTMgMTE0LjcwMzQzNTM2NTQwMzQ1IEwgMTIzLjAyNjkxMzcyODg3NzQ2IDExNS4wMjY0NTAxMjUyMzMxMSBMIDEyNS43MjIyOTUxODc0MjYwOCAxMTUuNTYyNTk0ODMyMTQ0MjcgTCAxMjguMzY3MzAyMjU1NTkyNTYgMTE2LjMwODU2Mzk3NTczMjYgTCAxMzAuOTQ1NjI3NTg1MjQ3NTYgMTE3LjI1OTc1ODQwODE2Nzk1IEwgMTMzLjQ0MTM3NDk0MzM1MzU3IDExOC40MTAzMTM2OTk0NzAxNCBMIDEzNS44MzkxNTcyMTc1Mjc2MyAxMTkuNzUzMTM2MjkzNjY5ODEgTCAxMzguMTI0MTkxMjgyNzA2IDEyMS4yNzk5NDcyNDI5Mzk5IEwgMTQwLjI4MjM4OTE0NDAyNTg0IDEyMi45ODEzMzMyNTAwNjIgTCAxNDIuMzAwNDQ0NzkzOTk4NiAxMjQuODQ2ODA0NzA0NTMzOTUgTCAxNDQuMTY1OTE2MjQ4NDcwNSAxMjYuODY0ODYwMzU0NTA2NyBMIDE0NS44NjczMDIyNTU1OTI1NiAxMjkuMDIzMDU4MjE1ODI2NiBMIDE0Ny4zOTQxMTMyMDQ4NjI2MyAxMzEuMzA4MDkyMjgxMDA0OTcgTCAxNDguNzM2OTM1Nzk5MDYyMjUgMTMzLjcwNTg3NDU1NTE3OTA3IEwgMTQ5Ljg4NzQ5MTA5MDM2NDQgMTM2LjIwMTYyMTkxMzI4NTEgTCAxNTAuODM4Njg1NTIyNzk5NzIgMTM4Ljc3OTk0NzI0Mjk0MDEgTCAxNTEuNTg0NjU0NjY2Mzg4IDE0MS40MjQ5NTQzMTExMDY2IEwgMTUyLjEyMDc5OTM3MzI5OTEyIDE0NC4xMjAzMzU3Njk2NTUyNCBMIDE1Mi40NDM4MTQxMzMxMjg3NCAxNDYuODQ5NDczNjk1NTg4NzYgWiIgcGFpbnQtb3JkZXI9InN0cm9rZSBmaWxsIG1hcmtlcnMiIHN0cm9rZT0ibm9uZSIgZmlsbD0icmdiKDEyOCwyMTYsMjU1KSIvPjx0ZXh0IGZpbGwtb3BhY2l0eT0iMSIgdGV4dC1hbmNob3I9Im1pZGRsZSIgeT0iMTU3LjU5NTU0MjA0NjA2MjkyIiB4PSIxMTcuNTUxNzA3NDUyNDY5MjMiIHRleHQtZGVjb3JhdGlvbj0ibm9ybWFsIiBmb250LXdlaWdodD0ibm9ybWFsIiBmb250LXN0eWxlPSJub3JtYWwiIGZvbnQtc2l6ZT0iMTZweCIgZm9udC1mYW1pbHk9IkhlbHZldGljYSBOZXVlLCBIZWx2ZXRpY2EsIHNhbnMtc2VyaWYiIHN0cm9rZT0ibm9uZSIgZmlsbD0icmdiKDAsMCwwKSI+RWRlbiBaIERlbmc8L3RleHQ+PHBhdGggZmlsbC1vcGFjaXR5PSIxIiBkPSJNIDc4OS42MTE0MDM5NDEyMzU4IDQ1MS4zMzgzMjMwMDY0NzU1NSBMIDc4OS41MDM1MTA2MjE4OTUzIDQ1NC4wODQzOTEzNTY5NTAxIEwgNzg5LjE4MDQ5NTg2MjA2NTYgNDU2LjgxMzUyOTI4Mjg4MzYgTCA3ODguNjQ0MzUxMTU1MTU0NSA0NTkuNTA4OTEwNzQxNDMyMjYgTCA3ODcuODk4MzgyMDExNTY2MiA0NjIuMTUzOTE3ODA5NTk4NyBMIDc4Ni45NDcxODc1NzkxMzA5IDQ2NC43MzIyNDMxMzkyNTM3IEwgNzg1Ljc5NjYzMjI4NzgyODcgNDY3LjIyNzk5MDQ5NzM1OTY2IEwgNzg0LjQ1MzgwOTY5MzYyOTEgNDY5LjYyNTc3Mjc3MTUzMzggTCA3ODIuOTI2OTk4NzQ0MzU5IDQ3MS45MTA4MDY4MzY3MTIxIEwgNzgxLjIyNTYxMjczNzIzNjkgNDc0LjA2OTAwNDY5ODAzMTk2IEwgNzc5LjM2MDE0MTI4Mjc2NSA0NzYuMDg3MDYwMzQ4MDA0NyBMIDc3Ny4zNDIwODU2MzI3OTIzIDQ3Ny45NTI1MzE4MDI0NzY2NCBMIDc3NS4xODM4ODc3NzE0NzI0IDQ3OS42NTM5MTc4MDk1OTg3NCBMIDc3Mi44OTg4NTM3MDYyOTQxIDQ4MS4xODA3Mjg3NTg4Njg4IEwgNzcwLjUwMTA3MTQzMjExOTkgNDgyLjUyMzU1MTM1MzA2ODQgTCA3NjguMDA1MzI0MDc0MDE0IDQ4My42NzQxMDY2NDQzNzA1NyBMIDc2NS40MjY5OTg3NDQzNTkgNDg0LjYyNTMwMTA3NjgwNTkgTCA3NjIuNzgxOTkxNjc2MTkyNSA0ODUuMzcxMjcwMjIwMzk0MjUgTCA3NjAuMDg2NjEwMjE3NjQ0IDQ4NS45MDc0MTQ5MjczMDUzNSBMIDc1Ny4zNTc0NzIyOTE3MTA1IDQ4Ni4yMzA0Mjk2ODcxMzUwMyBMIDc1NC42MTE0MDM5NDEyMzU4IDQ4Ni4zMzgzMjMwMDY0NzU1NSBMIDc1MS44NjUzMzU1OTA3NjEyIDQ4Ni4yMzA0Mjk2ODcxMzUwMyBMIDc0OS4xMzYxOTc2NjQ4Mjc3IDQ4NS45MDc0MTQ5MjczMDUzNSBMIDc0Ni40NDA4MTYyMDYyNzkxIDQ4NS4zNzEyNzAyMjAzOTQyNSBMIDc0My43OTU4MDkxMzgxMTI2IDQ4NC42MjUzMDEwNzY4MDU5NSBMIDc0MS4yMTc0ODM4MDg0NTc3IDQ4My42NzQxMDY2NDQzNzA1NyBMIDczOC43MjE3MzY0NTAzNTE3IDQ4Mi41MjM1NTEzNTMwNjg0IEwgNzM2LjMyMzk1NDE3NjE3NzYgNDgxLjE4MDcyODc1ODg2ODggTCA3MzQuMDM4OTIwMTEwOTk5MiA0NzkuNjUzOTE3ODA5NTk4NzQgTCA3MzEuODgwNzIyMjQ5Njc5NCA0NzcuOTUyNTMxODAyNDc2NjQgTCA3MjkuODYyNjY2NTk5NzA2NyA0NzYuMDg3MDYwMzQ4MDA0NyBMIDcyNy45OTcxOTUxNDUyMzQ3IDQ3NC4wNjkwMDQ2OTgwMzE5NiBMIDcyNi4yOTU4MDkxMzgxMTI2IDQ3MS45MTA4MDY4MzY3MTIxNCBMIDcyNC43Njg5OTgxODg4NDI2IDQ2OS42MjU3NzI3NzE1MzM4IEwgNzIzLjQyNjE3NTU5NDY0MjkgNDY3LjIyNzk5MDQ5NzM1OTcgTCA3MjIuMjc1NjIwMzAzMzQwOCA0NjQuNzMyMjQzMTM5MjUzNyBMIDcyMS4zMjQ0MjU4NzA5MDU0IDQ2Mi4xNTM5MTc4MDk1OTg3NCBMIDcyMC41Nzg0NTY3MjczMTcyIDQ1OS41MDg5MTA3NDE0MzIyNiBMIDcyMC4wNDIzMTIwMjA0MDYgNDU2LjgxMzUyOTI4Mjg4MzYgTCA3MTkuNzE5Mjk3MjYwNTc2NCA0NTQuMDg0MzkxMzU2OTUwMSBMIDcxOS42MTE0MDM5NDEyMzU4IDQ1MS4zMzgzMjMwMDY0NzU1NSBMIDcxOS43MTkyOTcyNjA1NzY0IDQ0OC41OTIyNTQ2NTYwMDEgTCA3MjAuMDQyMzEyMDIwNDA2IDQ0NS44NjMxMTY3MzAwNjc1IEwgNzIwLjU3ODQ1NjcyNzMxNzIgNDQzLjE2NzczNTI3MTUxODg0IEwgNzIxLjMyNDQyNTg3MDkwNTQgNDQwLjUyMjcyODIwMzM1MjQgTCA3MjIuMjc1NjIwMzAzMzQwOCA0MzcuOTQ0NDAyODczNjk3NCBMIDcyMy40MjYxNzU1OTQ2NDI5IDQzNS40NDg2NTU1MTU1OTE0NCBMIDcyNC43Njg5OTgxODg4NDI2IDQzMy4wNTA4NzMyNDE0MTczIEwgNzI2LjI5NTgwOTEzODExMjYgNDMwLjc2NTgzOTE3NjIzOSBMIDcyNy45OTcxOTUxNDUyMzQ3IDQyOC42MDc2NDEzMTQ5MTkxNCBMIDcyOS44NjI2NjY1OTk3MDY3IDQyNi41ODk1ODU2NjQ5NDY0IEwgNzMxLjg4MDcyMjI0OTY3OTQgNDI0LjcyNDExNDIxMDQ3NDQ1IEwgNzM0LjAzODkyMDExMDk5OTIgNDIzLjAyMjcyODIwMzM1MjQgTCA3MzYuMzIzOTU0MTc2MTc3NiA0MjEuNDk1OTE3MjU0MDgyMyBMIDczOC43MjE3MzY0NTAzNTE3IDQyMC4xNTMwOTQ2NTk4ODI2NCBMIDc0MS4yMTc0ODM4MDg0NTc3IDQxOS4wMDI1MzkzNjg1ODA1IEwgNzQzLjc5NTgwOTEzODExMjggNDE4LjA1MTM0NDkzNjE0NTE0IEwgNzQ2LjQ0MDgxNjIwNjI3OTIgNDE3LjMwNTM3NTc5MjU1Njg0IEwgNzQ5LjEzNjE5NzY2NDgyNzggNDE2Ljc2OTIzMTA4NTY0NTc0IEwgNzUxLjg2NTMzNTU5MDc2MTMgNDE2LjQ0NjIxNjMyNTgxNjA3IEwgNzU0LjYxMTQwMzk0MTIzNiA0MTYuMzM4MzIzMDA2NDc1NTUgTCA3NTcuMzU3NDcyMjkxNzEwNiA0MTYuNDQ2MjE2MzI1ODE2MDcgTCA3NjAuMDg2NjEwMjE3NjQ0MSA0MTYuNzY5MjMxMDg1NjQ1NzQgTCA3NjIuNzgxOTkxNjc2MTkyNyA0MTcuMzA1Mzc1NzkyNTU2OSBMIDc2NS40MjY5OTg3NDQzNTkxIDQxOC4wNTEzNDQ5MzYxNDUyNiBMIDc2OC4wMDUzMjQwNzQwMTQyIDQxOS4wMDI1MzkzNjg1ODA2IEwgNzcwLjUwMTA3MTQzMjEyMDIgNDIwLjE1MzA5NDY1OTg4Mjc1IEwgNzcyLjg5ODg1MzcwNjI5NDMgNDIxLjQ5NTkxNzI1NDA4MjQgTCA3NzUuMTgzODg3NzcxNDcyNSA0MjMuMDIyNzI4MjAzMzUyNTMgTCA3NzcuMzQyMDg1NjMyNzkyNCA0MjQuNzI0MTE0MjEwNDc0NiBMIDc3OS4zNjAxNDEyODI3NjUyIDQyNi41ODk1ODU2NjQ5NDY2IEwgNzgxLjIyNTYxMjczNzIzNzIgNDI4LjYwNzY0MTMxNDkxOTM2IEwgNzgyLjkyNjk5ODc0NDM1OTEgNDMwLjc2NTgzOTE3NjIzOTI0IEwgNzg0LjQ1MzgwOTY5MzYyOTIgNDMzLjA1MDg3MzI0MTQxNzYgTCA3ODUuNzk2NjMyMjg3ODI4OSA0MzUuNDQ4NjU1NTE1NTkxNyBMIDc4Ni45NDcxODc1NzkxMzEgNDM3Ljk0NDQwMjg3MzY5Nzc1IEwgNzg3Ljg5ODM4MjAxMTU2NjQgNDQwLjUyMjcyODIwMzM1Mjc2IEwgNzg4LjY0NDM1MTE1NTE1NDYgNDQzLjE2NzczNTI3MTUxOTIzIEwgNzg5LjE4MDQ5NTg2MjA2NTggNDQ1Ljg2MzExNjczMDA2NzkgTCA3ODkuNTAzNTEwNjIxODk1MyA0NDguNTkyMjU0NjU2MDAxNCBaIiBwYWludC1vcmRlcj0ic3Ryb2tlIGZpbGwgbWFya2VycyIgc3Ryb2tlPSJub25lIiBmaWxsPSJyZ2IoMTI4LDIxNiwyNTUpIi8+PHRleHQgZmlsbC1vcGFjaXR5PSIxIiB0ZXh0LWFuY2hvcj0ibWlkZGxlIiB5PSI0NTkuMzM4MzIzMDA2NDc1NTUiIHg9Ijc1NC42MTE0MDM5NDEyMzU4IiB0ZXh0LWRlY29yYXRpb249Im5vcm1hbCIgZm9udC13ZWlnaHQ9Im5vcm1hbCIgZm9udC1zdHlsZT0ibm9ybWFsIiBmb250LXNpemU9IjE2cHgiIGZvbnQtZmFtaWx5PSJIZWx2ZXRpY2EgTmV1ZSwgSGVsdmV0aWNhLCBzYW5zLXNlcmlmIiBzdHJva2U9Im5vbmUiIGZpbGw9InJnYigwLDAsMCkiPkF2aSBNYSdheWFuPC90ZXh0PjxwYXRoIGZpbGwtb3BhY2l0eT0iMSIgZD0iTSA3MTQuMzAyOTUyNDc4NTEyIDEyNi43NDc3Njk2OTg5MDE5NSBMIDcxNC4xOTUwNTkxNTkxNzE1IDEyOS40OTM4MzgwNDkzNzY1IEwgNzEzLjg3MjA0NDM5OTM0MTggMTMyLjIyMjk3NTk3NTMxMDAyIEwgNzEzLjMzNTg5OTY5MjQzMDYgMTM0LjkxODM1NzQzMzg1ODYzIEwgNzEyLjU4OTkzMDU0ODg0MjQgMTM3LjU2MzM2NDUwMjAyNTEgTCA3MTEuNjM4NzM2MTE2NDA3IDE0MC4xNDE2ODk4MzE2ODAwOCBMIDcxMC40ODgxODA4MjUxMDQ5IDE0Mi42Mzc0MzcxODk3ODYwOCBMIDcwOS4xNDUzNTgyMzA5MDUyIDE0NS4wMzUyMTk0NjM5NjAxNSBMIDcwNy42MTg1NDcyODE2MzUyIDE0Ny4zMjAyNTM1MjkxMzg1IEwgNzA1LjkxNzE2MTI3NDUxMzEgMTQ5LjQ3ODQ1MTM5MDQ1ODM2IEwgNzA0LjA1MTY4OTgyMDA0MTEgMTUxLjQ5NjUwNzA0MDQzMTEgTCA3MDIuMDMzNjM0MTcwMDY4NSAxNTMuMzYxOTc4NDk0OTAzMDQgTCA2OTkuODc1NDM2MzA4NzQ4NiAxNTUuMDYzMzY0NTAyMDI1MSBMIDY5Ny41OTA0MDIyNDM1NzAyIDE1Ni41OTAxNzU0NTEyOTUxOCBMIDY5NS4xOTI2MTk5NjkzOTYxIDE1Ny45MzI5OTgwNDU0OTQ4MyBMIDY5Mi42OTY4NzI2MTEyOTAxIDE1OS4wODM1NTMzMzY3OTY5NyBMIDY5MC4xMTg1NDcyODE2MzUyIDE2MC4wMzQ3NDc3NjkyMzIzMyBMIDY4Ny40NzM1NDAyMTM0Njg3IDE2MC43ODA3MTY5MTI4MjA2MiBMIDY4NC43NzgxNTg3NTQ5MjAxIDE2MS4zMTY4NjE2MTk3MzE3NSBMIDY4Mi4wNDkwMjA4Mjg5ODY2IDE2MS42Mzk4NzYzNzk1NjE0MyBMIDY3OS4zMDI5NTI0Nzg1MTIgMTYxLjc0Nzc2OTY5ODkwMTk1IEwgNjc2LjU1Njg4NDEyODAzNzQgMTYxLjYzOTg3NjM3OTU2MTQzIEwgNjczLjgyNzc0NjIwMjEwMzkgMTYxLjMxNjg2MTYxOTczMTc1IEwgNjcxLjEzMjM2NDc0MzU1NTMgMTYwLjc4MDcxNjkxMjgyMDYyIEwgNjY4LjQ4NzM1NzY3NTM4ODggMTYwLjAzNDc0Nzc2OTIzMjMzIEwgNjY1LjkwOTAzMjM0NTczMzkgMTU5LjA4MzU1MzMzNjc5Njk3IEwgNjYzLjQxMzI4NDk4NzYyNzkgMTU3LjkzMjk5ODA0NTQ5NDgzIEwgNjYxLjAxNTUwMjcxMzQ1MzggMTU2LjU5MDE3NTQ1MTI5NTE4IEwgNjU4LjczMDQ2ODY0ODI3NTQgMTU1LjA2MzM2NDUwMjAyNTEgTCA2NTYuNTcyMjcwNzg2OTU1NSAxNTMuMzYxOTc4NDk0OTAzMDQgTCA2NTQuNTU0MjE1MTM2OTgyOSAxNTEuNDk2NTA3MDQwNDMxMSBMIDY1Mi42ODg3NDM2ODI1MTA5IDE0OS40Nzg0NTEzOTA0NTg0IEwgNjUwLjk4NzM1NzY3NTM4ODggMTQ3LjMyMDI1MzUyOTEzODUgTCA2NDkuNDYwNTQ2NzI2MTE4OCAxNDUuMDM1MjE5NDYzOTYwMTcgTCA2NDguMTE3NzI0MTMxOTE5MSAxNDIuNjM3NDM3MTg5Nzg2MDggTCA2NDYuOTY3MTY4ODQwNjE3IDE0MC4xNDE2ODk4MzE2ODAwOCBMIDY0Ni4wMTU5NzQ0MDgxODE2IDEzNy41NjMzNjQ1MDIwMjUxIEwgNjQ1LjI3MDAwNTI2NDU5MzQgMTM0LjkxODM1NzQzMzg1ODYzIEwgNjQ0LjczMzg2MDU1NzY4MjIgMTMyLjIyMjk3NTk3NTMxMDAyIEwgNjQ0LjQxMDg0NTc5Nzg1MjUgMTI5LjQ5MzgzODA0OTM3NjU0IEwgNjQ0LjMwMjk1MjQ3ODUxMiAxMjYuNzQ3NzY5Njk4OTAxOTUgTCA2NDQuNDEwODQ1Nzk3ODUyNSAxMjQuMDAxNzAxMzQ4NDI3MzcgTCA2NDQuNzMzODYwNTU3NjgyMiAxMjEuMjcyNTYzNDIyNDkzODcgTCA2NDUuMjcwMDA1MjY0NTkzNCAxMTguNTc3MTgxOTYzOTQ1MjYgTCA2NDYuMDE1OTc0NDA4MTgxNiAxMTUuOTMyMTc0ODk1Nzc4NzkgTCA2NDYuOTY3MTY4ODQwNjE3IDExMy4zNTM4NDk1NjYxMjM4MSBMIDY0OC4xMTc3MjQxMzE5MTkxIDExMC44NTgxMDIyMDgwMTc4MSBMIDY0OS40NjA1NDY3MjYxMTg4IDEwOC40NjAzMTk5MzM4NDM3NSBMIDY1MC45ODczNTc2NzUzODg4IDEwNi4xNzUyODU4Njg2NjUzOCBMIDY1Mi42ODg3NDM2ODI1MTA5IDEwNC4wMTcwODgwMDczNDU1MiBMIDY1NC41NTQyMTUxMzY5ODI5IDEwMS45OTkwMzIzNTczNzI3OCBMIDY1Ni41NzIyNzA3ODY5NTU1IDEwMC4xMzM1NjA5MDI5MDA4OCBMIDY1OC43MzA0Njg2NDgyNzU0IDk4LjQzMjE3NDg5NTc3ODc5IEwgNjYxLjAxNTUwMjcxMzQ1MzggOTYuOTA1MzYzOTQ2NTA4NzEgTCA2NjMuNDEzMjg0OTg3NjI3OSA5NS41NjI1NDEzNTIzMDkwNyBMIDY2NS45MDkwMzIzNDU3MzM5IDk0LjQxMTk4NjA2MTAwNjkgTCA2NjguNDg3MzU3Njc1Mzg4OSA5My40NjA3OTE2Mjg1NzE1NiBMIDY3MS4xMzIzNjQ3NDM1NTU0IDkyLjcxNDgyMjQ4NDk4MzI0IEwgNjczLjgyNzc0NjIwMjEwNCA5Mi4xNzg2Nzc3NzgwNzIxMSBMIDY3Ni41NTY4ODQxMjgwMzc1IDkxLjg1NTY2MzAxODI0MjQ3IEwgNjc5LjMwMjk1MjQ3ODUxMjEgOTEuNzQ3NzY5Njk4OTAxOTUgTCA2ODIuMDQ5MDIwODI4OTg2NyA5MS44NTU2NjMwMTgyNDI0OCBMIDY4NC43NzgxNTg3NTQ5MjAyIDkyLjE3ODY3Nzc3ODA3MjE0IEwgNjg3LjQ3MzU0MDIxMzQ2ODggOTIuNzE0ODIyNDg0OTgzMyBMIDY5MC4xMTg1NDcyODE2MzUzIDkzLjQ2MDc5MTYyODU3MTYzIEwgNjkyLjY5Njg3MjYxMTI5MDQgOTQuNDExOTg2MDYxMDA2OTggTCA2OTUuMTkyNjE5OTY5Mzk2MyA5NS41NjI1NDEzNTIzMDkxNyBMIDY5Ny41OTA0MDIyNDM1NzA1IDk2LjkwNTM2Mzk0NjUwODg0IEwgNjk5Ljg3NTQzNjMwODc0ODcgOTguNDMyMTc0ODk1Nzc4OTMgTCA3MDIuMDMzNjM0MTcwMDY4NiAxMDAuMTMzNTYwOTAyOTAxMDIgTCA3MDQuMDUxNjg5ODIwMDQxNCAxMDEuOTk5MDMyMzU3MzcyOTggTCA3MDUuOTE3MTYxMjc0NTEzMyAxMDQuMDE3MDg4MDA3MzQ1NzMgTCA3MDcuNjE4NTQ3MjgxNjM1MyAxMDYuMTc1Mjg1ODY4NjY1NjQgTCA3MDkuMTQ1MzU4MjMwOTA1MyAxMDguNDYwMzE5OTMzODQ0IEwgNzEwLjQ4ODE4MDgyNTEwNSAxMTAuODU4MTAyMjA4MDE4MTEgTCA3MTEuNjM4NzM2MTE2NDA3MSAxMTMuMzUzODQ5NTY2MTI0MTMgTCA3MTIuNTg5OTMwNTQ4ODQyNSAxMTUuOTMyMTc0ODk1Nzc5MTMgTCA3MTMuMzM1ODk5NjkyNDMwOCAxMTguNTc3MTgxOTYzOTQ1NjMgTCA3MTMuODcyMDQ0Mzk5MzQxOSAxMjEuMjcyNTYzNDIyNDk0MjYgTCA3MTQuMTk1MDU5MTU5MTcxNSAxMjQuMDAxNzAxMzQ4NDI3NzkgWiIgcGFpbnQtb3JkZXI9InN0cm9rZSBmaWxsIG1hcmtlcnMiIHN0cm9rZT0ibm9uZSIgZmlsbD0icmdiKDEyOCwyMTYsMjU1KSIvPjx0ZXh0IGZpbGwtb3BhY2l0eT0iMSIgdGV4dC1hbmNob3I9Im1pZGRsZSIgeT0iMTM0Ljc0Nzc2OTY5ODkwMTk1IiB4PSI2NzkuMzAyOTUyNDc4NTEyIiB0ZXh0LWRlY29yYXRpb249Im5vcm1hbCIgZm9udC13ZWlnaHQ9Im5vcm1hbCIgZm9udC1zdHlsZT0ibm9ybWFsIiBmb250LXNpemU9IjE2cHgiIGZvbnQtZmFtaWx5PSJIZWx2ZXRpY2EgTmV1ZSwgSGVsdmV0aWNhLCBzYW5zLXNlcmlmIiBzdHJva2U9Im5vbmUiIGZpbGw9InJnYigwLDAsMCkiPklkbyBEaWFtYW50PC90ZXh0PjxwYXRoIGZpbGwtb3BhY2l0eT0iMSIgZD0iTSA2MjUuNjkwMjExOTI4NzI4NyA2ODguOTk2NjYzNjQ4Mzc1MyBMIDYyNS41ODIzMTg2MDkzODgyIDY5MS43NDI3MzE5OTg4NDk5IEwgNjI1LjI1OTMwMzg0OTU1ODUgNjk0LjQ3MTg2OTkyNDc4MzQgTCA2MjQuNzIzMTU5MTQyNjQ3MyA2OTcuMTY3MjUxMzgzMzMyIEwgNjIzLjk3NzE4OTk5OTA1OTEgNjk5LjgxMjI1ODQ1MTQ5ODUgTCA2MjMuMDI1OTk1NTY2NjIzNyA3MDIuMzkwNTgzNzgxMTUzNCBMIDYyMS44NzU0NDAyNzUzMjE2IDcwNC44ODYzMzExMzkyNTk0IEwgNjIwLjUzMjYxNzY4MTEyMTkgNzA3LjI4NDExMzQxMzQzMzUgTCA2MTkuMDA1ODA2NzMxODUxOSA3MDkuNTY5MTQ3NDc4NjExOSBMIDYxNy4zMDQ0MjA3MjQ3Mjk4IDcxMS43MjczNDUzMzk5MzE3IEwgNjE1LjQzODk0OTI3MDI1NzggNzEzLjc0NTQwMDk4OTkwNDQgTCA2MTMuNDIwODkzNjIwMjg1MSA3MTUuNjEwODcyNDQ0Mzc2NCBMIDYxMS4yNjI2OTU3NTg5NjUzIDcxNy4zMTIyNTg0NTE0OTg1IEwgNjA4Ljk3NzY2MTY5Mzc4NjkgNzE4LjgzOTA2OTQwMDc2ODUgTCA2MDYuNTc5ODc5NDE5NjEyOCA3MjAuMTgxODkxOTk0OTY4MiBMIDYwNC4wODQxMzIwNjE1MDY4IDcyMS4zMzI0NDcyODYyNzAzIEwgNjAxLjUwNTgwNjczMTg1MTkgNzIyLjI4MzY0MTcxODcwNTcgTCA1OTguODYwNzk5NjYzNjg1NCA3MjMuMDI5NjEwODYyMjkzOSBMIDU5Ni4xNjU0MTgyMDUxMzY4IDcyMy41NjU3NTU1NjkyMDUxIEwgNTkzLjQzNjI4MDI3OTIwMzMgNzIzLjg4ODc3MDMyOTAzNDcgTCA1OTAuNjkwMjExOTI4NzI4NyA3MjMuOTk2NjYzNjQ4Mzc1MyBMIDU4Ny45NDQxNDM1NzgyNTQgNzIzLjg4ODc3MDMyOTAzNDcgTCA1ODUuMjE1MDA1NjUyMzIwNSA3MjMuNTY1NzU1NTY5MjA1MSBMIDU4Mi41MTk2MjQxOTM3NzIgNzIzLjAyOTYxMDg2MjI5MzkgTCA1NzkuODc0NjE3MTI1NjA1NSA3MjIuMjgzNjQxNzE4NzA1NyBMIDU3Ny4yOTYyOTE3OTU5NTA1IDcyMS4zMzI0NDcyODYyNzAzIEwgNTc0LjgwMDU0NDQzNzg0NDYgNzIwLjE4MTg5MTk5NDk2ODIgTCA1NzIuNDAyNzYyMTYzNjcwNCA3MTguODM5MDY5NDAwNzY4NSBMIDU3MC4xMTc3MjgwOTg0OTIxIDcxNy4zMTIyNTg0NTE0OTg1IEwgNTY3Ljk1OTUzMDIzNzE3MjIgNzE1LjYxMDg3MjQ0NDM3NjQgTCA1NjUuOTQxNDc0NTg3MTk5NSA3MTMuNzQ1NDAwOTg5OTA0NCBMIDU2NC4wNzYwMDMxMzI3Mjc2IDcxMS43MjczNDUzMzk5MzE3IEwgNTYyLjM3NDYxNzEyNTYwNTUgNzA5LjU2OTE0NzQ3ODYxMTkgTCA1NjAuODQ3ODA2MTc2MzM1NCA3MDcuMjg0MTEzNDEzNDMzNSBMIDU1OS41MDQ5ODM1ODIxMzU4IDcwNC44ODYzMzExMzkyNTk0IEwgNTU4LjM1NDQyODI5MDgzMzcgNzAyLjM5MDU4Mzc4MTE1MzQgTCA1NTcuNDAzMjMzODU4Mzk4MyA2OTkuODEyMjU4NDUxNDk4NSBMIDU1Ni42NTcyNjQ3MTQ4MSA2OTcuMTY3MjUxMzgzMzMyIEwgNTU2LjEyMTEyMDAwNzg5ODkgNjk0LjQ3MTg2OTkyNDc4MzQgTCA1NTUuNzk4MTA1MjQ4MDY5MiA2OTEuNzQyNzMxOTk4ODQ5OSBMIDU1NS42OTAyMTE5Mjg3Mjg3IDY4OC45OTY2NjM2NDgzNzUzIEwgNTU1Ljc5ODEwNTI0ODA2OTIgNjg2LjI1MDU5NTI5NzkwMDYgTCA1NTYuMTIxMTIwMDA3ODk4OSA2ODMuNTIxNDU3MzcxOTY3MSBMIDU1Ni42NTcyNjQ3MTQ4MSA2ODAuODI2MDc1OTEzNDE4NSBMIDU1Ny40MDMyMzM4NTgzOTgzIDY3OC4xODEwNjg4NDUyNTIxIEwgNTU4LjM1NDQyODI5MDgzMzcgNjc1LjYwMjc0MzUxNTU5NzEgTCA1NTkuNTA0OTgzNTgyMTM1OCA2NzMuMTA2OTk2MTU3NDkxMiBMIDU2MC44NDc4MDYxNzYzMzU0IDY3MC43MDkyMTM4ODMzMTcgTCA1NjIuMzc0NjE3MTI1NjA1NSA2NjguNDI0MTc5ODE4MTM4NyBMIDU2NC4wNzYwMDMxMzI3Mjc2IDY2Ni4yNjU5ODE5NTY4MTg4IEwgNTY1Ljk0MTQ3NDU4NzE5OTUgNjY0LjI0NzkyNjMwNjg0NjEgTCA1NjcuOTU5NTMwMjM3MTcyMiA2NjIuMzgyNDU0ODUyMzc0MiBMIDU3MC4xMTc3MjgwOTg0OTIxIDY2MC42ODEwNjg4NDUyNTIxIEwgNTcyLjQwMjc2MjE2MzY3MDQgNjU5LjE1NDI1Nzg5NTk4MiBMIDU3NC44MDA1NDQ0Mzc4NDQ2IDY1Ny44MTE0MzUzMDE3ODI0IEwgNTc3LjI5NjI5MTc5NTk1MDUgNjU2LjY2MDg4MDAxMDQ4MDIgTCA1NzkuODc0NjE3MTI1NjA1NiA2NTUuNzA5Njg1NTc4MDQ0OSBMIDU4Mi41MTk2MjQxOTM3NzIxIDY1NC45NjM3MTY0MzQ0NTY2IEwgNTg1LjIxNTAwNTY1MjMyMDcgNjU0LjQyNzU3MTcyNzU0NTUgTCA1ODcuOTQ0MTQzNTc4MjU0MiA2NTQuMTA0NTU2OTY3NzE1OCBMIDU5MC42OTAyMTE5Mjg3Mjg4IDY1My45OTY2NjM2NDgzNzUzIEwgNTkzLjQzNjI4MDI3OTIwMzQgNjU0LjEwNDU1Njk2NzcxNTggTCA1OTYuMTY1NDE4MjA1MTM2OSA2NTQuNDI3NTcxNzI3NTQ1NSBMIDU5OC44NjA3OTk2NjM2ODU1IDY1NC45NjM3MTY0MzQ0NTY2IEwgNjAxLjUwNTgwNjczMTg1MiA2NTUuNzA5Njg1NTc4MDQ1IEwgNjA0LjA4NDEzMjA2MTUwNyA2NTYuNjYwODgwMDEwNDgwMiBMIDYwNi41Nzk4Nzk0MTk2MTMgNjU3LjgxMTQzNTMwMTc4MjUgTCA2MDguOTc3NjYxNjkzNzg3MSA2NTkuMTU0MjU3ODk1OTgyMSBMIDYxMS4yNjI2OTU3NTg5NjU0IDY2MC42ODEwNjg4NDUyNTIzIEwgNjEzLjQyMDg5MzYyMDI4NTMgNjYyLjM4MjQ1NDg1MjM3NDQgTCA2MTUuNDM4OTQ5MjcwMjU4IDY2NC4yNDc5MjYzMDY4NDYyIEwgNjE3LjMwNDQyMDcyNDczIDY2Ni4yNjU5ODE5NTY4MTkgTCA2MTkuMDA1ODA2NzMxODUyIDY2OC40MjQxNzk4MTgxMzg5IEwgNjIwLjUzMjYxNzY4MTEyMiA2NzAuNzA5MjEzODgzMzE3NCBMIDYyMS44NzU0NDAyNzUzMjE3IDY3My4xMDY5OTYxNTc0OTE0IEwgNjIzLjAyNTk5NTU2NjYyMzggNjc1LjYwMjc0MzUxNTU5NzUgTCA2MjMuOTc3MTg5OTk5MDU5MiA2NzguMTgxMDY4ODQ1MjUyNCBMIDYyNC43MjMxNTkxNDI2NDc0IDY4MC44MjYwNzU5MTM0MTg5IEwgNjI1LjI1OTMwMzg0OTU1ODYgNjgzLjUyMTQ1NzM3MTk2NzYgTCA2MjUuNTgyMzE4NjA5Mzg4MiA2ODYuMjUwNTk1Mjk3OTAxMSBaIiBwYWludC1vcmRlcj0ic3Ryb2tlIGZpbGwgbWFya2VycyIgc3Ryb2tlPSJub25lIiBmaWxsPSJyZ2IoMTI4LDIxNiwyNTUpIi8+PHRleHQgZmlsbC1vcGFjaXR5PSIxIiB0ZXh0LWFuY2hvcj0ibWlkZGxlIiB5PSI2OTYuOTk2NjYzNjQ4Mzc1MyIgeD0iNTkwLjY5MDIxMTkyODcyODciIHRleHQtZGVjb3JhdGlvbj0ibm9ybWFsIiBmb250LXdlaWdodD0ibm9ybWFsIiBmb250LXN0eWxlPSJub3JtYWwiIGZvbnQtc2l6ZT0iMTZweCIgZm9udC1mYW1pbHk9IkhlbHZldGljYSBOZXVlLCBIZWx2ZXRpY2EsIHNhbnMtc2VyaWYiIHN0cm9rZT0ibm9uZSIgZmlsbD0icmdiKDAsMCwwKSI+Sm9obiBFcm9sIEV2YW5nZWxpc3RhPC90ZXh0PjxwYXRoIGZpbGwtb3BhY2l0eT0iMSIgZD0iTSAyMTEuMjU4Nzc1MjY5NjMxODMgMjkwLjcxMDE2ODg5MjczNjcgTCAyMTEuMTUwODgxOTUwMjkxMyAyOTMuNDU2MjM3MjQzMjExMjYgTCAyMTAuODI3ODY3MTkwNDYxNjMgMjk2LjE4NTM3NTE2OTE0NDggTCAyMTAuMjkxNzIyNDgzNTUwNSAyOTguODgwNzU2NjI3NjkzNCBMIDIwOS41NDU3NTMzMzk5NjIyIDMwMS41MjU3NjM2OTU4NTk4NCBMIDIwOC41OTQ1NTg5MDc1MjY4NSAzMDQuMTA0MDg5MDI1NTE0ODQgTCAyMDcuNDQ0MDAzNjE2MjI0NyAzMDYuNTk5ODM2MzgzNjIwODcgTCAyMDYuMTAxMTgxMDIyMDI1MDYgMzA4Ljk5NzYxODY1Nzc5NDkzIEwgMjA0LjU3NDM3MDA3Mjc1NSAzMTEuMjgyNjUyNzIyOTczMjQgTCAyMDIuODcyOTg0MDY1NjMyOTIgMzEzLjQ0MDg1MDU4NDI5MzEgTCAyMDEuMDA3NTEyNjExMTYxIDMxNS40NTg5MDYyMzQyNjU4NCBMIDE5OC45ODk0NTY5NjExODgyNCAzMTcuMzI0Mzc3Njg4NzM3OCBMIDE5Ni44MzEyNTkwOTk4Njg0IDMxOS4wMjU3NjM2OTU4NTk4NCBMIDE5NC41NDYyMjUwMzQ2OTAwNSAzMjAuNTUyNTc0NjQ1MTI5OTQgTCAxOTIuMTQ4NDQyNzYwNTE1OTYgMzIxLjg5NTM5NzIzOTMyOTU1IEwgMTg5LjY1MjY5NTQwMjQwOTk2IDMyMy4wNDU5NTI1MzA2MzE3IEwgMTg3LjA3NDM3MDA3Mjc1NSAzMjMuOTk3MTQ2OTYzMDY3MDUgTCAxODQuNDI5MzYzMDA0NTg4NSAzMjQuNzQzMTE2MTA2NjU1NCBMIDE4MS43MzM5ODE1NDYwMzk5IDMyNS4yNzkyNjA4MTM1NjY1IEwgMTc5LjAwNDg0MzYyMDEwNjQgMzI1LjYwMjI3NTU3MzM5NjIgTCAxNzYuMjU4Nzc1MjY5NjMxODMgMzI1LjcxMDE2ODg5MjczNjcgTCAxNzMuNTEyNzA2OTE5MTU3MjcgMzI1LjYwMjI3NTU3MzM5NjIgTCAxNzAuNzgzNTY4OTkzMjIzNzUgMzI1LjI3OTI2MDgxMzU2NjUgTCAxNjguMDg4MTg3NTM0Njc1MTQgMzI0Ljc0MzExNjEwNjY1NTQgTCAxNjUuNDQzMTgwNDY2NTA4NjYgMzIzLjk5NzE0Njk2MzA2NzA1IEwgMTYyLjg2NDg1NTEzNjg1MzcgMzIzLjA0NTk1MjUzMDYzMTcgTCAxNjAuMzY5MTA3Nzc4NzQ3NyAzMjEuODk1Mzk3MjM5MzI5NTUgTCAxNTcuOTcxMzI1NTA0NTczNjMgMzIwLjU1MjU3NDY0NTEyOTk0IEwgMTU1LjY4NjI5MTQzOTM5NTI2IDMxOS4wMjU3NjM2OTU4NTk4NCBMIDE1My41MjgwOTM1NzgwNzU0IDMxNy4zMjQzNzc2ODg3Mzc4IEwgMTUxLjUxMDAzNzkyODEwMjY2IDMxNS40NTg5MDYyMzQyNjU5IEwgMTQ5LjY0NDU2NjQ3MzYzMDczIDMxMy40NDA4NTA1ODQyOTMxIEwgMTQ3Ljk0MzE4MDQ2NjUwODY2IDMxMS4yODI2NTI3MjI5NzMyNCBMIDE0Ni40MTYzNjk1MTcyMzg2IDMwOC45OTc2MTg2NTc3OTQ5MyBMIDE0NS4wNzM1NDY5MjMwMzg5NSAzMDYuNTk5ODM2MzgzNjIwODcgTCAxNDMuOTIyOTkxNjMxNzM2OCAzMDQuMTA0MDg5MDI1NTE0ODQgTCAxNDIuOTcxNzk3MTk5MzAxNDUgMzAxLjUyNTc2MzY5NTg1OTkgTCAxNDIuMjI1ODI4MDU1NzEzMTUgMjk4Ljg4MDc1NjYyNzY5MzQgTCAxNDEuNjg5NjgzMzQ4ODAyMDIgMjk2LjE4NTM3NTE2OTE0NDggTCAxNDEuMzY2NjY4NTg4OTcyMzUgMjkzLjQ1NjIzNzI0MzIxMTI2IEwgMTQxLjI1ODc3NTI2OTYzMTgzIDI5MC43MTAxNjg4OTI3MzY3IEwgMTQxLjM2NjY2ODU4ODk3MjM1IDI4Ny45NjQxMDA1NDIyNjIxNCBMIDE0MS42ODk2ODMzNDg4MDIwMiAyODUuMjM0OTYyNjE2MzI4NjMgTCAxNDIuMjI1ODI4MDU1NzEzMTUgMjgyLjUzOTU4MTE1Nzc4IEwgMTQyLjk3MTc5NzE5OTMwMTQ1IDI3OS44OTQ1NzQwODk2MTM1NyBMIDE0My45MjI5OTE2MzE3MzY3OCAyNzcuMzE2MjQ4NzU5OTU4NTcgTCAxNDUuMDczNTQ2OTIzMDM4OTUgMjc0LjgyMDUwMTQwMTg1MjYgTCAxNDYuNDE2MzY5NTE3MjM4NiAyNzIuNDIyNzE5MTI3Njc4NSBMIDE0Ny45NDMxODA0NjY1MDg2NiAyNzAuMTM3Njg1MDYyNTAwMTcgTCAxNDkuNjQ0NTY2NDczNjMwNzMgMjY3Ljk3OTQ4NzIwMTE4MDMgTCAxNTEuNTEwMDM3OTI4MTAyNjYgMjY1Ljk2MTQzMTU1MTIwNzU3IEwgMTUzLjUyODA5MzU3ODA3NTM5IDI2NC4wOTU5NjAwOTY3MzU2IEwgMTU1LjY4NjI5MTQzOTM5NTI2IDI2Mi4zOTQ1NzQwODk2MTM1NyBMIDE1Ny45NzEzMjU1MDQ1NzM2MyAyNjAuODY3NzYzMTQwMzQzNDcgTCAxNjAuMzY5MTA3Nzc4NzQ3NzIgMjU5LjUyNDk0MDU0NjE0MzggTCAxNjIuODY0ODU1MTM2ODUzNzIgMjU4LjM3NDM4NTI1NDg0MTYgTCAxNjUuNDQzMTgwNDY2NTA4NzIgMjU3LjQyMzE5MDgyMjQwNjMgTCAxNjguMDg4MTg3NTM0Njc1MiAyNTYuNjc3MjIxNjc4ODE4IEwgMTcwLjc4MzU2ODk5MzIyMzg0IDI1Ni4xNDEwNzY5NzE5MDY4NCBMIDE3My41MTI3MDY5MTkxNTczNSAyNTUuODE4MDYyMjEyMDc3MjIgTCAxNzYuMjU4Nzc1MjY5NjMxOTQgMjU1LjcxMDE2ODg5MjczNjcgTCAxNzkuMDA0ODQzNjIwMTA2NTMgMjU1LjgxODA2MjIxMjA3NzIyIEwgMTgxLjczMzk4MTU0NjA0MDA0IDI1Ni4xNDEwNzY5NzE5MDY5IEwgMTg0LjQyOTM2MzAwNDU4ODY4IDI1Ni42NzcyMjE2Nzg4MTgwNiBMIDE4Ny4wNzQzNzAwNzI3NTUxNiAyNTcuNDIzMTkwODIyNDA2MzUgTCAxODkuNjUyNjk1NDAyNDEwMTYgMjU4LjM3NDM4NTI1NDg0MTc0IEwgMTkyLjE0ODQ0Mjc2MDUxNjE2IDI1OS41MjQ5NDA1NDYxNDM5IEwgMTk0LjU0NjIyNTAzNDY5MDIyIDI2MC44Njc3NjMxNDAzNDM2IEwgMTk2LjgzMTI1OTA5OTg2ODYgMjYyLjM5NDU3NDA4OTYxMzcgTCAxOTguOTg5NDU2OTYxMTg4NDQgMjY0LjA5NTk2MDA5NjczNTggTCAyMDEuMDA3NTEyNjExMTYxMiAyNjUuOTYxNDMxNTUxMjA3NzQgTCAyMDIuODcyOTg0MDY1NjMzMSAyNjcuOTc5NDg3MjAxMTgwNSBMIDIwNC41NzQzNzAwNzI3NTUxNiAyNzAuMTM3Njg1MDYyNTAwNCBMIDIwNi4xMDExODEwMjIwMjUyMyAyNzIuNDIyNzE5MTI3Njc4NzYgTCAyMDcuNDQ0MDAzNjE2MjI0ODUgMjc0LjgyMDUwMTQwMTg1MjkgTCAyMDguNTk0NTU4OTA3NTI3IDI3Ny4zMTYyNDg3NTk5NTg5IEwgMjA5LjU0NTc1MzMzOTk2MjMyIDI3OS44OTQ1NzQwODk2MTM5IEwgMjEwLjI5MTcyMjQ4MzU1MDYgMjgyLjUzOTU4MTE1Nzc4MDQgTCAyMTAuODI3ODY3MTkwNDYxNzIgMjg1LjIzNDk2MjYxNjMyOSBMIDIxMS4xNTA4ODE5NTAyOTEzNCAyODcuOTY0MTAwNTQyMjYyNTQgWiIgcGFpbnQtb3JkZXI9InN0cm9rZSBmaWxsIG1hcmtlcnMiIHN0cm9rZT0ibm9uZSIgZmlsbD0icmdiKDEyOCwyMTYsMjU1KSIvPjx0ZXh0IGZpbGwtb3BhY2l0eT0iMSIgdGV4dC1hbmNob3I9Im1pZGRsZSIgeT0iMjk4LjcxMDE2ODg5MjczNjciIHg9IjE3Ni4yNTg3NzUyNjk2MzE4MyIgdGV4dC1kZWNvcmF0aW9uPSJub3JtYWwiIGZvbnQtd2VpZ2h0PSJub3JtYWwiIGZvbnQtc3R5bGU9Im5vcm1hbCIgZm9udC1zaXplPSIxNnB4IiBmb250LWZhbWlseT0iSGVsdmV0aWNhIE5ldWUsIEhlbHZldGljYSwgc2Fucy1zZXJpZiIgc3Ryb2tlPSJub25lIiBmaWxsPSJyZ2IoMCwwLDApIj5OYXRoYW5pYSBMaW5nYW08L3RleHQ+PHBhdGggZmlsbC1vcGFjaXR5PSIxIiBkPSJNIDIxMC4xMzY3MDc4MjYzNDUzIDQyOS44NDc3MDIwNTQyMTQ4IEwgMjEwLjAyODgxNDUwNzAwNDc3IDQzMi41OTM3NzA0MDQ2ODkzNCBMIDIwOS43MDU3OTk3NDcxNzUxIDQzNS4zMjI5MDgzMzA2MjI4NSBMIDIwOS4xNjk2NTUwNDAyNjM5NiA0MzguMDE4Mjg5Nzg5MTcxNSBMIDIwOC40MjM2ODU4OTY2NzU2NiA0NDAuNjYzMjk2ODU3MzM3OSBMIDIwNy40NzI0OTE0NjQyNDAzIDQ0My4yNDE2MjIxODY5OTI5IEwgMjA2LjMyMTkzNjE3MjkzODE3IDQ0NS43MzczNjk1NDUwOTg5IEwgMjA0Ljk3OTExMzU3ODczODUyIDQ0OC4xMzUxNTE4MTkyNzMgTCAyMDMuNDUyMzAyNjI5NDY4NDUgNDUwLjQyMDE4NTg4NDQ1MTMgTCAyMDEuNzUwOTE2NjIyMzQ2MzggNDUyLjU3ODM4Mzc0NTc3MTIgTCAxOTkuODg1NDQ1MTY3ODc0NDUgNDU0LjU5NjQzOTM5NTc0MzkgTCAxOTcuODY3Mzg5NTE3OTAxNyA0NTYuNDYxOTEwODUwMjE1OSBMIDE5NS43MDkxOTE2NTY1ODE4NSA0NTguMTYzMjk2ODU3MzM3OTcgTCAxOTMuNDI0MTU3NTkxNDAzNSA0NTkuNjkwMTA3ODA2NjA4IEwgMTkxLjAyNjM3NTMxNzIyOTQyIDQ2MS4wMzI5MzA0MDA4MDc2MyBMIDE4OC41MzA2Mjc5NTkxMjM0MiA0NjIuMTgzNDg1NjkyMTA5OCBMIDE4NS45NTIzMDI2Mjk0Njg0NSA0NjMuMTM0NjgwMTI0NTQ1MSBMIDE4My4zMDcyOTU1NjEzMDE5NyA0NjMuODgwNjQ5MjY4MTMzNSBMIDE4MC42MTE5MTQxMDI3NTMzNiA0NjQuNDE2NzkzOTc1MDQ0NiBMIDE3Ny44ODI3NzYxNzY4MTk4NyA0NjQuNzM5ODA4NzM0ODc0MjYgTCAxNzUuMTM2NzA3ODI2MzQ1MyA0NjQuODQ3NzAyMDU0MjE0OCBMIDE3Mi4zOTA2Mzk0NzU4NzA3MyA0NjQuNzM5ODA4NzM0ODc0MjYgTCAxNjkuNjYxNTAxNTQ5OTM3MiA0NjQuNDE2NzkzOTc1MDQ0NiBMIDE2Ni45NjYxMjAwOTEzODg2IDQ2My44ODA2NDkyNjgxMzM1IEwgMTY0LjMyMTExMzAyMzIyMjEzIDQ2My4xMzQ2ODAxMjQ1NDUyIEwgMTYxLjc0Mjc4NzY5MzU2NzE1IDQ2Mi4xODM0ODU2OTIxMDk4IEwgMTU5LjI0NzA0MDMzNTQ2MTE1IDQ2MS4wMzI5MzA0MDA4MDc2MyBMIDE1Ni44NDkyNTgwNjEyODcxIDQ1OS42OTAxMDc4MDY2MDggTCAxNTQuNTY0MjIzOTk2MTA4NzIgNDU4LjE2MzI5Njg1NzMzNzk3IEwgMTUyLjQwNjAyNjEzNDc4ODg3IDQ1Ni40NjE5MTA4NTAyMTU5IEwgMTUwLjM4Nzk3MDQ4NDgxNjEyIDQ1NC41OTY0MzkzOTU3NDM5IEwgMTQ4LjUyMjQ5OTAzMDM0NDIgNDUyLjU3ODM4Mzc0NTc3MTIgTCAxNDYuODIxMTEzMDIzMjIyMTMgNDUwLjQyMDE4NTg4NDQ1MTM3IEwgMTQ1LjI5NDMwMjA3Mzk1MjA1IDQ0OC4xMzUxNTE4MTkyNzMgTCAxNDMuOTUxNDc5NDc5NzUyNCA0NDUuNzM3MzY5NTQ1MDk4OTQgTCAxNDIuODAwOTI0MTg4NDUwMjcgNDQzLjI0MTYyMjE4Njk5MjkgTCAxNDEuODQ5NzI5NzU2MDE0OSA0NDAuNjYzMjk2ODU3MzM3OTcgTCAxNDEuMTAzNzYwNjEyNDI2NiA0MzguMDE4Mjg5Nzg5MTcxNSBMIDE0MC41Njc2MTU5MDU1MTU0OCA0MzUuMzIyOTA4MzMwNjIyODUgTCAxNDAuMjQ0NjAxMTQ1Njg1OCA0MzIuNTkzNzcwNDA0Njg5MzQgTCAxNDAuMTM2NzA3ODI2MzQ1MyA0MjkuODQ3NzAyMDU0MjE0OCBMIDE0MC4yNDQ2MDExNDU2ODU4IDQyNy4xMDE2MzM3MDM3NDAyIEwgMTQwLjU2NzYxNTkwNTUxNTQ4IDQyNC4zNzI0OTU3Nzc4MDY3IEwgMTQxLjEwMzc2MDYxMjQyNjYgNDIxLjY3NzExNDMxOTI1ODA3IEwgMTQxLjg0OTcyOTc1NjAxNDkgNDE5LjAzMjEwNzI1MTA5MTY1IEwgMTQyLjgwMDkyNDE4ODQ1MDI0IDQxNi40NTM3ODE5MjE0MzY2NCBMIDE0My45NTE0Nzk0Nzk3NTI0IDQxMy45NTgwMzQ1NjMzMzA2NyBMIDE0NS4yOTQzMDIwNzM5NTIwNSA0MTEuNTYwMjUyMjg5MTU2NTUgTCAxNDYuODIxMTEzMDIzMjIyMTMgNDA5LjI3NTIxODIyMzk3ODI0IEwgMTQ4LjUyMjQ5OTAzMDM0NDIgNDA3LjExNzAyMDM2MjY1ODM3IEwgMTUwLjM4Nzk3MDQ4NDgxNjEyIDQwNS4wOTg5NjQ3MTI2ODU2NCBMIDE1Mi40MDYwMjYxMzQ3ODg4NSA0MDMuMjMzNDkzMjU4MjEzNyBMIDE1NC41NjQyMjM5OTYxMDg3MiA0MDEuNTMyMTA3MjUxMDkxNjUgTCAxNTYuODQ5MjU4MDYxMjg3MSA0MDAuMDA1Mjk2MzAxODIxNTUgTCAxNTkuMjQ3MDQwMzM1NDYxMTggMzk4LjY2MjQ3MzcwNzYyMTg3IEwgMTYxLjc0Mjc4NzY5MzU2NzE4IDM5Ny41MTE5MTg0MTYzMTk3NiBMIDE2NC4zMjExMTMwMjMyMjIxOCAzOTYuNTYwNzIzOTgzODg0NCBMIDE2Ni45NjYxMjAwOTEzODg2NiAzOTUuODE0NzU0ODQwMjk2MSBMIDE2OS42NjE1MDE1NDk5MzczIDM5NS4yNzg2MTAxMzMzODUgTCAxNzIuMzkwNjM5NDc1ODcwOCAzOTQuOTU1NTk1MzczNTU1MyBMIDE3NS4xMzY3MDc4MjYzNDU0IDM5NC44NDc3MDIwNTQyMTQ4IEwgMTc3Ljg4Mjc3NjE3NjgyIDM5NC45NTU1OTUzNzM1NTUzIEwgMTgwLjYxMTkxNDEwMjc1MzUgMzk1LjI3ODYxMDEzMzM4NSBMIDE4My4zMDcyOTU1NjEzMDIxNCAzOTUuODE0NzU0ODQwMjk2MTMgTCAxODUuOTUyMzAyNjI5NDY4NjIgMzk2LjU2MDcyMzk4Mzg4NDUgTCAxODguNTMwNjI3OTU5MTIzNjIgMzk3LjUxMTkxODQxNjMxOTggTCAxOTEuMDI2Mzc1MzE3MjI5NjIgMzk4LjY2MjQ3MzcwNzYyMiBMIDE5My40MjQxNTc1OTE0MDM2OCA0MDAuMDA1Mjk2MzAxODIxNjYgTCAxOTUuNzA5MTkxNjU2NTgyMDUgNDAxLjUzMjEwNzI1MTA5MTc2IEwgMTk3Ljg2NzM4OTUxNzkwMTkgNDAzLjIzMzQ5MzI1ODIxMzg1IEwgMTk5Ljg4NTQ0NTE2Nzg3NDY1IDQwNS4wOTg5NjQ3MTI2ODU4IEwgMjAxLjc1MDkxNjYyMjM0NjU1IDQwNy4xMTcwMjAzNjI2NTg2IEwgMjAzLjQ1MjMwMjYyOTQ2ODYyIDQwOS4yNzUyMTgyMjM5Nzg0NyBMIDIwNC45NzkxMTM1Nzg3Mzg3IDQxMS41NjAyNTIyODkxNTY4NCBMIDIwNi4zMjE5MzYxNzI5MzgzIDQxMy45NTgwMzQ1NjMzMzA5NSBMIDIwNy40NzI0OTE0NjQyNDA0NSA0MTYuNDUzNzgxOTIxNDM3IEwgMjA4LjQyMzY4NTg5NjY3NTc4IDQxOS4wMzIxMDcyNTEwOTIgTCAyMDkuMTY5NjU1MDQwMjY0MDUgNDIxLjY3NzExNDMxOTI1ODQ2IEwgMjA5LjcwNTc5OTc0NzE3NTE4IDQyNC4zNzI0OTU3Nzc4MDcxIEwgMjEwLjAyODgxNDUwNzAwNDggNDI3LjEwMTYzMzcwMzc0MDYgWiIgcGFpbnQtb3JkZXI9InN0cm9rZSBmaWxsIG1hcmtlcnMiIHN0cm9rZT0ibm9uZSIgZmlsbD0icmdiKDEyOCwyMTYsMjU1KSIvPjx0ZXh0IGZpbGwtb3BhY2l0eT0iMSIgdGV4dC1hbmNob3I9Im1pZGRsZSIgeT0iNDM3Ljg0NzcwMjA1NDIxNDgiIHg9IjE3NS4xMzY3MDc4MjYzNDUzIiB0ZXh0LWRlY29yYXRpb249Im5vcm1hbCIgZm9udC13ZWlnaHQ9Im5vcm1hbCIgZm9udC1zdHlsZT0ibm9ybWFsIiBmb250LXNpemU9IjE2cHgiIGZvbnQtZmFtaWx5PSJIZWx2ZXRpY2EgTmV1ZSwgSGVsdmV0aWNhLCBzYW5zLXNlcmlmIiBzdHJva2U9Im5vbmUiIGZpbGw9InJnYigwLDAsMCkiPlBlaSBXYW5nPC90ZXh0PjxwYXRoIGZpbGwtb3BhY2l0eT0iMSIgZD0iTSA3MC40OTE3MTcwNzA5NTU1NiAyOTAuNzA0OTkyMTQ1ODcxMTMgTCA3MC4zODM4MjM3NTE2MTUwNCAyOTMuNDUxMDYwNDk2MzQ1NyBMIDcwLjA2MDgwODk5MTc4NTM4IDI5Ni4xODAxOTg0MjIyNzkyIEwgNjkuNTI0NjY0Mjg0ODc0MjMgMjk4Ljg3NTU3OTg4MDgyNzg0IEwgNjguNzc4Njk1MTQxMjg1OTQgMzAxLjUyMDU4Njk0ODk5NDI2IEwgNjcuODI3NTAwNzA4ODUwNiAzMDQuMDk4OTEyMjc4NjQ5MjcgTCA2Ni42NzY5NDU0MTc1NDg0NCAzMDYuNTk0NjU5NjM2NzU1MyBMIDY1LjMzNDEyMjgyMzM0ODc5IDMwOC45OTI0NDE5MTA5MjkzNiBMIDYzLjgwNzMxMTg3NDA3ODcyIDMxMS4yNzc0NzU5NzYxMDc2NyBMIDYyLjEwNTkyNTg2Njk1NjY0IDMxMy40MzU2NzM4Mzc0Mjc1NCBMIDYwLjI0MDQ1NDQxMjQ4NDcyIDMxNS40NTM3Mjk0ODc0MDAyNyBMIDU4LjIyMjM5ODc2MjUxMTk4NiAzMTcuMzE5MjAwOTQxODcyMiBMIDU2LjA2NDIwMDkwMTE5MjEyIDMxOS4wMjA1ODY5NDg5OTQyNiBMIDUzLjc3OTE2NjgzNjAxMzc3IDMyMC41NDczOTc4OTgyNjQzNiBMIDUxLjM4MTM4NDU2MTgzOTY5NSAzMjEuODkwMjIwNDkyNDY0IEwgNDguODg1NjM3MjAzNzMzNyAzMjMuMDQwNzc1NzgzNzY2MTUgTCA0Ni4zMDczMTE4NzQwNzg3MiAzMjMuOTkxOTcwMjE2MjAxNSBMIDQzLjY2MjMwNDgwNTkxMjI1IDMyNC43Mzc5MzkzNTk3ODk4MyBMIDQwLjk2NjkyMzM0NzM2MzY0IDMyNS4yNzQwODQwNjY3MDA5NCBMIDM4LjIzNzc4NTQyMTQzMDEzIDMyNS41OTcwOTg4MjY1MzA2IEwgMzUuNDkxNzE3MDcwOTU1NTYgMzI1LjcwNDk5MjE0NTg3MTEzIEwgMzIuNzQ1NjQ4NzIwNDgwOTg2IDMyNS41OTcwOTg4MjY1MzA2IEwgMzAuMDE2NTEwNzk0NTQ3NDggMzI1LjI3NDA4NDA2NjcwMDk0IEwgMjcuMzIxMTI5MzM1OTk4ODcyIDMyNC43Mzc5MzkzNTk3ODk4MyBMIDI0LjY3NjEyMjI2NzgzMjQwNSAzMjMuOTkxOTcwMjE2MjAxNSBMIDIyLjA5Nzc5NjkzODE3NzQxNyAzMjMuMDQwNzc1NzgzNzY2MTUgTCAxOS42MDIwNDk1ODAwNzE0MjMgMzIxLjg5MDIyMDQ5MjQ2NCBMIDE3LjIwNDI2NzMwNTg5NzM1IDMyMC41NDczOTc4OTgyNjQzNiBMIDE0LjkxOTIzMzI0MDcxOTAwMiAzMTkuMDIwNTg2OTQ4OTk0MjYgTCAxMi43NjEwMzUzNzkzOTkxMzYgMzE3LjMxOTIwMDk0MTg3MjIgTCAxMC43NDI5Nzk3Mjk0MjYzOTggMzE1LjQ1MzcyOTQ4NzQwMDMgTCA4Ljg3NzUwODI3NDk1NDQ3NiAzMTMuNDM1NjczODM3NDI3NTQgTCA3LjE3NjEyMjI2NzgzMjQwMSAzMTEuMjc3NDc1OTc2MTA3NjcgTCA1LjY0OTMxMTMxODU2MjMzMyAzMDguOTkyNDQxOTEwOTI5MzYgTCA0LjMwNjQ4ODcyNDM2MjY4NyAzMDYuNTk0NjU5NjM2NzU1MyBMIDMuMTU1OTMzNDMzMDYwNTI1MyAzMDQuMDk4OTEyMjc4NjQ5MjcgTCAyLjIwNDczOTAwMDYyNTE4OSAzMDEuNTIwNTg2OTQ4OTk0MyBMIDEuNDU4NzY5ODU3MDM2ODc3MiAyOTguODc1NTc5ODgwODI3ODQgTCAwLjkyMjYyNTE1MDEyNTczOTQgMjk2LjE4MDE5ODQyMjI3OTIgTCAwLjU5OTYxMDM5MDI5NjA3ODMgMjkzLjQ1MTA2MDQ5NjM0NTcgTCAwLjQ5MTcxNzA3MDk1NTU1OTE3IDI5MC43MDQ5OTIxNDU4NzExMyBMIDAuNTk5NjEwMzkwMjk2MDc4MyAyODcuOTU4OTIzNzk1Mzk2NiBMIDAuOTIyNjI1MTUwMTI1NzM5NCAyODUuMjI5Nzg1ODY5NDYzMDYgTCAxLjQ1ODc2OTg1NzAzNjg3NzIgMjgyLjUzNDQwNDQxMDkxNDQgTCAyLjIwNDczOTAwMDYyNTE4MTcgMjc5Ljg4OTM5NzM0Mjc0OCBMIDMuMTU1OTMzNDMzMDYwNTE4IDI3Ny4zMTEwNzIwMTMwOTMgTCA0LjMwNjQ4ODcyNDM2MjY4MzUgMjc0LjgxNTMyNDY1NDk4NyBMIDUuNjQ5MzExMzE4NTYyMzI5IDI3Mi40MTc1NDIzODA4MTI5IEwgNy4xNzYxMjIyNjc4MzIzOTc1IDI3MC4xMzI1MDgzMTU2MzQ2IEwgOC44Nzc1MDgyNzQ5NTQ0NzIgMjY3Ljk3NDMxMDQ1NDMxNDcgTCAxMC43NDI5Nzk3Mjk0MjYzOTEgMjY1Ljk1NjI1NDgwNDM0MiBMIDEyLjc2MTAzNTM3OTM5OTExNCAyNjQuMDkwNzgzMzQ5ODcwMDQgTCAxNC45MTkyMzMyNDA3MTg5OTUgMjYyLjM4OTM5NzM0Mjc0OCBMIDE3LjIwNDI2NzMwNTg5NzM2IDI2MC44NjI1ODYzOTM0Nzc5IEwgMTkuNjAyMDQ5NTgwMDcxNDQ0IDI1OS41MTk3NjM3OTkyNzgyIEwgMjIuMDk3Nzk2OTM4MTc3NDU2IDI1OC4zNjkyMDg1MDc5NzYwNSBMIDI0LjY3NjEyMjI2NzgzMjQ1NCAyNTcuNDE4MDE0MDc1NTQwNyBMIDI3LjMyMTEyOTMzNTk5ODk0IDI1Ni42NzIwNDQ5MzE5NTI0IEwgMzAuMDE2NTEwNzk0NTQ3NTY0IDI1Ni4xMzU5MDAyMjUwNDEyNyBMIDMyLjc0NTY0ODcyMDQ4MTA4NiAyNTUuODEyODg1NDY1MjExNjUgTCAzNS40OTE3MTcwNzA5NTU2OCAyNTUuNzA0OTkyMTQ1ODcxMTMgTCAzOC4yMzc3ODU0MjE0MzAyNyAyNTUuODEyODg1NDY1MjExNjUgTCA0MC45NjY5MjMzNDczNjM3OSAyNTYuMTM1OTAwMjI1MDQxMyBMIDQzLjY2MjMwNDgwNTkxMjQwNiAyNTYuNjcyMDQ0OTMxOTUyNSBMIDQ2LjMwNzMxMTg3NDA3ODg5IDI1Ny40MTgwMTQwNzU1NDA4IEwgNDguODg1NjM3MjAzNzMzODggMjU4LjM2OTIwODUwNzk3NjE3IEwgNTEuMzgxMzg0NTYxODM5ODggMjU5LjUxOTc2Mzc5OTI3ODM0IEwgNTMuNzc5MTY2ODM2MDEzOTYgMjYwLjg2MjU4NjM5MzQ3OCBMIDU2LjA2NDIwMDkwMTE5MjMxNSAyNjIuMzg5Mzk3MzQyNzQ4MSBMIDU4LjIyMjM5ODc2MjUxMjE4NSAyNjQuMDkwNzgzMzQ5ODcwMiBMIDYwLjI0MDQ1NDQxMjQ4NDkxNSAyNjUuOTU2MjU0ODA0MzQyMTcgTCA2Mi4xMDU5MjU4NjY5NTY4MjQgMjY3Ljk3NDMxMDQ1NDMxNDk1IEwgNjMuODA3MzExODc0MDc4OSAyNzAuMTMyNTA4MzE1NjM0OCBMIDY1LjMzNDEyMjgyMzM0ODk1IDI3Mi40MTc1NDIzODA4MTMyIEwgNjYuNjc2OTQ1NDE3NTQ4NTggMjc0LjgxNTMyNDY1NDk4NzMgTCA2Ny44Mjc1MDA3MDg4NTA3MiAyNzcuMzExMDcyMDEzMDkzMzQgTCA2OC43Nzg2OTUxNDEyODYwNSAyNzkuODg5Mzk3MzQyNzQ4MzQgTCA2OS41MjQ2NjQyODQ4NzQzMiAyODIuNTM0NDA0NDEwOTE0OCBMIDcwLjA2MDgwODk5MTc4NTQ1IDI4NS4yMjk3ODU4Njk0NjM0NiBMIDcwLjM4MzgyMzc1MTYxNTA3IDI4Ny45NTg5MjM3OTUzOTY5NyBaIiBwYWludC1vcmRlcj0ic3Ryb2tlIGZpbGwgbWFya2VycyIgc3Ryb2tlPSJub25lIiBmaWxsPSJyZ2IoMTI4LDIxNiwyNTUpIi8+PHRleHQgZmlsbC1vcGFjaXR5PSIxIiB0ZXh0LWFuY2hvcj0ibWlkZGxlIiB5PSIyOTguNzA0OTkyMTQ1ODcxMTMiIHg9IjM1LjQ5MTcxNzA3MDk1NTU2IiB0ZXh0LWRlY29yYXRpb249Im5vcm1hbCIgZm9udC13ZWlnaHQ9Im5vcm1hbCIgZm9udC1zdHlsZT0ibm9ybWFsIiBmb250LXNpemU9IjE2cHgiIGZvbnQtZmFtaWx5PSJIZWx2ZXRpY2EgTmV1ZSwgSGVsdmV0aWNhLCBzYW5zLXNlcmlmIiBzdHJva2U9Im5vbmUiIGZpbGw9InJnYigwLDAsMCkiPkZyYW5jZXNjYSBQZXRyYWxpYTwvdGV4dD48cGF0aCBmaWxsLW9wYWNpdHk9IjEiIGQ9Ik0gNTExLjg4MDk0ODI3Mjg3OTQ0IDI4Ny41ODA5NDI2MDMzNTQyIEwgNTExLjc3MzA1NDk1MzUzODkgMjkwLjMyNzAxMDk1MzgyODczIEwgNTExLjQ1MDA0MDE5MzcwOTI0IDI5My4wNTYxNDg4Nzk3NjIyNSBMIDUxMC45MTM4OTU0ODY3OTgxNCAyOTUuNzUxNTMwMzM4MzEwOSBMIDUxMC4xNjc5MjYzNDMyMDk4IDI5OC4zOTY1Mzc0MDY0NzczIEwgNTA5LjIxNjczMTkxMDc3NDQ2IDMwMC45NzQ4NjI3MzYxMzIzIEwgNTA4LjA2NjE3NjYxOTQ3MjMgMzAzLjQ3MDYxMDA5NDIzODMgTCA1MDYuNzIzMzU0MDI1MjcyNjcgMzA1Ljg2ODM5MjM2ODQxMjQgTCA1MDUuMTk2NTQzMDc2MDAyNiAzMDguMTUzNDI2NDMzNTkwNyBMIDUwMy40OTUxNTcwNjg4ODA1MyAzMTAuMzExNjI0Mjk0OTEwNiBMIDUwMS42Mjk2ODU2MTQ0MDg2IDMxMi4zMjk2Nzk5NDQ4ODMzIEwgNDk5LjYxMTYyOTk2NDQzNTg1IDMxNC4xOTUxNTEzOTkzNTUyNyBMIDQ5Ny40NTM0MzIxMDMxMTYgMzE1Ljg5NjUzNzQwNjQ3NzM2IEwgNDk1LjE2ODM5ODAzNzkzNzY2IDMxNy40MjMzNDgzNTU3NDc0IEwgNDkyLjc3MDYxNTc2Mzc2MzYgMzE4Ljc2NjE3MDk0OTk0NyBMIDQ5MC4yNzQ4Njg0MDU2NTc1NyAzMTkuOTE2NzI2MjQxMjQ5MiBMIDQ4Ny42OTY1NDMwNzYwMDI2IDMyMC44Njc5MjA2NzM2ODQ1IEwgNDg1LjA1MTUzNjAwNzgzNjE1IDMyMS42MTM4ODk4MTcyNzI5IEwgNDgyLjM1NjE1NDU0OTI4NzUgMzIyLjE1MDAzNDUyNDE4NCBMIDQ3OS42MjcwMTY2MjMzNTQgMzIyLjQ3MzA0OTI4NDAxMzY1IEwgNDc2Ljg4MDk0ODI3Mjg3OTQ0IDMyMi41ODA5NDI2MDMzNTQyIEwgNDc0LjEzNDg3OTkyMjQwNDkgMzIyLjQ3MzA0OTI4NDAxMzY1IEwgNDcxLjQwNTc0MTk5NjQ3MTM2IDMyMi4xNTAwMzQ1MjQxODQgTCA0NjguNzEwMzYwNTM3OTIyNyAzMjEuNjEzODg5ODE3MjcyOSBMIDQ2Ni4wNjUzNTM0Njk3NTYzIDMyMC44Njc5MjA2NzM2ODQ2IEwgNDYzLjQ4NzAyODE0MDEwMTMgMzE5LjkxNjcyNjI0MTI0OTIgTCA0NjAuOTkxMjgwNzgxOTk1MzMgMzE4Ljc2NjE3MDk0OTk0NyBMIDQ1OC41OTM0OTg1MDc4MjEyIDMxNy40MjMzNDgzNTU3NDc0IEwgNDU2LjMwODQ2NDQ0MjY0MjkgMzE1Ljg5NjUzNzQwNjQ3NzM2IEwgNDU0LjE1MDI2NjU4MTMyMyAzMTQuMTk1MTUxMzk5MzU1MjcgTCA0NTIuMTMyMjEwOTMxMzUwMyAzMTIuMzI5Njc5OTQ0ODgzMyBMIDQ1MC4yNjY3Mzk0NzY4NzgzNCAzMTAuMzExNjI0Mjk0OTEwNiBMIDQ0OC41NjUzNTM0Njk3NTYzIDMwOC4xNTM0MjY0MzM1OTA3NyBMIDQ0Ny4wMzg1NDI1MjA0ODYyIDMwNS44NjgzOTIzNjg0MTI0IEwgNDQ1LjY5NTcxOTkyNjI4NjYgMzAzLjQ3MDYxMDA5NDIzODM0IEwgNDQ0LjU0NTE2NDYzNDk4NDQgMzAwLjk3NDg2MjczNjEzMjMgTCA0NDMuNTkzOTcwMjAyNTQ5MSAyOTguMzk2NTM3NDA2NDc3MzYgTCA0NDIuODQ4MDAxMDU4OTYwNzMgMjk1Ljc1MTUzMDMzODMxMDkgTCA0NDIuMzExODU2MzUyMDQ5NjMgMjkzLjA1NjE0ODg3OTc2MjI1IEwgNDQxLjk4ODg0MTU5MjIxOTk2IDI5MC4zMjcwMTA5NTM4Mjg3MyBMIDQ0MS44ODA5NDgyNzI4Nzk0NCAyODcuNTgwOTQyNjAzMzU0MiBMIDQ0MS45ODg4NDE1OTIyMTk5NiAyODQuODM0ODc0MjUyODc5NiBMIDQ0Mi4zMTE4NTYzNTIwNDk2MyAyODIuMTA1NzM2MzI2OTQ2MSBMIDQ0Mi44NDgwMDEwNTg5NjA3MyAyNzkuNDEwMzU0ODY4Mzk3NDYgTCA0NDMuNTkzOTcwMjAyNTQ5MDMgMjc2Ljc2NTM0NzgwMDIzMTA0IEwgNDQ0LjU0NTE2NDYzNDk4NDQgMjc0LjE4NzAyMjQ3MDU3NjA0IEwgNDQ1LjY5NTcxOTkyNjI4NjYgMjcxLjY5MTI3NTExMjQ3MDA3IEwgNDQ3LjAzODU0MjUyMDQ4NjIgMjY5LjI5MzQ5MjgzODI5NTk1IEwgNDQ4LjU2NTM1MzQ2OTc1NjI1IDI2Ny4wMDg0NTg3NzMxMTc2NCBMIDQ1MC4yNjY3Mzk0NzY4NzgzNCAyNjQuODUwMjYwOTExNzk3NzYgTCA0NTIuMTMyMjEwOTMxMzUwMjQgMjYyLjgzMjIwNTI2MTgyNTA0IEwgNDU0LjE1MDI2NjU4MTMyMjk3IDI2MC45NjY3MzM4MDczNTMxIEwgNDU2LjMwODQ2NDQ0MjY0Mjg0IDI1OS4yNjUzNDc4MDAyMzEwNCBMIDQ1OC41OTM0OTg1MDc4MjEyIDI1Ny43Mzg1MzY4NTA5NjA5NCBMIDQ2MC45OTEyODA3ODE5OTUzMyAyNTYuMzk1NzE0MjU2NzYxMjcgTCA0NjMuNDg3MDI4MTQwMTAxMzYgMjU1LjI0NTE1ODk2NTQ1OTEzIEwgNDY2LjA2NTM1MzQ2OTc1NjMgMjU0LjI5Mzk2NDUzMzAyMzc3IEwgNDY4LjcxMDM2MDUzNzkyMjg0IDI1My41NDc5OTUzODk0MzU0NyBMIDQ3MS40MDU3NDE5OTY0NzE0IDI1My4wMTE4NTA2ODI1MjQzNCBMIDQ3NC4xMzQ4Nzk5MjI0MDUgMjUyLjY4ODgzNTkyMjY5NDcgTCA0NzYuODgwOTQ4MjcyODc5NTUgMjUyLjU4MDk0MjYwMzM1NDE3IEwgNDc5LjYyNzAxNjYyMzM1NDE3IDI1Mi42ODg4MzU5MjI2OTQ3IEwgNDgyLjM1NjE1NDU0OTI4NzcgMjUzLjAxMTg1MDY4MjUyNDM3IEwgNDg1LjA1MTUzNjAwNzgzNjI2IDI1My41NDc5OTUzODk0MzU1MyBMIDQ4Ny42OTY1NDMwNzYwMDI3NCAyNTQuMjkzOTY0NTMzMDIzODUgTCA0OTAuMjc0ODY4NDA1NjU3NzQgMjU1LjI0NTE1ODk2NTQ1OTIgTCA0OTIuNzcwNjE1NzYzNzYzOCAyNTYuMzk1NzE0MjU2NzYxNCBMIDQ5NS4xNjgzOTgwMzc5Mzc4MyAyNTcuNzM4NTM2ODUwOTYxMDUgTCA0OTcuNDUzNDMyMTAzMTE2MiAyNTkuMjY1MzQ3ODAwMjMxMTUgTCA0OTkuNjExNjI5OTY0NDM2MSAyNjAuOTY2NzMzODA3MzUzMjUgTCA1MDEuNjI5Njg1NjE0NDA4OCAyNjIuODMyMjA1MjYxODI1MiBMIDUwMy40OTUxNTcwNjg4ODA3IDI2NC44NTAyNjA5MTE3OTggTCA1MDUuMTk2NTQzMDc2MDAyOCAyNjcuMDA4NDU4NzczMTE3ODcgTCA1MDYuNzIzMzU0MDI1MjcyODQgMjY5LjI5MzQ5MjgzODI5NjIzIEwgNTA4LjA2NjE3NjYxOTQ3MjQ2IDI3MS42OTEyNzUxMTI0NzAzNSBMIDUwOS4yMTY3MzE5MTA3NzQ2IDI3NC4xODcwMjI0NzA1NzY0IEwgNTEwLjE2NzkyNjM0MzIwOTkgMjc2Ljc2NTM0NzgwMDIzMTQgTCA1MTAuOTEzODk1NDg2Nzk4MiAyNzkuNDEwMzU0ODY4Mzk3ODYgTCA1MTEuNDUwMDQwMTkzNzA5MyAyODIuMTA1NzM2MzI2OTQ2NSBMIDUxMS43NzMwNTQ5NTM1Mzg5IDI4NC44MzQ4NzQyNTI4OCBaIiBwYWludC1vcmRlcj0ic3Ryb2tlIGZpbGwgbWFya2VycyIgc3Ryb2tlPSJub25lIiBmaWxsPSJyZ2IoMTI4LDIxNiwyNTUpIi8+PHRleHQgZmlsbC1vcGFjaXR5PSIxIiB0ZXh0LWFuY2hvcj0ibWlkZGxlIiB5PSIyOTUuNTgwOTQyNjAzMzU0MiIgeD0iNDc2Ljg4MDk0ODI3Mjg3OTQ0IiB0ZXh0LWRlY29yYXRpb249Im5vcm1hbCIgZm9udC13ZWlnaHQ9Im5vcm1hbCIgZm9udC1zdHlsZT0ibm9ybWFsIiBmb250LXNpemU9IjE2cHgiIGZvbnQtZmFtaWx5PSJIZWx2ZXRpY2EgTmV1ZSwgSGVsdmV0aWNhLCBzYW5zLXNlcmlmIiBzdHJva2U9Im5vbmUiIGZpbGw9InJnYigwLDAsMCkiPkF6cmEgS3JlazwvdGV4dD48cGF0aCBmaWxsLW9wYWNpdHk9IjEiIGQ9Ik0gMjkyLjA4NTgzNDU1NDAxMzEgMTc3LjcwNzMyNTA5ODM5NTI0IEwgMjkxLjk3Nzk0MTIzNDY3MjYgMTgwLjQ1MzM5MzQ0ODg2OTggTCAyOTEuNjU0OTI2NDc0ODQyOSAxODMuMTgyNTMxMzc0ODAzMzIgTCAyOTEuMTE4NzgxNzY3OTMxOCAxODUuODc3OTEyODMzMzUxOTMgTCAyOTAuMzcyODEyNjI0MzQzNDUgMTg4LjUyMjkxOTkwMTUxODQgTCAyODkuNDIxNjE4MTkxOTA4MSAxOTEuMTAxMjQ1MjMxMTczMzggTCAyODguMjcxMDYyOTAwNjA1OTUgMTkzLjU5Njk5MjU4OTI3OTM4IEwgMjg2LjkyODI0MDMwNjQwNjM0IDE5NS45OTQ3NzQ4NjM0NTM0NCBMIDI4NS40MDE0MjkzNTcxMzYzIDE5OC4yNzk4MDg5Mjg2MzE4IEwgMjgzLjcwMDA0MzM1MDAxNDIgMjAwLjQzODAwNjc4OTk1MTY2IEwgMjgxLjgzNDU3MTg5NTU0MjI0IDIwMi40NTYwNjI0Mzk5MjQ0IEwgMjc5LjgxNjUxNjI0NTU2OTUgMjA0LjMyMTUzMzg5NDM5NjM0IEwgMjc3LjY1ODMxODM4NDI0OTY0IDIwNi4wMjI5MTk5MDE1MTg0IEwgMjc1LjM3MzI4NDMxOTA3MTMzIDIwNy41NDk3MzA4NTA3ODg0OCBMIDI3Mi45NzU1MDIwNDQ4OTcyNyAyMDguODkyNTUzNDQ0OTg4MTIgTCAyNzAuNDc5NzU0Njg2NzkxMjQgMjEwLjA0MzEwODczNjI5MDI2IEwgMjY3LjkwMTQyOTM1NzEzNjMgMjEwLjk5NDMwMzE2ODcyNTYyIEwgMjY1LjI1NjQyMjI4ODk2OTggMjExLjc0MDI3MjMxMjMxMzkyIEwgMjYyLjU2MTA0MDgzMDQyMTIgMjEyLjI3NjQxNzAxOTIyNTA1IEwgMjU5LjgzMTkwMjkwNDQ4NzY2IDIxMi41OTk0MzE3NzkwNTQ3MyBMIDI1Ny4wODU4MzQ1NTQwMTMxIDIxMi43MDczMjUwOTgzOTUyNCBMIDI1NC4zMzk3NjYyMDM1Mzg1NSAyMTIuNTk5NDMxNzc5MDU0NzMgTCAyNTEuNjEwNjI4Mjc3NjA1MDMgMjEyLjI3NjQxNzAxOTIyNTA1IEwgMjQ4LjkxNTI0NjgxOTA1NjQyIDIxMS43NDAyNzIzMTIzMTM5MiBMIDI0Ni4yNzAyMzk3NTA4ODk5NCAyMTAuOTk0MzAzMTY4NzI1NjIgTCAyNDMuNjkxOTE0NDIxMjM0OTcgMjEwLjA0MzEwODczNjI5MDI2IEwgMjQxLjE5NjE2NzA2MzEyODk3IDIwOC44OTI1NTM0NDQ5ODgxMiBMIDIzOC43OTgzODQ3ODg5NTQ5IDIwNy41NDk3MzA4NTA3ODg0OCBMIDIzNi41MTMzNTA3MjM3NzY1NCAyMDYuMDIyOTE5OTAxNTE4NCBMIDIzNC4zNTUxNTI4NjI0NTY3IDIwNC4zMjE1MzM4OTQzOTYzNCBMIDIzMi4zMzcwOTcyMTI0ODM5NCAyMDIuNDU2MDYyNDM5OTI0NCBMIDIzMC40NzE2MjU3NTgwMTIgMjAwLjQzODAwNjc4OTk1MTcgTCAyMjguNzcwMjM5NzUwODg5OTQgMTk4LjI3OTgwODkyODYzMTggTCAyMjcuMjQzNDI4ODAxNjE5ODcgMTk1Ljk5NDc3NDg2MzQ1MzQ3IEwgMjI1LjkwMDYwNjIwNzQyMDIyIDE5My41OTY5OTI1ODkyNzkzOCBMIDIyNC43NTAwNTA5MTYxMTgwOCAxOTEuMTAxMjQ1MjMxMTczMzggTCAyMjMuNzk4ODU2NDgzNjgyNzMgMTg4LjUyMjkxOTkwMTUxODQgTCAyMjMuMDUyODg3MzQwMDk0NDMgMTg1Ljg3NzkxMjgzMzM1MTkzIEwgMjIyLjUxNjc0MjYzMzE4MzMgMTgzLjE4MjUzMTM3NDgwMzMyIEwgMjIyLjE5MzcyNzg3MzM1MzYyIDE4MC40NTMzOTM0NDg4Njk4MyBMIDIyMi4wODU4MzQ1NTQwMTMxIDE3Ny43MDczMjUwOTgzOTUyNCBMIDIyMi4xOTM3Mjc4NzMzNTM2MiAxNzQuOTYxMjU2NzQ3OTIwNyBMIDIyMi41MTY3NDI2MzMxODMzIDE3Mi4yMzIxMTg4MjE5ODcxNyBMIDIyMy4wNTI4ODczNDAwOTQ0MyAxNjkuNTM2NzM3MzYzNDM4NTYgTCAyMjMuNzk4ODU2NDgzNjgyNzMgMTY2Ljg5MTczMDI5NTI3MjA4IEwgMjI0Ljc1MDA1MDkxNjExODA2IDE2NC4zMTM0MDQ5NjU2MTcxIEwgMjI1LjkwMDYwNjIwNzQyMDIyIDE2MS44MTc2NTc2MDc1MTExIEwgMjI3LjI0MzQyODgwMTYxOTg3IDE1OS40MTk4NzUzMzMzMzcwNSBMIDIyOC43NzAyMzk3NTA4ODk5NCAxNTcuMTM0ODQxMjY4MTU4NjggTCAyMzAuNDcxNjI1NzU4MDEyIDE1NC45NzY2NDM0MDY4Mzg4MyBMIDIzMi4zMzcwOTcyMTI0ODM5NCAxNTIuOTU4NTg3NzU2ODY2MDggTCAyMzQuMzU1MTUyODYyNDU2NjYgMTUxLjA5MzExNjMwMjM5NDE4IEwgMjM2LjUxMzM1MDcyMzc3NjU0IDE0OS4zOTE3MzAyOTUyNzIwOCBMIDIzOC43OTgzODQ3ODg5NTQ5IDE0Ny44NjQ5MTkzNDYwMDIgTCAyNDEuMTk2MTY3MDYzMTI5IDE0Ni41MjIwOTY3NTE4MDIzNyBMIDI0My42OTE5MTQ0MjEyMzUgMTQ1LjM3MTU0MTQ2MDUwMDIgTCAyNDYuMjcwMjM5NzUwODkgMTQ0LjQyMDM0NzAyODA2NDg0IEwgMjQ4LjkxNTI0NjgxOTA1NjQ4IDE0My42NzQzNzc4ODQ0NzY1NCBMIDI1MS42MTA2MjgyNzc2MDUxMiAxNDMuMTM4MjMzMTc3NTY1NCBMIDI1NC4zMzk3NjYyMDM1Mzg2MyAxNDIuODE1MjE4NDE3NzM1NzYgTCAyNTcuMDg1ODM0NTU0MDEzMiAxNDIuNzA3MzI1MDk4Mzk1MjQgTCAyNTkuODMxOTAyOTA0NDg3ODMgMTQyLjgxNTIxODQxNzczNTc2IEwgMjYyLjU2MTA0MDgzMDQyMTM1IDE0My4xMzgyMzMxNzc1NjU0NCBMIDI2NS4yNTY0MjIyODg5Njk5MyAxNDMuNjc0Mzc3ODg0NDc2NiBMIDI2Ny45MDE0MjkzNTcxMzY0IDE0NC40MjAzNDcwMjgwNjQ5MiBMIDI3MC40Nzk3NTQ2ODY3OTE0IDE0NS4zNzE1NDE0NjA1MDAyOCBMIDI3Mi45NzU1MDIwNDQ4OTc0NCAxNDYuNTIyMDk2NzUxODAyNDUgTCAyNzUuMzczMjg0MzE5MDcxNSAxNDcuODY0OTE5MzQ2MDAyMTMgTCAyNzcuNjU4MzE4Mzg0MjQ5ODcgMTQ5LjM5MTczMDI5NTI3MjIzIEwgMjc5LjgxNjUxNjI0NTU2OTc0IDE1MS4wOTMxMTYzMDIzOTQzMiBMIDI4MS44MzQ1NzE4OTU1NDI0NyAxNTIuOTU4NTg3NzU2ODY2MjggTCAyODMuNzAwMDQzMzUwMDE0MzcgMTU0Ljk3NjY0MzQwNjgzOTAzIEwgMjg1LjQwMTQyOTM1NzEzNjQ2IDE1Ny4xMzQ4NDEyNjgxNTg5NCBMIDI4Ni45MjgyNDAzMDY0MDY1IDE1OS40MTk4NzUzMzMzMzczIEwgMjg4LjI3MTA2MjkwMDYwNjEgMTYxLjgxNzY1NzYwNzUxMTQgTCAyODkuNDIxNjE4MTkxOTA4MyAxNjQuMzEzNDA0OTY1NjE3NDIgTCAyOTAuMzcyODEyNjI0MzQzNTcgMTY2Ljg5MTczMDI5NTI3MjQyIEwgMjkxLjExODc4MTc2NzkzMTg2IDE2OS41MzY3MzczNjM0Mzg5MyBMIDI5MS42NTQ5MjY0NzQ4NDI5NyAxNzIuMjMyMTE4ODIxOTg3NTcgTCAyOTEuOTc3OTQxMjM0NjcyNiAxNzQuOTYxMjU2NzQ3OTIxMDggWiIgcGFpbnQtb3JkZXI9InN0cm9rZSBmaWxsIG1hcmtlcnMiIHN0cm9rZT0ibm9uZSIgZmlsbD0icmdiKDEyOCwyMTYsMjU1KSIvPjx0ZXh0IGZpbGwtb3BhY2l0eT0iMSIgdGV4dC1hbmNob3I9Im1pZGRsZSIgeT0iMTg1LjcwNzMyNTA5ODM5NTI0IiB4PSIyNTcuMDg1ODM0NTU0MDEzMSIgdGV4dC1kZWNvcmF0aW9uPSJub3JtYWwiIGZvbnQtd2VpZ2h0PSJub3JtYWwiIGZvbnQtc3R5bGU9Im5vcm1hbCIgZm9udC1zaXplPSIxNnB4IiBmb250LWZhbWlseT0iSGVsdmV0aWNhIE5ldWUsIEhlbHZldGljYSwgc2Fucy1zZXJpZiIgc3Ryb2tlPSJub25lIiBmaWxsPSJyZ2IoMCwwLDApIj5CZXJrIFR1cmhhbjwvdGV4dD48cGF0aCBmaWxsLW9wYWNpdHk9IjEiIGQ9Ik0gNDM2LjEzNDUzOTgwNjc4MDY1IDM1IEwgNDM2LjAyNjY0NjQ4NzQ0MDEzIDM3Ljc0NjA2ODM1MDQ3NDU3IEwgNDM1LjcwMzYzMTcyNzYxMDQ2IDQwLjQ3NTIwNjI3NjQwODA4IEwgNDM1LjE2NzQ4NzAyMDY5OTM1IDQzLjE3MDU4NzczNDk1NjY5IEwgNDM0LjQyMTUxNzg3NzExMSA0NS44MTU1OTQ4MDMxMjMxNiBMIDQzMy40NzAzMjM0NDQ2NzU2NyA0OC4zOTM5MjAxMzI3NzgxNCBMIDQzMi4zMTk3NjgxNTMzNzM1IDUwLjg4OTY2NzQ5MDg4NDEzNiBMIDQzMC45NzY5NDU1NTkxNzM5IDUzLjI4NzQ0OTc2NTA1ODIxIEwgNDI5LjQ1MDEzNDYwOTkwMzggNTUuNTcyNDgzODMwMjM2NTY0IEwgNDI3Ljc0ODc0ODYwMjc4MTc1IDU3LjczMDY4MTY5MTU1NjQzIEwgNDI1Ljg4MzI3NzE0ODMwOTg0IDU5Ljc0ODczNzM0MTUyOTE2NCBMIDQyMy44NjUyMjE0OTgzMzcwNiA2MS42MTQyMDg3OTYwMDEwOCBMIDQyMS43MDcwMjM2MzcwMTcyIDYzLjMxNTU5NDgwMzEyMzE2IEwgNDE5LjQyMTk4OTU3MTgzODkgNjQuODQyNDA1NzUyMzkzMjMgTCA0MTcuMDI0MjA3Mjk3NjY0OCA2Ni4xODUyMjgzNDY1OTI4OCBMIDQxNC41Mjg0NTk5Mzk1NTg4IDY3LjMzNTc4MzYzNzg5NTAzIEwgNDExLjk1MDEzNDYwOTkwMzggNjguMjg2OTc4MDcwMzMwMzggTCA0MDkuMzA1MTI3NTQxNzM3MzYgNjkuMDMyOTQ3MjEzOTE4NjcgTCA0MDYuNjA5NzQ2MDgzMTg4NyA2OS41NjkwOTE5MjA4Mjk4MiBMIDQwMy44ODA2MDgxNTcyNTUyIDY5Ljg5MjEwNjY4MDY1OTQ4IEwgNDAxLjEzNDUzOTgwNjc4MDY1IDcwIEwgMzk4LjM4ODQ3MTQ1NjMwNjEgNjkuODkyMTA2NjgwNjU5NDggTCAzOTUuNjU5MzMzNTMwMzcyNiA2OS41NjkwOTE5MjA4Mjk4MiBMIDM5Mi45NjM5NTIwNzE4MjM5NCA2OS4wMzI5NDcyMTM5MTg2NyBMIDM5MC4zMTg5NDUwMDM2NTc1IDY4LjI4Njk3ODA3MDMzMDM4IEwgMzg3Ljc0MDYxOTY3NDAwMjUgNjcuMzM1NzgzNjM3ODk1MDMgTCAzODUuMjQ0ODcyMzE1ODk2NSA2Ni4xODUyMjgzNDY1OTI4OCBMIDM4Mi44NDcwOTAwNDE3MjI0IDY0Ljg0MjQwNTc1MjM5MzIzIEwgMzgwLjU2MjA1NTk3NjU0NDEgNjMuMzE1NTk0ODAzMTIzMTYgTCAzNzguNDAzODU4MTE1MjI0MjQgNjEuNjE0MjA4Nzk2MDAxMDggTCAzNzYuMzg1ODAyNDY1MjUxNSA1OS43NDg3MzczNDE1MjkxNjQgTCAzNzQuNTIwMzMxMDEwNzc5NTYgNTcuNzMwNjgxNjkxNTU2NDMgTCAzNzIuODE4OTQ1MDAzNjU3NSA1NS41NzI0ODM4MzAyMzY1NjQgTCAzNzEuMjkyMTM0MDU0Mzg3NCA1My4yODc0NDk3NjUwNTgyMSBMIDM2OS45NDkzMTE0NjAxODc4IDUwLjg4OTY2NzQ5MDg4NDEzNiBMIDM2OC43OTg3NTYxNjg4ODU2MyA0OC4zOTM5MjAxMzI3NzgxNSBMIDM2Ny44NDc1NjE3MzY0NTAzIDQ1LjgxNTU5NDgwMzEyMzE2IEwgMzY3LjEwMTU5MjU5Mjg2MTk1IDQzLjE3MDU4NzczNDk1NjcgTCAzNjYuNTY1NDQ3ODg1OTUwODUgNDAuNDc1MjA2Mjc2NDA4MDkgTCAzNjYuMjQyNDMzMTI2MTIxMTcgMzcuNzQ2MDY4MzUwNDc0NTggTCAzNjYuMTM0NTM5ODA2NzgwNjUgMzUuMDAwMDAwMDAwMDAwMDEgTCAzNjYuMjQyNDMzMTI2MTIxMTcgMzIuMjUzOTMxNjQ5NTI1NDM0IEwgMzY2LjU2NTQ0Nzg4NTk1MDg1IDI5LjUyNDc5MzcyMzU5MTkyNyBMIDM2Ny4xMDE1OTI1OTI4NjE5NSAyNi44Mjk0MTIyNjUwNDMzMTcgTCAzNjcuODQ3NTYxNzM2NDUwMyAyNC4xODQ0MDUxOTY4NzY4NDUgTCAzNjguNzk4NzU2MTY4ODg1NjMgMjEuNjA2MDc5ODY3MjIxODYgTCAzNjkuOTQ5MzExNDYwMTg3OCAxOS4xMTAzMzI1MDkxMTU4NjQgTCAzNzEuMjkyMTM0MDU0Mzg3NCAxNi43MTI1NTAyMzQ5NDE3OTQgTCAzNzIuODE4OTQ1MDAzNjU3NSAxNC40Mjc1MTYxNjk3NjM0NDMgTCAzNzQuNTIwMzMxMDEwNzc5NTYgMTIuMjY5MzE4MzA4NDQzNTc3IEwgMzc2LjM4NTgwMjQ2NTI1MTQ2IDEwLjI1MTI2MjY1ODQ3MDg0IEwgMzc4LjQwMzg1ODExNTIyNDIgOC4zODU3OTEyMDM5OTg5MjcgTCAzODAuNTYyMDU1OTc2NTQ0MSA2LjY4NDQwNTE5Njg3Njg0MiBMIDM4Mi44NDcwOTAwNDE3MjI1IDUuMTU3NTk0MjQ3NjA2NzY3IEwgMzg1LjI0NDg3MjMxNTg5NjU0IDMuODE0NzcxNjUzNDA3MTEzNyBMIDM4Ny43NDA2MTk2NzQwMDI2IDIuNjY0MjE2MzYyMTA0OTUyIEwgMzkwLjMxODk0NTAwMzY1NzUgMS43MTMwMjE5Mjk2Njk2MDgzIEwgMzkyLjk2Mzk1MjA3MTgyNDA1IDAuOTY3MDUyNzg2MDgxMzAzOSBMIDM5NS42NTkzMzM1MzAzNzI2MyAwLjQzMDkwODA3OTE3MDE2NjA1IEwgMzk4LjM4ODQ3MTQ1NjMwNjIgMC4xMDc4OTMzMTkzNDA1MTIwNSBMIDQwMS4xMzQ1Mzk4MDY3ODA3NyAwIEwgNDAzLjg4MDYwODE1NzI1NTQgMC4xMDc4OTMzMTkzNDA1MzMzNyBMIDQwNi42MDk3NDYwODMxODg5IDAuNDMwOTA4MDc5MTcwMjAxNiBMIDQwOS4zMDUxMjc1NDE3Mzc1IDAuOTY3MDUyNzg2MDgxMzUzNiBMIDQxMS45NTAxMzQ2MDk5MDM5NiAxLjcxMzAyMTkyOTY2OTY3OTQgTCA0MTQuNTI4NDU5OTM5NTU4OTYgMi42NjQyMTYzNjIxMDUwMzcgTCA0MTcuMDI0MjA3Mjk3NjY1IDMuODE0NzcxNjUzNDA3MjIwMiBMIDQxOS40MjE5ODk1NzE4MzkwNSA1LjE1NzU5NDI0NzYwNjg5MSBMIDQyMS43MDcwMjM2MzcwMTc0IDYuNjg0NDA1MTk2ODc2OTg0IEwgNDIzLjg2NTIyMTQ5ODMzNzMgOC4zODU3OTEyMDM5OTkwODQgTCA0MjUuODgzMjc3MTQ4MzEgMTAuMjUxMjYyNjU4NDcxMDI4IEwgNDI3Ljc0ODc0ODYwMjc4MTkgMTIuMjY5MzE4MzA4NDQzNzkgTCA0MjkuNDUwMTM0NjA5OTA0IDE0LjQyNzUxNjE2OTc2MzY4NSBMIDQzMC45NzY5NDU1NTkxNzQwNiAxNi43MTI1NTAyMzQ5NDIwNiBMIDQzMi4zMTk3NjgxNTMzNzM3IDE5LjExMDMzMjUwOTExNjE2IEwgNDMzLjQ3MDMyMzQ0NDY3NTg0IDIxLjYwNjA3OTg2NzIyMjE3OCBMIDQzNC40MjE1MTc4NzcxMTExIDI0LjE4NDQwNTE5Njg3NzE4NiBMIDQzNS4xNjc0ODcwMjA2OTk0IDI2LjgyOTQxMjI2NTA0MzY4IEwgNDM1LjcwMzYzMTcyNzYxMDUgMjkuNTI0NzkzNzIzNTkyMzEgTCA0MzYuMDI2NjQ2NDg3NDQwMiAzMi4yNTM5MzE2NDk1MjU4NCBaIiBwYWludC1vcmRlcj0ic3Ryb2tlIGZpbGwgbWFya2VycyIgc3Ryb2tlPSJub25lIiBmaWxsPSJyZ2IoMTI4LDIxNiwyNTUpIi8+PHRleHQgZmlsbC1vcGFjaXR5PSIxIiB0ZXh0LWFuY2hvcj0ibWlkZGxlIiB5PSI0MyIgeD0iNDAxLjEzNDUzOTgwNjc4MDY1IiB0ZXh0LWRlY29yYXRpb249Im5vcm1hbCIgZm9udC13ZWlnaHQ9Im5vcm1hbCIgZm9udC1zdHlsZT0ibm9ybWFsIiBmb250LXNpemU9IjE2cHgiIGZvbnQtZmFtaWx5PSJIZWx2ZXRpY2EgTmV1ZSwgSGVsdmV0aWNhLCBzYW5zLXNlcmlmIiBzdHJva2U9Im5vbmUiIGZpbGw9InJnYigwLDAsMCkiPk15dml6aGkgRXNhaSBTZWx2YW48L3RleHQ+PHBhdGggZmlsbC1vcGFjaXR5PSIxIiBkPSJNIDM0NS43Mzc5ODQyNTc0NTcyIDcwOS45ODUyNTk0MjUwNDY4IEwgMzQ1LjYzMDA5MDkzODExNjY3IDcxMi43MzEzMjc3NzU1MjE0IEwgMzQ1LjMwNzA3NjE3ODI4NyA3MTUuNDYwNDY1NzAxNDU1IEwgMzQ0Ljc3MDkzMTQ3MTM3NTkgNzE4LjE1NTg0NzE2MDAwMzUgTCAzNDQuMDI0OTYyMzI3Nzg3NTMgNzIwLjgwMDg1NDIyODE3IEwgMzQzLjA3Mzc2Nzg5NTM1MjIgNzIzLjM3OTE3OTU1NzgyNSBMIDM0MS45MjMyMTI2MDQwNTAwNCA3MjUuODc0OTI2OTE1OTMwOSBMIDM0MC41ODAzOTAwMDk4NTA0IDcyOC4yNzI3MDkxOTAxMDUgTCAzMzkuMDUzNTc5MDYwNTgwMyA3MzAuNTU3NzQzMjU1MjgzNCBMIDMzNy4zNTIxOTMwNTM0NTgzIDczMi43MTU5NDExMTY2MDMzIEwgMzM1LjQ4NjcyMTU5ODk4NjQgNzM0LjczMzk5Njc2NjU3NiBMIDMzMy40Njg2NjU5NDkwMTM2IDczNi41OTk0NjgyMjEwNDc5IEwgMzMxLjMxMDQ2ODA4NzY5MzcgNzM4LjMwMDg1NDIyODE3IEwgMzI5LjAyNTQzNDAyMjUxNTQgNzM5LjgyNzY2NTE3NzQ0IEwgMzI2LjYyNzY1MTc0ODM0MTM1IDc0MS4xNzA0ODc3NzE2Mzk3IEwgMzI0LjEzMTkwNDM5MDIzNTMgNzQyLjMyMTA0MzA2Mjk0MTggTCAzMjEuNTUzNTc5MDYwNTgwMyA3NDMuMjcyMjM3NDk1Mzc3MiBMIDMxOC45MDg1NzE5OTI0MTM5IDc0NC4wMTgyMDY2Mzg5NjU1IEwgMzE2LjIxMzE5MDUzMzg2NTI2IDc0NC41NTQzNTEzNDU4NzY2IEwgMzEzLjQ4NDA1MjYwNzkzMTc0IDc0NC44NzczNjYxMDU3MDYzIEwgMzEwLjczNzk4NDI1NzQ1NzIgNzQ0Ljk4NTI1OTQyNTA0NjggTCAzMDcuOTkxOTE1OTA2OTgyNiA3NDQuODc3MzY2MTA1NzA2MyBMIDMwNS4yNjI3Nzc5ODEwNDkxIDc0NC41NTQzNTEzNDU4NzY2IEwgMzAyLjU2NzM5NjUyMjUwMDUgNzQ0LjAxODIwNjYzODk2NTUgTCAyOTkuOTIyMzg5NDU0MzM0MDUgNzQzLjI3MjIzNzQ5NTM3NzIgTCAyOTcuMzQ0MDY0MTI0Njc5MDUgNzQyLjMyMTA0MzA2Mjk0MTggTCAyOTQuODQ4MzE2NzY2NTczIDc0MS4xNzA0ODc3NzE2Mzk3IEwgMjkyLjQ1MDUzNDQ5MjM5ODk2IDczOS44Mjc2NjUxNzc0NCBMIDI5MC4xNjU1MDA0MjcyMjA2NSA3MzguMzAwODU0MjI4MTcgTCAyODguMDA3MzAyNTY1OTAwOCA3MzYuNTk5NDY4MjIxMDQ3OSBMIDI4NS45ODkyNDY5MTU5MjgwNSA3MzQuNzMzOTk2NzY2NTc2IEwgMjg0LjEyMzc3NTQ2MTQ1NjEgNzMyLjcxNTk0MTExNjYwMzMgTCAyODIuNDIyMzg5NDU0MzM0MDUgNzMwLjU1Nzc0MzI1NTI4MzQgTCAyODAuODk1NTc4NTA1MDYzOTUgNzI4LjI3MjcwOTE5MDEwNSBMIDI3OS41NTI3NTU5MTA4NjQzMyA3MjUuODc0OTI2OTE1OTMwOSBMIDI3OC40MDIyMDA2MTk1NjIxNyA3MjMuMzc5MTc5NTU3ODI1IEwgMjc3LjQ1MTAwNjE4NzEyNjg0IDcyMC44MDA4NTQyMjgxNyBMIDI3Ni43MDUwMzcwNDM1Mzg1IDcxOC4xNTU4NDcxNjAwMDM1IEwgMjc2LjE2ODg5MjMzNjYyNzQgNzE1LjQ2MDQ2NTcwMTQ1NSBMIDI3NS44NDU4Nzc1NzY3OTc3IDcxMi43MzEzMjc3NzU1MjE0IEwgMjc1LjczNzk4NDI1NzQ1NzIgNzA5Ljk4NTI1OTQyNTA0NjggTCAyNzUuODQ1ODc3NTc2Nzk3NyA3MDcuMjM5MTkxMDc0NTcyMiBMIDI3Ni4xNjg4OTIzMzY2Mjc0IDcwNC41MTAwNTMxNDg2Mzg3IEwgMjc2LjcwNTAzNzA0MzUzODUgNzAxLjgxNDY3MTY5MDA5MDEgTCAyNzcuNDUxMDA2MTg3MTI2ODQgNjk5LjE2OTY2NDYyMTkyMzYgTCAyNzguNDAyMjAwNjE5NTYyMTcgNjk2LjU5MTMzOTI5MjI2ODcgTCAyNzkuNTUyNzU1OTEwODY0MzMgNjk0LjA5NTU5MTkzNDE2MjcgTCAyODAuODk1NTc4NTA1MDYzOTUgNjkxLjY5NzgwOTY1OTk4ODYgTCAyODIuNDIyMzg5NDU0MzM0MDUgNjg5LjQxMjc3NTU5NDgxMDIgTCAyODQuMTIzNzc1NDYxNDU2MSA2ODcuMjU0NTc3NzMzNDkwNCBMIDI4NS45ODkyNDY5MTU5MjggNjg1LjIzNjUyMjA4MzUxNzcgTCAyODguMDA3MzAyNTY1OTAwNyA2ODMuMzcxMDUwNjI5MDQ1NyBMIDI5MC4xNjU1MDA0MjcyMjA2NSA2ODEuNjY5NjY0NjIxOTIzNiBMIDI5Mi40NTA1MzQ0OTIzOTkgNjgwLjE0Mjg1MzY3MjY1MzYgTCAyOTQuODQ4MzE2NzY2NTczMSA2NzguODAwMDMxMDc4NDUzOSBMIDI5Ny4zNDQwNjQxMjQ2NzkxIDY3Ny42NDk0NzU3ODcxNTE4IEwgMjk5LjkyMjM4OTQ1NDMzNDA1IDY3Ni42OTgyODEzNTQ3MTY0IEwgMzAyLjU2NzM5NjUyMjUwMDYgNjc1Ljk1MjMxMjIxMTEyODIgTCAzMDUuMjYyNzc3OTgxMDQ5MTcgNjc1LjQxNjE2NzUwNDIxNyBMIDMwNy45OTE5MTU5MDY5ODI3NCA2NzUuMDkzMTUyNzQ0Mzg3MyBMIDMxMC43Mzc5ODQyNTc0NTczIDY3NC45ODUyNTk0MjUwNDY4IEwgMzEzLjQ4NDA1MjYwNzkzMTkgNjc1LjA5MzE1Mjc0NDM4NzMgTCAzMTYuMjEzMTkwNTMzODY1NDMgNjc1LjQxNjE2NzUwNDIxNyBMIDMxOC45MDg1NzE5OTI0MTQgNjc1Ljk1MjMxMjIxMTEyODIgTCAzMjEuNTUzNTc5MDYwNTgwNSA2NzYuNjk4MjgxMzU0NzE2NSBMIDMyNC4xMzE5MDQzOTAyMzU1IDY3Ny42NDk0NzU3ODcxNTE5IEwgMzI2LjYyNzY1MTc0ODM0MTUgNjc4LjgwMDAzMTA3ODQ1NCBMIDMyOS4wMjU0MzQwMjI1MTU2IDY4MC4xNDI4NTM2NzI2NTM3IEwgMzMxLjMxMDQ2ODA4NzY5Mzk1IDY4MS42Njk2NjQ2MjE5MjM5IEwgMzMzLjQ2ODY2NTk0OTAxMzggNjgzLjM3MTA1MDYyOTA0NiBMIDMzNS40ODY3MjE1OTg5ODY1NSA2ODUuMjM2NTIyMDgzNTE3OCBMIDMzNy4zNTIxOTMwNTM0NTg0NSA2ODcuMjU0NTc3NzMzNDkwNiBMIDMzOS4wNTM1NzkwNjA1ODA1NSA2ODkuNDEyNzc1NTk0ODEwNSBMIDM0MC41ODAzOTAwMDk4NTA2IDY5MS42OTc4MDk2NTk5ODg5IEwgMzQxLjkyMzIxMjYwNDA1MDIgNjk0LjA5NTU5MTkzNDE2MjkgTCAzNDMuMDczNzY3ODk1MzUyNCA2OTYuNTkxMzM5MjkyMjY5IEwgMzQ0LjAyNDk2MjMyNzc4NzY1IDY5OS4xNjk2NjQ2MjE5MjQgTCAzNDQuNzcwOTMxNDcxMzc1OTUgNzAxLjgxNDY3MTY5MDA5MDQgTCAzNDUuMzA3MDc2MTc4Mjg3MDUgNzA0LjUxMDA1MzE0ODYzOTEgTCAzNDUuNjMwMDkwOTM4MTE2NyA3MDcuMjM5MTkxMDc0NTcyNyBaIiBwYWludC1vcmRlcj0ic3Ryb2tlIGZpbGwgbWFya2VycyIgc3Ryb2tlPSJub25lIiBmaWxsPSJyZ2IoMTI4LDIxNiwyNTUpIi8+PHRleHQgZmlsbC1vcGFjaXR5PSIxIiB0ZXh0LWFuY2hvcj0ibWlkZGxlIiB5PSI3MTcuOTg1MjU5NDI1MDQ2OCIgeD0iMzEwLjczNzk4NDI1NzQ1NzIiIHRleHQtZGVjb3JhdGlvbj0ibm9ybWFsIiBmb250LXdlaWdodD0ibm9ybWFsIiBmb250LXN0eWxlPSJub3JtYWwiIGZvbnQtc2l6ZT0iMTZweCIgZm9udC1mYW1pbHk9IkhlbHZldGljYSBOZXVlLCBIZWx2ZXRpY2EsIHNhbnMtc2VyaWYiIHN0cm9rZT0ibm9uZSIgZmlsbD0icmdiKDAsMCwwKSI+QWxleGFuZGVyIExhY2htYW5uPC90ZXh0PjxwYXRoIGZpbGwtb3BhY2l0eT0iMSIgZD0iTSAyNzkuNDEwMzk1NjQ0MzI1OCA1NzAuODA4NjUwMDYwNjU0MyBMIDI3OS4zMDI1MDIzMjQ5ODUyNiA1NzMuNTU0NzE4NDExMTI4OSBMIDI3OC45Nzk0ODc1NjUxNTU2IDU3Ni4yODM4NTYzMzcwNjI0IEwgMjc4LjQ0MzM0Mjg1ODI0NDUgNTc4Ljk3OTIzNzc5NTYxMSBMIDI3Ny42OTczNzM3MTQ2NTYxIDU4MS42MjQyNDQ4NjM3Nzc0IEwgMjc2Ljc0NjE3OTI4MjIyMDggNTg0LjIwMjU3MDE5MzQzMjQgTCAyNzUuNTk1NjIzOTkwOTE4NiA1ODYuNjk4MzE3NTUxNTM4NCBMIDI3NC4yNTI4MDEzOTY3MTkgNTg5LjA5NjA5OTgyNTcxMjUgTCAyNzIuNzI1OTkwNDQ3NDQ4OSA1OTEuMzgxMTMzODkwODkwOSBMIDI3MS4wMjQ2MDQ0NDAzMjY4NyA1OTMuNTM5MzMxNzUyMjEwNyBMIDI2OS4xNTkxMzI5ODU4NTQ5NyA1OTUuNTU3Mzg3NDAyMTgzNCBMIDI2Ny4xNDEwNzczMzU4ODIyIDU5Ny40MjI4NTg4NTY2NTU0IEwgMjY0Ljk4Mjg3OTQ3NDU2MjMgNTk5LjEyNDI0NDg2Mzc3NzQgTCAyNjIuNjk3ODQ1NDA5Mzg0IDYwMC42NTEwNTU4MTMwNDc1IEwgMjYwLjMwMDA2MzEzNTIwOTk0IDYwMS45OTM4Nzg0MDcyNDcyIEwgMjU3LjgwNDMxNTc3NzEwMzkgNjAzLjE0NDQzMzY5ODU0OTMgTCAyNTUuMjI1OTkwNDQ3NDQ4OTQgNjA0LjA5NTYyODEzMDk4NDcgTCAyNTIuNTgwOTgzMzc5MjgyNDYgNjA0Ljg0MTU5NzI3NDU3MjkgTCAyNDkuODg1NjAxOTIwNzMzODUgNjA1LjM3Nzc0MTk4MTQ4NDEgTCAyNDcuMTU2NDYzOTk0ODAwMzYgNjA1LjcwMDc1Njc0MTMxMzcgTCAyNDQuNDEwMzk1NjQ0MzI1NzcgNjA1LjgwODY1MDA2MDY1NDMgTCAyNDEuNjY0MzI3MjkzODUxMjIgNjA1LjcwMDc1Njc0MTMxMzcgTCAyMzguOTM1MTg5MzY3OTE3NyA2MDUuMzc3NzQxOTgxNDg0MSBMIDIzNi4yMzk4MDc5MDkzNjkxIDYwNC44NDE1OTcyNzQ1NzI5IEwgMjMzLjU5NDgwMDg0MTIwMjYgNjA0LjA5NTYyODEzMDk4NDcgTCAyMzEuMDE2NDc1NTExNTQ3NjQgNjAzLjE0NDQzMzY5ODU0OTMgTCAyMjguNTIwNzI4MTUzNDQxNjQgNjAxLjk5Mzg3ODQwNzI0NzIgTCAyMjYuMTIyOTQ1ODc5MjY3NTggNjAwLjY1MTA1NTgxMzA0NzUgTCAyMjMuODM3OTExODE0MDg5MiA1OTkuMTI0MjQ0ODYzNzc3NCBMIDIyMS42Nzk3MTM5NTI3NjkzNiA1OTcuNDIyODU4ODU2NjU1NCBMIDIxOS42NjE2NTgzMDI3OTY2IDU5NS41NTczODc0MDIxODM0IEwgMjE3Ljc5NjE4Njg0ODMyNDY4IDU5My41MzkzMzE3NTIyMTA3IEwgMjE2LjA5NDgwMDg0MTIwMjYgNTkxLjM4MTEzMzg5MDg5MDkgTCAyMTQuNTY3OTg5ODkxOTMyNTQgNTg5LjA5NjA5OTgyNTcxMjUgTCAyMTMuMjI1MTY3Mjk3NzMyOSA1ODYuNjk4MzE3NTUxNTM4NCBMIDIxMi4wNzQ2MTIwMDY0MzA3NSA1ODQuMjAyNTcwMTkzNDMyNCBMIDIxMS4xMjM0MTc1NzM5OTU0IDU4MS42MjQyNDQ4NjM3Nzc0IEwgMjEwLjM3NzQ0ODQzMDQwNzEgNTc4Ljk3OTIzNzc5NTYxMSBMIDIwOS44NDEzMDM3MjM0OTU5NyA1NzYuMjgzODU2MzM3MDYyNCBMIDIwOS41MTgyODg5NjM2NjYzIDU3My41NTQ3MTg0MTExMjg5IEwgMjA5LjQxMDM5NTY0NDMyNTc3IDU3MC44MDg2NTAwNjA2NTQzIEwgMjA5LjUxODI4ODk2MzY2NjMgNTY4LjA2MjU4MTcxMDE3OTYgTCAyMDkuODQxMzAzNzIzNDk1OTcgNTY1LjMzMzQ0Mzc4NDI0NjEgTCAyMTAuMzc3NDQ4NDMwNDA3MSA1NjIuNjM4MDYyMzI1Njk3NSBMIDIxMS4xMjM0MTc1NzM5OTU0IDU1OS45OTMwNTUyNTc1MzExIEwgMjEyLjA3NDYxMjAwNjQzMDczIDU1Ny40MTQ3Mjk5Mjc4NzYxIEwgMjEzLjIyNTE2NzI5NzczMjkgNTU0LjkxODk4MjU2OTc3MDIgTCAyMTQuNTY3OTg5ODkxOTMyNTQgNTUyLjUyMTIwMDI5NTU5NiBMIDIxNi4wOTQ4MDA4NDEyMDI2IDU1MC4yMzYxNjYyMzA0MTc3IEwgMjE3Ljc5NjE4Njg0ODMyNDY4IDU0OC4wNzc5NjgzNjkwOTc4IEwgMjE5LjY2MTY1ODMwMjc5NjYgNTQ2LjA1OTkxMjcxOTEyNTEgTCAyMjEuNjc5NzEzOTUyNzY5MzMgNTQ0LjE5NDQ0MTI2NDY1MzIgTCAyMjMuODM3OTExODE0MDg5MiA1NDIuNDkzMDU1MjU3NTMxMSBMIDIyNi4xMjI5NDU4NzkyNjc1OCA1NDAuOTY2MjQ0MzA4MjYxIEwgMjI4LjUyMDcyODE1MzQ0MTY3IDUzOS42MjM0MjE3MTQwNjE0IEwgMjMxLjAxNjQ3NTUxMTU0NzY3IDUzOC40NzI4NjY0MjI3NTkyIEwgMjMzLjU5NDgwMDg0MTIwMjY3IDUzNy41MjE2NzE5OTAzMjM5IEwgMjM2LjIzOTgwNzkwOTM2OTE1IDUzNi43NzU3MDI4NDY3MzU2IEwgMjM4LjkzNTE4OTM2NzkxNzggNTM2LjIzOTU1ODEzOTgyNDUgTCAyNDEuNjY0MzI3MjkzODUxMyA1MzUuOTE2NTQzMzc5OTk0OCBMIDI0NC40MTAzOTU2NDQzMjU5IDUzNS44MDg2NTAwNjA2NTQzIEwgMjQ3LjE1NjQ2Mzk5NDgwMDQ4IDUzNS45MTY1NDMzNzk5OTQ4IEwgMjQ5Ljg4NTYwMTkyMDczNCA1MzYuMjM5NTU4MTM5ODI0NSBMIDI1Mi41ODA5ODMzNzkyODI2MyA1MzYuNzc1NzAyODQ2NzM1NiBMIDI1NS4yMjU5OTA0NDc0NDkxIDUzNy41MjE2NzE5OTAzMjQgTCAyNTcuODA0MzE1Nzc3MTA0MSA1MzguNDcyODY2NDIyNzU5NCBMIDI2MC4zMDAwNjMxMzUyMTAxIDUzOS42MjM0MjE3MTQwNjE1IEwgMjYyLjY5Nzg0NTQwOTM4NDIgNTQwLjk2NjI0NDMwODI2MTEgTCAyNjQuOTgyODc5NDc0NTYyNTQgNTQyLjQ5MzA1NTI1NzUzMTMgTCAyNjcuMTQxMDc3MzM1ODgyNCA1NDQuMTk0NDQxMjY0NjUzNCBMIDI2OS4xNTkxMzI5ODU4NTUxNCA1NDYuMDU5OTEyNzE5MTI1MiBMIDI3MS4wMjQ2MDQ0NDAzMjcwNCA1NDguMDc3OTY4MzY5MDk4IEwgMjcyLjcyNTk5MDQ0NzQ0OTEzIDU1MC4yMzYxNjYyMzA0MTc5IEwgMjc0LjI1MjgwMTM5NjcxOTIgNTUyLjUyMTIwMDI5NTU5NjQgTCAyNzUuNTk1NjIzOTkwOTE4OCA1NTQuOTE4OTgyNTY5NzcwNCBMIDI3Ni43NDYxNzkyODIyMjA5NiA1NTcuNDE0NzI5OTI3ODc2NSBMIDI3Ny42OTczNzM3MTQ2NTYyNCA1NTkuOTkzMDU1MjU3NTMxNCBMIDI3OC40NDMzNDI4NTgyNDQ1MyA1NjIuNjM4MDYyMzI1Njk3OSBMIDI3OC45Nzk0ODc1NjUxNTU2NCA1NjUuMzMzNDQzNzg0MjQ2NiBMIDI3OS4zMDI1MDIzMjQ5ODUzIDU2OC4wNjI1ODE3MTAxODAxIFoiIHBhaW50LW9yZGVyPSJzdHJva2UgZmlsbCBtYXJrZXJzIiBzdHJva2U9Im5vbmUiIGZpbGw9InJnYigxMjgsMjE2LDI1NSkiLz48dGV4dCBmaWxsLW9wYWNpdHk9IjEiIHRleHQtYW5jaG9yPSJtaWRkbGUiIHk9IjU3OC44MDg2NTAwNjA2NTQzIiB4PSIyNDQuNDEwMzk1NjQ0MzI1NzciIHRleHQtZGVjb3JhdGlvbj0ibm9ybWFsIiBmb250LXdlaWdodD0ibm9ybWFsIiBmb250LXN0eWxlPSJub3JtYWwiIGZvbnQtc2l6ZT0iMTZweCIgZm9udC1mYW1pbHk9IkhlbHZldGljYSBOZXVlLCBIZWx2ZXRpY2EsIHNhbnMtc2VyaWYiIHN0cm9rZT0ibm9uZSIgZmlsbD0icmdiKDAsMCwwKSI+Wmh1b3J1aSBYaWU8L3RleHQ+PHBhdGggZmlsbC1vcGFjaXR5PSIxIiBkPSJNIDU3My42NjU1MzcxOTM4MTMyIDEyNS45NjcxNzc3Njk5Mzc3MyBMIDU3My41NTc2NDM4NzQ0NzI3IDEyOC43MTMyNDYxMjA0MTIzIEwgNTczLjIzNDYyOTExNDY0MyAxMzEuNDQyMzg0MDQ2MzQ1OCBMIDU3Mi42OTg0ODQ0MDc3MzE4IDEzNC4xMzc3NjU1MDQ4OTQ0MiBMIDU3MS45NTI1MTUyNjQxNDM2IDEzNi43ODI3NzI1NzMwNjA5IEwgNTcxLjAwMTMyMDgzMTcwODIgMTM5LjM2MTA5NzkwMjcxNTg3IEwgNTY5Ljg1MDc2NTU0MDQwNjEgMTQxLjg1Njg0NTI2MDgyMTg3IEwgNTY4LjUwNzk0Mjk0NjIwNjQgMTQ0LjI1NDYyNzUzNDk5NTkzIEwgNTY2Ljk4MTEzMTk5NjkzNjQgMTQ2LjUzOTY2MTYwMDE3NDMgTCA1NjUuMjc5NzQ1OTg5ODE0MyAxNDguNjk3ODU5NDYxNDk0MTUgTCA1NjMuNDE0Mjc0NTM1MzQyMyAxNTAuNzE1OTE1MTExNDY2OSBMIDU2MS4zOTYyMTg4ODUzNjk2IDE1Mi41ODEzODY1NjU5Mzg4MyBMIDU1OS4yMzgwMjEwMjQwNDk4IDE1NC4yODI3NzI1NzMwNjA5IEwgNTU2Ljk1Mjk4Njk1ODg3MTQgMTU1LjgwOTU4MzUyMjMzMDk3IEwgNTU0LjU1NTIwNDY4NDY5NzMgMTU3LjE1MjQwNjExNjUzMDYgTCA1NTIuMDU5NDU3MzI2NTkxMyAxNTguMzAyOTYxNDA3ODMyNzUgTCA1NDkuNDgxMTMxOTk2OTM2NCAxNTkuMjU0MTU1ODQwMjY4MSBMIDU0Ni44MzYxMjQ5Mjg3Njk5IDE2MC4wMDAxMjQ5ODM4NTY0IEwgNTQ0LjE0MDc0MzQ3MDIyMTMgMTYwLjUzNjI2OTY5MDc2NzU0IEwgNTQxLjQxMTYwNTU0NDI4NzggMTYwLjg1OTI4NDQ1MDU5NzIyIEwgNTM4LjY2NTUzNzE5MzgxMzIgMTYwLjk2NzE3Nzc2OTkzNzczIEwgNTM1LjkxOTQ2ODg0MzMzODYgMTYwLjg1OTI4NDQ1MDU5NzIyIEwgNTMzLjE5MDMzMDkxNzQwNSAxNjAuNTM2MjY5NjkwNzY3NTQgTCA1MzAuNDk0OTQ5NDU4ODU2NSAxNjAuMDAwMTI0OTgzODU2NCBMIDUyNy44NDk5NDIzOTA2OSAxNTkuMjU0MTU1ODQwMjY4MSBMIDUyNS4yNzE2MTcwNjEwMzUgMTU4LjMwMjk2MTQwNzgzMjc1IEwgNTIyLjc3NTg2OTcwMjkyOTEgMTU3LjE1MjQwNjExNjUzMDYgTCA1MjAuMzc4MDg3NDI4NzU1IDE1NS44MDk1ODM1MjIzMzA5NyBMIDUxOC4wOTMwNTMzNjM1NzY2IDE1NC4yODI3NzI1NzMwNjA5IEwgNTE1LjkzNDg1NTUwMjI1NjcgMTUyLjU4MTM4NjU2NTkzODgzIEwgNTEzLjkxNjc5OTg1MjI4NCAxNTAuNzE1OTE1MTExNDY2OSBMIDUxMi4wNTEzMjgzOTc4MTIxIDE0OC42OTc4NTk0NjE0OTQxOCBMIDUxMC4zNDk5NDIzOTA2OTAwNSAxNDYuNTM5NjYxNjAwMTc0MyBMIDUwOC44MjMxMzE0NDE0MTk5NSAxNDQuMjU0NjI3NTM0OTk1OTYgTCA1MDcuNDgwMzA4ODQ3MjIwMzMgMTQxLjg1Njg0NTI2MDgyMTg3IEwgNTA2LjMyOTc1MzU1NTkxODE2IDEzOS4zNjEwOTc5MDI3MTU4NyBMIDUwNS4zNzg1NTkxMjM0ODI4MyAxMzYuNzgyNzcyNTczMDYwOSBMIDUwNC42MzI1ODk5Nzk4OTQ1IDEzNC4xMzc3NjU1MDQ4OTQ0MiBMIDUwNC4wOTY0NDUyNzI5ODM0IDEzMS40NDIzODQwNDYzNDU4IEwgNTAzLjc3MzQzMDUxMzE1MzcgMTI4LjcxMzI0NjEyMDQxMjMyIEwgNTAzLjY2NTUzNzE5MzgxMzIgMTI1Ljk2NzE3Nzc2OTkzNzczIEwgNTAzLjc3MzQzMDUxMzE1MzcgMTIzLjIyMTEwOTQxOTQ2MzE2IEwgNTA0LjA5NjQ0NTI3Mjk4MzQgMTIwLjQ5MTk3MTQ5MzUyOTY2IEwgNTA0LjYzMjU4OTk3OTg5NDUgMTE3Ljc5NjU5MDAzNDk4MTA1IEwgNTA1LjM3ODU1OTEyMzQ4MjggMTE1LjE1MTU4Mjk2NjgxNDU3IEwgNTA2LjMyOTc1MzU1NTkxODE2IDExMi41NzMyNTc2MzcxNTk2IEwgNTA3LjQ4MDMwODg0NzIyMDMzIDExMC4wNzc1MTAyNzkwNTM2IEwgNTA4LjgyMzEzMTQ0MTQxOTk1IDEwNy42Nzk3MjgwMDQ4Nzk1NCBMIDUxMC4zNDk5NDIzOTA2OSAxMDUuMzk0NjkzOTM5NzAxMTcgTCA1MTIuMDUxMzI4Mzk3ODEyMSAxMDMuMjM2NDk2MDc4MzgxMzEgTCA1MTMuOTE2Nzk5ODUyMjg0IDEwMS4yMTg0NDA0Mjg0MDg1NyBMIDUxNS45MzQ4NTU1MDIyNTY3IDk5LjM1Mjk2ODk3MzkzNjY3IEwgNTE4LjA5MzA1MzM2MzU3NjYgOTcuNjUxNTgyOTY2ODE0NTcgTCA1MjAuMzc4MDg3NDI4NzU1IDk2LjEyNDc3MjAxNzU0NDUgTCA1MjIuNzc1ODY5NzAyOTI5MSA5NC43ODE5NDk0MjMzNDQ4NiBMIDUyNS4yNzE2MTcwNjEwMzUgOTMuNjMxMzk0MTMyMDQyNjkgTCA1MjcuODQ5OTQyMzkwNjkwMSA5Mi42ODAxOTk2OTk2MDczNCBMIDUzMC40OTQ5NDk0NTg4NTY2IDkxLjkzNDIzMDU1NjAxOTAzIEwgNTMzLjE5MDMzMDkxNzQwNTIgOTEuMzk4MDg1ODQ5MTA3OSBMIDUzNS45MTk0Njg4NDMzMzg3IDkxLjA3NTA3MTA4OTI3ODI1IEwgNTM4LjY2NTUzNzE5MzgxMzMgOTAuOTY3MTc3NzY5OTM3NzMgTCA1NDEuNDExNjA1NTQ0Mjg3OSA5MS4wNzUwNzEwODkyNzgyNyBMIDU0NC4xNDA3NDM0NzAyMjE0IDkxLjM5ODA4NTg0OTEwNzkzIEwgNTQ2LjgzNjEyNDkyODc3IDkxLjkzNDIzMDU1NjAxOTA5IEwgNTQ5LjQ4MTEzMTk5NjkzNjUgOTIuNjgwMTk5Njk5NjA3NDEgTCA1NTIuMDU5NDU3MzI2NTkxNSA5My42MzEzOTQxMzIwNDI3NyBMIDU1NC41NTUyMDQ2ODQ2OTc1IDk0Ljc4MTk0OTQyMzM0NDk1IEwgNTU2Ljk1Mjk4Njk1ODg3MTYgOTYuMTI0NzcyMDE3NTQ0NjMgTCA1NTkuMjM4MDIxMDI0MDQ5OSA5Ny42NTE1ODI5NjY4MTQ3MSBMIDU2MS4zOTYyMTg4ODUzNjk4IDk5LjM1Mjk2ODk3MzkzNjgxIEwgNTYzLjQxNDI3NDUzNTM0MjUgMTAxLjIxODQ0MDQyODQwODc3IEwgNTY1LjI3OTc0NTk4OTgxNDUgMTAzLjIzNjQ5NjA3ODM4MTUyIEwgNTY2Ljk4MTEzMTk5NjkzNjUgMTA1LjM5NDY5MzkzOTcwMTQzIEwgNTY4LjUwNzk0Mjk0NjIwNjUgMTA3LjY3OTcyODAwNDg3OTc5IEwgNTY5Ljg1MDc2NTU0MDQwNjIgMTEwLjA3NzUxMDI3OTA1MzkgTCA1NzEuMDAxMzIwODMxNzA4MyAxMTIuNTczMjU3NjM3MTU5OTEgTCA1NzEuOTUyNTE1MjY0MTQzNyAxMTUuMTUxNTgyOTY2ODE0OTEgTCA1NzIuNjk4NDg0NDA3NzMxOSAxMTcuNzk2NTkwMDM0OTgxNDIgTCA1NzMuMjM0NjI5MTE0NjQzMSAxMjAuNDkxOTcxNDkzNTMwMDQgTCA1NzMuNTU3NjQzODc0NDcyNyAxMjMuMjIxMTA5NDE5NDYzNTcgWiIgcGFpbnQtb3JkZXI9InN0cm9rZSBmaWxsIG1hcmtlcnMiIHN0cm9rZT0ibm9uZSIgZmlsbD0icmdiKDEyOCwyMTYsMjU1KSIvPjx0ZXh0IGZpbGwtb3BhY2l0eT0iMSIgdGV4dC1hbmNob3I9Im1pZGRsZSIgeT0iMTMzLjk2NzE3Nzc2OTkzNzczIiB4PSI1MzguNjY1NTM3MTkzODEzMiIgdGV4dC1kZWNvcmF0aW9uPSJub3JtYWwiIGZvbnQtd2VpZ2h0PSJub3JtYWwiIGZvbnQtc3R5bGU9Im5vcm1hbCIgZm9udC1zaXplPSIxNnB4IiBmb250LWZhbWlseT0iSGVsdmV0aWNhIE5ldWUsIEhlbHZldGljYSwgc2Fucy1zZXJpZiIgc3Ryb2tlPSJub25lIiBmaWxsPSJyZ2IoMCwwLDApIj5BZGFtIEMgUmVzbmljazwvdGV4dD48cGF0aCBmaWxsLW9wYWNpdHk9IjEiIGQ9Ik0gNDg1Ljc0MTk5MjYwNjYxMDY3IDYxNy4zNzQ2MTU1NzA4NDkzIEwgNDg1LjYzNDA5OTI4NzI3MDE1IDYyMC4xMjA2ODM5MjEzMjM5IEwgNDg1LjMxMTA4NDUyNzQ0MDQ3IDYyMi44NDk4MjE4NDcyNTc0IEwgNDg0Ljc3NDkzOTgyMDUyOTM3IDYyNS41NDUyMDMzMDU4MDYgTCA0ODQuMDI4OTcwNjc2OTQxIDYyOC4xOTAyMTAzNzM5NzI1IEwgNDgzLjA3Nzc3NjI0NDUwNTcgNjMwLjc2ODUzNTcwMzYyNzQgTCA0ODEuOTI3MjIwOTUzMjAzNSA2MzMuMjY0MjgzMDYxNzMzNCBMIDQ4MC41ODQzOTgzNTkwMDM5IDYzNS42NjIwNjUzMzU5MDc1IEwgNDc5LjA1NzU4NzQwOTczMzg2IDYzNy45NDcwOTk0MDEwODU5IEwgNDc3LjM1NjIwMTQwMjYxMTc2IDY0MC4xMDUyOTcyNjI0MDU4IEwgNDc1LjQ5MDcyOTk0ODEzOTggNjQyLjEyMzM1MjkxMjM3ODQgTCA0NzMuNDcyNjc0Mjk4MTY3MSA2NDMuOTg4ODI0MzY2ODUwNCBMIDQ3MS4zMTQ0NzY0MzY4NDcyIDY0NS42OTAyMTAzNzM5NzI1IEwgNDY5LjAyOTQ0MjM3MTY2ODkgNjQ3LjIxNzAyMTMyMzI0MjUgTCA0NjYuNjMxNjYwMDk3NDk0ODMgNjQ4LjU1OTg0MzkxNzQ0MjIgTCA0NjQuMTM1OTEyNzM5Mzg4OCA2NDkuNzEwMzk5MjA4NzQ0MyBMIDQ2MS41NTc1ODc0MDk3MzM4NiA2NTAuNjYxNTkzNjQxMTc5NyBMIDQ1OC45MTI1ODAzNDE1Njc0IDY1MS40MDc1NjI3ODQ3NjggTCA0NTYuMjE3MTk4ODgzMDE4NzQgNjUxLjk0MzcwNzQ5MTY3OTEgTCA0NTMuNDg4MDYwOTU3MDg1MiA2NTIuMjY2NzIyMjUxNTA4OCBMIDQ1MC43NDE5OTI2MDY2MTA2NyA2NTIuMzc0NjE1NTcwODQ5MyBMIDQ0Ny45OTU5MjQyNTYxMzYxIDY1Mi4yNjY3MjIyNTE1MDg4IEwgNDQ1LjI2Njc4NjMzMDIwMjYgNjUxLjk0MzcwNzQ5MTY3OTEgTCA0NDIuNTcxNDA0ODcxNjUzOTUgNjUxLjQwNzU2Mjc4NDc2OCBMIDQzOS45MjYzOTc4MDM0ODc1MyA2NTAuNjYxNTkzNjQxMTc5NyBMIDQzNy4zNDgwNzI0NzM4MzI1MyA2NDkuNzEwMzk5MjA4NzQ0MyBMIDQzNC44NTIzMjUxMTU3MjY1NiA2NDguNTU5ODQzOTE3NDQyMiBMIDQzMi40NTQ1NDI4NDE1NTI0NCA2NDcuMjE3MDIxMzIzMjQyNSBMIDQzMC4xNjk1MDg3NzYzNzQxMyA2NDUuNjkwMjEwMzczOTcyNSBMIDQyOC4wMTEzMTA5MTUwNTQyNSA2NDMuOTg4ODI0MzY2ODUwNCBMIDQyNS45OTMyNTUyNjUwODE1MyA2NDIuMTIzMzUyOTEyMzc4NCBMIDQyNC4xMjc3ODM4MTA2MDk1NyA2NDAuMTA1Mjk3MjYyNDA1OCBMIDQyMi40MjYzOTc4MDM0ODc1MyA2MzcuOTQ3MDk5NDAxMDg1OSBMIDQyMC44OTk1ODY4NTQyMTc0MyA2MzUuNjYyMDY1MzM1OTA3NSBMIDQxOS41NTY3NjQyNjAwMTc4IDYzMy4yNjQyODMwNjE3MzM0IEwgNDE4LjQwNjIwODk2ODcxNTY1IDYzMC43Njg1MzU3MDM2Mjc0IEwgNDE3LjQ1NTAxNDUzNjI4MDMgNjI4LjE5MDIxMDM3Mzk3MjUgTCA0MTYuNzA5MDQ1MzkyNjkxOTYgNjI1LjU0NTIwMzMwNTgwNiBMIDQxNi4xNzI5MDA2ODU3ODA4NiA2MjIuODQ5ODIxODQ3MjU3NCBMIDQxNS44NDk4ODU5MjU5NTEyIDYyMC4xMjA2ODM5MjEzMjM5IEwgNDE1Ljc0MTk5MjYwNjYxMDY3IDYxNy4zNzQ2MTU1NzA4NDkzIEwgNDE1Ljg0OTg4NTkyNTk1MTIgNjE0LjYyODU0NzIyMDM3NDcgTCA0MTYuMTcyOTAwNjg1NzgwODYgNjExLjg5OTQwOTI5NDQ0MTIgTCA0MTYuNzA5MDQ1MzkyNjkxOTYgNjA5LjIwNDAyNzgzNTg5MjYgTCA0MTcuNDU1MDE0NTM2MjgwMjYgNjA2LjU1OTAyMDc2NzcyNjEgTCA0MTguNDA2MjA4OTY4NzE1NjUgNjAzLjk4MDY5NTQzODA3MTIgTCA0MTkuNTU2NzY0MjYwMDE3OCA2MDEuNDg0OTQ4MDc5OTY1MiBMIDQyMC44OTk1ODY4NTQyMTc0MyA1OTkuMDg3MTY1ODA1NzkxMSBMIDQyMi40MjYzOTc4MDM0ODc1IDU5Ni44MDIxMzE3NDA2MTI3IEwgNDI0LjEyNzc4MzgxMDYwOTU3IDU5NC42NDM5MzM4NzkyOTI4IEwgNDI1Ljk5MzI1NTI2NTA4MTUgNTkyLjYyNTg3ODIyOTMyMDIgTCA0MjguMDExMzEwOTE1MDU0MiA1OTAuNzYwNDA2Nzc0ODQ4MiBMIDQzMC4xNjk1MDg3NzYzNzQxIDU4OS4wNTkwMjA3Njc3MjYxIEwgNDMyLjQ1NDU0Mjg0MTU1MjQ0IDU4Ny41MzIyMDk4MTg0NTYxIEwgNDM0Ljg1MjMyNTExNTcyNjU2IDU4Ni4xODkzODcyMjQyNTY0IEwgNDM3LjM0ODA3MjQ3MzgzMjYgNTg1LjAzODgzMTkzMjk1NDMgTCA0MzkuOTI2Mzk3ODAzNDg3NTMgNTg0LjA4NzYzNzUwMDUxODkgTCA0NDIuNTcxNDA0ODcxNjU0MDcgNTgzLjM0MTY2ODM1NjkzMDcgTCA0NDUuMjY2Nzg2MzMwMjAyNjUgNTgyLjgwNTUyMzY1MDAxOTUgTCA0NDcuOTk1OTI0MjU2MTM2MiA1ODIuNDgyNTA4ODkwMTg5OCBMIDQ1MC43NDE5OTI2MDY2MTA4IDU4Mi4zNzQ2MTU1NzA4NDkzIEwgNDUzLjQ4ODA2MDk1NzA4NTQgNTgyLjQ4MjUwODg5MDE4OTggTCA0NTYuMjE3MTk4ODgzMDE4OSA1ODIuODA1NTIzNjUwMDE5NSBMIDQ1OC45MTI1ODAzNDE1Njc1IDU4My4zNDE2NjgzNTY5MzA3IEwgNDYxLjU1NzU4NzQwOTczMzk3IDU4NC4wODc2Mzc1MDA1MTkgTCA0NjQuMTM1OTEyNzM5Mzg4OTcgNTg1LjAzODgzMTkzMjk1NDMgTCA0NjYuNjMxNjYwMDk3NDk1IDU4Ni4xODkzODcyMjQyNTY1IEwgNDY5LjAyOTQ0MjM3MTY2OTA2IDU4Ny41MzIyMDk4MTg0NTYyIEwgNDcxLjMxNDQ3NjQzNjg0NzQzIDU4OS4wNTkwMjA3Njc3MjYzIEwgNDczLjQ3MjY3NDI5ODE2NzMgNTkwLjc2MDQwNjc3NDg0ODQgTCA0NzUuNDkwNzI5OTQ4MTQwMDMgNTkyLjYyNTg3ODIyOTMyMDMgTCA0NzcuMzU2MjAxNDAyNjExOTMgNTk0LjY0MzkzMzg3OTI5MzEgTCA0NzkuMDU3NTg3NDA5NzM0IDU5Ni44MDIxMzE3NDA2MTI5IEwgNDgwLjU4NDM5ODM1OTAwNDA3IDU5OS4wODcxNjU4MDU3OTE0IEwgNDgxLjkyNzIyMDk1MzIwMzcgNjAxLjQ4NDk0ODA3OTk2NTQgTCA0ODMuMDc3Nzc2MjQ0NTA1ODYgNjAzLjk4MDY5NTQzODA3MTUgTCA0ODQuMDI4OTcwNjc2OTQxMSA2MDYuNTU5MDIwNzY3NzI2NSBMIDQ4NC43NzQ5Mzk4MjA1Mjk0IDYwOS4yMDQwMjc4MzU4OTI5IEwgNDg1LjMxMTA4NDUyNzQ0MDUgNjExLjg5OTQwOTI5NDQ0MTYgTCA0ODUuNjM0MDk5Mjg3MjcwMTUgNjE0LjYyODU0NzIyMDM3NTEgWiIgcGFpbnQtb3JkZXI9InN0cm9rZSBmaWxsIG1hcmtlcnMiIHN0cm9rZT0ibm9uZSIgZmlsbD0icmdiKDEyOCwyMTYsMjU1KSIvPjx0ZXh0IGZpbGwtb3BhY2l0eT0iMSIgdGV4dC1hbmNob3I9Im1pZGRsZSIgeT0iNjI1LjM3NDYxNTU3MDg0OTMiIHg9IjQ1MC43NDE5OTI2MDY2MTA2NyIgdGV4dC1kZWNvcmF0aW9uPSJub3JtYWwiIGZvbnQtd2VpZ2h0PSJub3JtYWwiIGZvbnQtc3R5bGU9Im5vcm1hbCIgZm9udC1zaXplPSIxNnB4IiBmb250LWZhbWlseT0iSGVsdmV0aWNhIE5ldWUsIEhlbHZldGljYSwgc2Fucy1zZXJpZiIgc3Ryb2tlPSJub25lIiBmaWxsPSJyZ2IoMCwwLDApIj5XZWlwaW5nIE1hPC90ZXh0PjxwYXRoIGZpbGwtb3BhY2l0eT0iMSIgZD0iTSAyMDUuOTk1MDczNTQ2MDg1MjIgNzEwLjAxODkwNDc5NzM2OCBMIDIwNS44ODcxODAyMjY3NDQ3IDcxMi43NjQ5NzMxNDc4NDI2IEwgMjA1LjU2NDE2NTQ2NjkxNTAzIDcxNS40OTQxMTEwNzM3NzYxIEwgMjA1LjAyODAyMDc2MDAwMzkgNzE4LjE4OTQ5MjUzMjMyNDcgTCAyMDQuMjgyMDUxNjE2NDE1NiA3MjAuODM0NDk5NjAwNDkxMiBMIDIwMy4zMzA4NTcxODM5ODAyNCA3MjMuNDEyODI0OTMwMTQ2MSBMIDIwMi4xODAzMDE4OTI2NzgxIDcyNS45MDg1NzIyODgyNTIxIEwgMjAwLjgzNzQ3OTI5ODQ3ODQ2IDcyOC4zMDYzNTQ1NjI0MjYyIEwgMTk5LjMxMDY2ODM0OTIwODM4IDczMC41OTEzODg2Mjc2MDQ2IEwgMTk3LjYwOTI4MjM0MjA4NjMyIDczMi43NDk1ODY0ODg5MjQ1IEwgMTk1Ljc0MzgxMDg4NzYxNDQgNzM0Ljc2NzY0MjEzODg5NzEgTCAxOTMuNzI1NzU1MjM3NjQxNjQgNzM2LjYzMzExMzU5MzM2OTEgTCAxOTEuNTY3NTU3Mzc2MzIxOCA3MzguMzM0NDk5NjAwNDkxMiBMIDE4OS4yODI1MjMzMTExNDM0NSA3MzkuODYxMzEwNTQ5NzYxMiBMIDE4Ni44ODQ3NDEwMzY5NjkzNiA3NDEuMjA0MTMzMTQzOTYwOSBMIDE4NC4zODg5OTM2Nzg4NjMzNiA3NDIuMzU0Njg4NDM1MjYzIEwgMTgxLjgxMDY2ODM0OTIwODM4IDc0My4zMDU4ODI4Njc2OTg0IEwgMTc5LjE2NTY2MTI4MTA0MTkgNzQ0LjA1MTg1MjAxMTI4NjcgTCAxNzYuNDcwMjc5ODIyNDkzMyA3NDQuNTg3OTk2NzE4MTk3OCBMIDE3My43NDExNDE4OTY1NTk4IDc0NC45MTEwMTE0NzgwMjc1IEwgMTcwLjk5NTA3MzU0NjA4NTIyIDc0NS4wMTg5MDQ3OTczNjggTCAxNjguMjQ5MDA1MTk1NjEwNjYgNzQ0LjkxMTAxMTQ3ODAyNzUgTCAxNjUuNTE5ODY3MjY5Njc3MTUgNzQ0LjU4Nzk5NjcxODE5NzggTCAxNjIuODI0NDg1ODExMTI4NTQgNzQ0LjA1MTg1MjAxMTI4NjcgTCAxNjAuMTc5NDc4NzQyOTYyMDYgNzQzLjMwNTg4Mjg2NzY5ODQgTCAxNTcuNjAxMTUzNDEzMzA3MSA3NDIuMzU0Njg4NDM1MjYzIEwgMTU1LjEwNTQwNjA1NTIwMTEgNzQxLjIwNDEzMzE0Mzk2MDkgTCAxNTIuNzA3NjIzNzgxMDI3MDIgNzM5Ljg2MTMxMDU0OTc2MTIgTCAxNTAuNDIyNTg5NzE1ODQ4NjYgNzM4LjMzNDQ5OTYwMDQ5MTIgTCAxNDguMjY0MzkxODU0NTI4OCA3MzYuNjMzMTEzNTkzMzY5MSBMIDE0Ni4yNDYzMzYyMDQ1NTYwNiA3MzQuNzY3NjQyMTM4ODk3MSBMIDE0NC4zODA4NjQ3NTAwODQxMyA3MzIuNzQ5NTg2NDg4OTI0NSBMIDE0Mi42Nzk0Nzg3NDI5NjIwNiA3MzAuNTkxMzg4NjI3NjA0NiBMIDE0MS4xNTI2Njc3OTM2OTIgNzI4LjMwNjM1NDU2MjQyNjIgTCAxMzkuODA5ODQ1MTk5NDkyMzQgNzI1LjkwODU3MjI4ODI1MjEgTCAxMzguNjU5Mjg5OTA4MTkwMiA3MjMuNDEyODI0OTMwMTQ2MSBMIDEzNy43MDgwOTU0NzU3NTQ4NSA3MjAuODM0NDk5NjAwNDkxMiBMIDEzNi45NjIxMjYzMzIxNjY1NSA3MTguMTg5NDkyNTMyMzI0NyBMIDEzNi40MjU5ODE2MjUyNTU0MiA3MTUuNDk0MTExMDczNzc2MSBMIDEzNi4xMDI5NjY4NjU0MjU3NCA3MTIuNzY0OTczMTQ3ODQyNiBMIDEzNS45OTUwNzM1NDYwODUyMiA3MTAuMDE4OTA0Nzk3MzY4IEwgMTM2LjEwMjk2Njg2NTQyNTc0IDcwNy4yNzI4MzY0NDY4OTM0IEwgMTM2LjQyNTk4MTYyNTI1NTQyIDcwNC41NDM2OTg1MjA5NTk5IEwgMTM2Ljk2MjEyNjMzMjE2NjU1IDcwMS44NDgzMTcwNjI0MTEzIEwgMTM3LjcwODA5NTQ3NTc1NDg1IDY5OS4yMDMzMDk5OTQyNDQ4IEwgMTM4LjY1OTI4OTkwODE5MDE3IDY5Ni42MjQ5ODQ2NjQ1ODk5IEwgMTM5LjgwOTg0NTE5OTQ5MjM0IDY5NC4xMjkyMzczMDY0ODM5IEwgMTQxLjE1MjY2Nzc5MzY5MiA2OTEuNzMxNDU1MDMyMzA5OCBMIDE0Mi42Nzk0Nzg3NDI5NjIwNiA2ODkuNDQ2NDIwOTY3MTMxNCBMIDE0NC4zODA4NjQ3NTAwODQxMyA2ODcuMjg4MjIzMTA1ODExNSBMIDE0Ni4yNDYzMzYyMDQ1NTYwNiA2ODUuMjcwMTY3NDU1ODM4OSBMIDE0OC4yNjQzOTE4NTQ1Mjg3OCA2ODMuNDA0Njk2MDAxMzY2OSBMIDE1MC40MjI1ODk3MTU4NDg2NiA2ODEuNzAzMzA5OTk0MjQ0OCBMIDE1Mi43MDc2MjM3ODEwMjcwMiA2ODAuMTc2NDk5MDQ0OTc0OCBMIDE1NS4xMDU0MDYwNTUyMDExMiA2NzguODMzNjc2NDUwNzc1MSBMIDE1Ny42MDExNTM0MTMzMDcxMiA2NzcuNjgzMTIxMTU5NDczIEwgMTYwLjE3OTQ3ODc0Mjk2MjEyIDY3Ni43MzE5MjY3MjcwMzc2IEwgMTYyLjgyNDQ4NTgxMTEyODYgNjc1Ljk4NTk1NzU4MzQ0OTQgTCAxNjUuNTE5ODY3MjY5Njc3MjMgNjc1LjQ0OTgxMjg3NjUzODIgTCAxNjguMjQ5MDA1MTk1NjEwNzUgNjc1LjEyNjc5ODExNjcwODUgTCAxNzAuOTk1MDczNTQ2MDg1MzQgNjc1LjAxODkwNDc5NzM2OCBMIDE3My43NDExNDE4OTY1NTk5MiA2NzUuMTI2Nzk4MTE2NzA4NSBMIDE3Ni40NzAyNzk4MjI0OTM0NCA2NzUuNDQ5ODEyODc2NTM4MiBMIDE3OS4xNjU2NjEyODEwNDIwOCA2NzUuOTg1OTU3NTgzNDQ5NCBMIDE4MS44MTA2NjgzNDkyMDg1NiA2NzYuNzMxOTI2NzI3MDM3NyBMIDE4NC4zODg5OTM2Nzg4NjM1NiA2NzcuNjgzMTIxMTU5NDczMSBMIDE4Ni44ODQ3NDEwMzY5Njk1NiA2NzguODMzNjc2NDUwNzc1MiBMIDE4OS4yODI1MjMzMTExNDM2MiA2ODAuMTc2NDk5MDQ0OTc0OSBMIDE5MS41Njc1NTczNzYzMjIgNjgxLjcwMzMwOTk5NDI0NSBMIDE5My43MjU3NTUyMzc2NDE4MyA2ODMuNDA0Njk2MDAxMzY3MSBMIDE5NS43NDM4MTA4ODc2MTQ2IDY4NS4yNzAxNjc0NTU4MzkgTCAxOTcuNjA5MjgyMzQyMDg2NSA2ODcuMjg4MjIzMTA1ODExOCBMIDE5OS4zMTA2NjgzNDkyMDg1NiA2ODkuNDQ2NDIwOTY3MTMxNiBMIDIwMC44Mzc0NzkyOTg0Nzg2MyA2OTEuNzMxNDU1MDMyMzEwMSBMIDIwMi4xODAzMDE4OTI2NzgyNCA2OTQuMTI5MjM3MzA2NDg0MSBMIDIwMy4zMzA4NTcxODM5ODAzOCA2OTYuNjI0OTg0NjY0NTkwMiBMIDIwNC4yODIwNTE2MTY0MTU3IDY5OS4yMDMzMDk5OTQyNDUyIEwgMjA1LjAyODAyMDc2MDAwMzk4IDcwMS44NDgzMTcwNjI0MTE2IEwgMjA1LjU2NDE2NTQ2NjkxNTEgNzA0LjU0MzY5ODUyMDk2MDMgTCAyMDUuODg3MTgwMjI2NzQ0NzMgNzA3LjI3MjgzNjQ0Njg5MzggWiIgcGFpbnQtb3JkZXI9InN0cm9rZSBmaWxsIG1hcmtlcnMiIHN0cm9rZT0ibm9uZSIgZmlsbD0icmdiKDEyOCwyMTYsMjU1KSIvPjx0ZXh0IGZpbGwtb3BhY2l0eT0iMSIgdGV4dC1hbmNob3I9Im1pZGRsZSIgeT0iNzE4LjAxODkwNDc5NzM2OCIgeD0iMTcwLjk5NTA3MzU0NjA4NTIyIiB0ZXh0LWRlY29yYXRpb249Im5vcm1hbCIgZm9udC13ZWlnaHQ9Im5vcm1hbCIgZm9udC1zdHlsZT0ibm9ybWFsIiBmb250LXNpemU9IjE2cHgiIGZvbnQtZmFtaWx5PSJIZWx2ZXRpY2EgTmV1ZSwgSGVsdmV0aWNhLCBzYW5zLXNlcmlmIiBzdHJva2U9Im5vbmUiIGZpbGw9InJnYigwLDAsMCkiPkRtaXRyeSBSeWt1bm92PC90ZXh0PjxwYXRoIGZpbGwtb3BhY2l0eT0iMSIgZD0iTSA3MCA0MzAuMDA1MTg3NjYwMDcwNCBMIDY5Ljg5MjEwNjY4MDY1OTQ4IDQzMi43NTEyNTYwMTA1NDUgTCA2OS41NjkwOTE5MjA4Mjk4MiA0MzUuNDgwMzkzOTM2NDc4NSBMIDY5LjAzMjk0NzIxMzkxODY3IDQzOC4xNzU3NzUzOTUwMjcxMyBMIDY4LjI4Njk3ODA3MDMzMDM4IDQ0MC44MjA3ODI0NjMxOTM1NSBMIDY3LjMzNTc4MzYzNzg5NTAzIDQ0My4zOTkxMDc3OTI4NDg1NSBMIDY2LjE4NTIyODM0NjU5Mjg4IDQ0NS44OTQ4NTUxNTA5NTQ1IEwgNjQuODQyNDA1NzUyMzkzMjMgNDQ4LjI5MjYzNzQyNTEyODY1IEwgNjMuMzE1NTk0ODAzMTIzMTYgNDUwLjU3NzY3MTQ5MDMwNjk1IEwgNjEuNjE0MjA4Nzk2MDAxMDggNDUyLjczNTg2OTM1MTYyNjgzIEwgNTkuNzQ4NzM3MzQxNTI5MTY0IDQ1NC43NTM5MjUwMDE1OTk1NSBMIDU3LjczMDY4MTY5MTU1NjQzIDQ1Ni42MTkzOTY0NTYwNzE1IEwgNTUuNTcyNDgzODMwMjM2NTY0IDQ1OC4zMjA3ODI0NjMxOTM2IEwgNTMuMjg3NDQ5NzY1MDU4MjEgNDU5Ljg0NzU5MzQxMjQ2MzY1IEwgNTAuODg5NjY3NDkwODg0MTM2IDQ2MS4xOTA0MTYwMDY2NjMyNyBMIDQ4LjM5MzkyMDEzMjc3ODE0IDQ2Mi4zNDA5NzEyOTc5NjU0NCBMIDQ1LjgxNTU5NDgwMzEyMzE2IDQ2My4yOTIxNjU3MzA0MDA3NyBMIDQzLjE3MDU4NzczNDk1NjY5IDQ2NC4wMzgxMzQ4NzM5ODkxIEwgNDAuNDc1MjA2Mjc2NDA4MDggNDY0LjU3NDI3OTU4MDkwMDIgTCAzNy43NDYwNjgzNTA0NzQ1NyA0NjQuODk3Mjk0MzQwNzI5OSBMIDM1IDQ2NS4wMDUxODc2NjAwNzA0IEwgMzIuMjUzOTMxNjQ5NTI1NDMgNDY0Ljg5NzI5NDM0MDcyOTkgTCAyOS41MjQ3OTM3MjM1OTE5MiA0NjQuNTc0Mjc5NTgwOTAwMiBMIDI2LjgyOTQxMjI2NTA0MzMxMyA0NjQuMDM4MTM0ODczOTg5MSBMIDI0LjE4NDQwNTE5Njg3Njg0NSA0NjMuMjkyMTY1NzMwNDAwOCBMIDIxLjYwNjA3OTg2NzIyMTg1OCA0NjIuMzQwOTcxMjk3OTY1NDQgTCAxOS4xMTAzMzI1MDkxMTU4NjQgNDYxLjE5MDQxNjAwNjY2MzI3IEwgMTYuNzEyNTUwMjM0OTQxNzkgNDU5Ljg0NzU5MzQxMjQ2MzY1IEwgMTQuNDI3NTE2MTY5NzYzNDQzIDQ1OC4zMjA3ODI0NjMxOTM2IEwgMTIuMjY5MzE4MzA4NDQzNTc3IDQ1Ni42MTkzOTY0NTYwNzE1IEwgMTAuMjUxMjYyNjU4NDcwODQgNDU0Ljc1MzkyNTAwMTU5OTU1IEwgOC4zODU3OTEyMDM5OTg5MTcgNDUyLjczNTg2OTM1MTYyNjgzIEwgNi42ODQ0MDUxOTY4NzY4NDIgNDUwLjU3NzY3MTQ5MDMwNyBMIDUuMTU3NTk0MjQ3NjA2Nzc0IDQ0OC4yOTI2Mzc0MjUxMjg2NSBMIDMuODE0NzcxNjUzNDA3MTI4IDQ0NS44OTQ4NTUxNTA5NTQ2IEwgMi42NjQyMTYzNjIxMDQ5NjYgNDQzLjM5OTEwNzc5Mjg0ODU1IEwgMS43MTMwMjE5Mjk2Njk2Mjk2IDQ0MC44MjA3ODI0NjMxOTM2IEwgMC45NjcwNTI3ODYwODEzMTgxIDQzOC4xNzU3NzUzOTUwMjcxMyBMIDAuNDMwOTA4MDc5MTcwMTgwMjYgNDM1LjQ4MDM5MzkzNjQ3ODUgTCAwLjEwNzg5MzMxOTM0MDUxOTE2IDQzMi43NTEyNTYwMTA1NDUgTCAwIDQzMC4wMDUxODc2NjAwNzA0IEwgMC4xMDc4OTMzMTkzNDA1MTkxNiA0MjcuMjU5MTE5MzA5NTk1ODYgTCAwLjQzMDkwODA3OTE3MDE4MDI2IDQyNC41Mjk5ODEzODM2NjIzNSBMIDAuOTY3MDUyNzg2MDgxMzE4MSA0MjEuODM0NTk5OTI1MTEzNyBMIDEuNzEzMDIxOTI5NjY5NjIyNSA0MTkuMTg5NTkyODU2OTQ3MyBMIDIuNjY0MjE2MzYyMTA0OTU5IDQxNi42MTEyNjc1MjcyOTIzIEwgMy44MTQ3NzE2NTM0MDcxMjQzIDQxNC4xMTU1MjAxNjkxODYzIEwgNS4xNTc1OTQyNDc2MDY3NyA0MTEuNzE3NzM3ODk1MDEyMiBMIDYuNjg0NDA1MTk2ODc2ODM4IDQwOS40MzI3MDM4Mjk4MzM5IEwgOC4zODU3OTEyMDM5OTg5MTMgNDA3LjI3NDUwNTk2ODUxNCBMIDEwLjI1MTI2MjY1ODQ3MDgzMiA0MDUuMjU2NDUwMzE4NTQxMyBMIDEyLjI2OTMxODMwODQ0MzU1NSA0MDMuMzkwOTc4ODY0MDY5MyBMIDE0LjQyNzUxNjE2OTc2MzQzNiA0MDEuNjg5NTkyODU2OTQ3MyBMIDE2LjcxMjU1MDIzNDk0MTggNDAwLjE2Mjc4MTkwNzY3NzIgTCAxOS4xMTAzMzI1MDkxMTU4ODUgMzk4LjgxOTk1OTMxMzQ3NzUgTCAyMS42MDYwNzk4NjcyMjE4OTcgMzk3LjY2OTQwNDAyMjE3NTQgTCAyNC4xODQ0MDUxOTY4NzY4OTUgMzk2LjcxODIwOTU4OTc0IEwgMjYuODI5NDEyMjY1MDQzMzggMzk1Ljk3MjI0MDQ0NjE1MTcgTCAyOS41MjQ3OTM3MjM1OTIwMDUgMzk1LjQzNjA5NTczOTI0MDYgTCAzMi4yNTM5MzE2NDk1MjU1MjYgMzk1LjExMzA4MDk3OTQxMDk0IEwgMzUuMDAwMDAwMDAwMDAwMTIgMzk1LjAwNTE4NzY2MDA3MDQgTCAzNy43NDYwNjgzNTA0NzQ3MSAzOTUuMTEzMDgwOTc5NDEwOTQgTCA0MC40NzUyMDYyNzY0MDgyMyAzOTUuNDM2MDk1NzM5MjQwNiBMIDQzLjE3MDU4NzczNDk1Njg1IDM5NS45NzIyNDA0NDYxNTE4IEwgNDUuODE1NTk0ODAzMTIzMzMgMzk2LjcxODIwOTU4OTc0MDEgTCA0OC4zOTM5MjAxMzI3NzgzMiAzOTcuNjY5NDA0MDIyMTc1NDYgTCA1MC44ODk2Njc0OTA4ODQzMiAzOTguODE5OTU5MzEzNDc3NiBMIDUzLjI4NzQ0OTc2NTA1ODQgNDAwLjE2Mjc4MTkwNzY3NzMgTCA1NS41NzI0ODM4MzAyMzY3NTYgNDAxLjY4OTU5Mjg1Njk0NzQgTCA1Ny43MzA2ODE2OTE1NTY2MjYgNDAzLjM5MDk3ODg2NDA2OTUgTCA1OS43NDg3MzczNDE1MjkzNTYgNDA1LjI1NjQ1MDMxODU0MTQ1IEwgNjEuNjE0MjA4Nzk2MDAxMjY1IDQwNy4yNzQ1MDU5Njg1MTQyMyBMIDYzLjMxNTU5NDgwMzEyMzM0IDQwOS40MzI3MDM4Mjk4MzQxIEwgNjQuODQyNDA1NzUyMzkzMzkgNDExLjcxNzczNzg5NTAxMjUgTCA2Ni4xODUyMjgzNDY1OTMwMiA0MTQuMTE1NTIwMTY5MTg2NiBMIDY3LjMzNTc4MzYzNzg5NTE2IDQxNi42MTEyNjc1MjcyOTI2IEwgNjguMjg2OTc4MDcwMzMwNDkgNDE5LjE4OTU5Mjg1Njk0NzYgTCA2OS4wMzI5NDcyMTM5MTg3NiA0MjEuODM0NTk5OTI1MTE0MSBMIDY5LjU2OTA5MTkyMDgyOTg5IDQyNC41Mjk5ODEzODM2NjI3NCBMIDY5Ljg5MjEwNjY4MDY1OTUxIDQyNy4yNTkxMTkzMDk1OTYyNiBaIiBwYWludC1vcmRlcj0ic3Ryb2tlIGZpbGwgbWFya2VycyIgc3Ryb2tlPSJub25lIiBmaWxsPSJyZ2IoMTI4LDIxNiwyNTUpIi8+PHRleHQgZmlsbC1vcGFjaXR5PSIxIiB0ZXh0LWFuY2hvcj0ibWlkZGxlIiB5PSI0MzguMDA1MTg3NjYwMDcwNCIgeD0iMzUiIHRleHQtZGVjb3JhdGlvbj0ibm9ybWFsIiBmb250LXdlaWdodD0ibm9ybWFsIiBmb250LXN0eWxlPSJub3JtYWwiIGZvbnQtc2l6ZT0iMTZweCIgZm9udC1mYW1pbHk9IkhlbHZldGljYSBOZXVlLCBIZWx2ZXRpY2EsIHNhbnMtc2VyaWYiIHN0cm9rZT0ibm9uZSIgZmlsbD0icmdiKDAsMCwwKSI+SmFyZWQgTCBKb2huc29uPC90ZXh0PjxwYXRoIGZpbGwtb3BhY2l0eT0iMSIgZD0iTSA2NDkuNTQ1ODE3NTg1MzI0NiA0MDcuNjE3MDk5NDcwNjk4OCBMIDY0OS40Mzc5MjQyNjU5ODQxIDQxMC4zNjMxNjc4MjExNzMzNiBMIDY0OS4xMTQ5MDk1MDYxNTQ0IDQxMy4wOTIzMDU3NDcxMDY5IEwgNjQ4LjU3ODc2NDc5OTI0MzIgNDE1Ljc4NzY4NzIwNTY1NTUgTCA2NDcuODMyNzk1NjU1NjU1IDQxOC40MzI2OTQyNzM4MjE5NCBMIDY0Ni44ODE2MDEyMjMyMTk2IDQyMS4wMTEwMTk2MDM0NzY5NCBMIDY0NS43MzEwNDU5MzE5MTc1IDQyMy41MDY3NjY5NjE1ODI5IEwgNjQ0LjM4ODIyMzMzNzcxNzggNDI1LjkwNDU0OTIzNTc1NzAzIEwgNjQyLjg2MTQxMjM4ODQ0NzggNDI4LjE4OTU4MzMwMDkzNTM0IEwgNjQxLjE2MDAyNjM4MTMyNTcgNDMwLjM0Nzc4MTE2MjI1NTIgTCA2MzkuMjk0NTU0OTI2ODUzNyA0MzIuMzY1ODM2ODEyMjI3OTQgTCA2MzcuMjc2NDk5Mjc2ODgxIDQzNC4yMzEzMDgyNjY2OTk5IEwgNjM1LjExODMwMTQxNTU2MTIgNDM1LjkzMjY5NDI3MzgyMiBMIDYzMi44MzMyNjczNTAzODI4IDQzNy40NTk1MDUyMjMwOTIwNCBMIDYzMC40MzU0ODUwNzYyMDg3IDQzOC44MDIzMjc4MTcyOTE2NSBMIDYyNy45Mzk3Mzc3MTgxMDI3IDQzOS45NTI4ODMxMDg1OTM4IEwgNjI1LjM2MTQxMjM4ODQ0NzggNDQwLjkwNDA3NzU0MTAyOTE1IEwgNjIyLjcxNjQwNTMyMDI4MTMgNDQxLjY1MDA0NjY4NDYxNzUgTCA2MjAuMDIxMDIzODYxNzMyNyA0NDIuMTg2MTkxMzkxNTI4NiBMIDYxNy4yOTE4ODU5MzU3OTkyIDQ0Mi41MDkyMDYxNTEzNTgzIEwgNjE0LjU0NTgxNzU4NTMyNDYgNDQyLjYxNzA5OTQ3MDY5ODggTCA2MTEuNzk5NzQ5MjM0ODUgNDQyLjUwOTIwNjE1MTM1ODMgTCA2MDkuMDcwNjExMzA4OTE2NSA0NDIuMTg2MTkxMzkxNTI4NiBMIDYwNi4zNzUyMjk4NTAzNjc5IDQ0MS42NTAwNDY2ODQ2MTc1IEwgNjAzLjczMDIyMjc4MjIwMTQgNDQwLjkwNDA3NzU0MTAyOTIgTCA2MDEuMTUxODk3NDUyNTQ2NSA0MzkuOTUyODgzMTA4NTkzOCBMIDU5OC42NTYxNTAwOTQ0NDA1IDQzOC44MDIzMjc4MTcyOTE2NSBMIDU5Ni4yNTgzNjc4MjAyNjY0IDQzNy40NTk1MDUyMjMwOTIwNCBMIDU5My45NzMzMzM3NTUwODggNDM1LjkzMjY5NDI3MzgyMiBMIDU5MS44MTUxMzU4OTM3NjgxIDQzNC4yMzEzMDgyNjY2OTk5IEwgNTg5Ljc5NzA4MDI0Mzc5NTQgNDMyLjM2NTgzNjgxMjIyNzk0IEwgNTg3LjkzMTYwODc4OTMyMzUgNDMwLjM0Nzc4MTE2MjI1NTIgTCA1ODYuMjMwMjIyNzgyMjAxNCA0MjguMTg5NTgzMzAwOTM1NCBMIDU4NC43MDM0MTE4MzI5MzE0IDQyNS45MDQ1NDkyMzU3NTcwMyBMIDU4My4zNjA1ODkyMzg3MzE3IDQyMy41MDY3NjY5NjE1ODI5NyBMIDU4Mi4yMTAwMzM5NDc0Mjk2IDQyMS4wMTEwMTk2MDM0NzY5NCBMIDU4MS4yNTg4Mzk1MTQ5OTQyIDQxOC40MzI2OTQyNzM4MjIgTCA1ODAuNTEyODcwMzcxNDA1OSA0MTUuNzg3Njg3MjA1NjU1NSBMIDU3OS45NzY3MjU2NjQ0OTQ4IDQxMy4wOTIzMDU3NDcxMDY5IEwgNTc5LjY1MzcxMDkwNDY2NTEgNDEwLjM2MzE2NzgyMTE3MzM2IEwgNTc5LjU0NTgxNzU4NTMyNDYgNDA3LjYxNzA5OTQ3MDY5ODggTCA1NzkuNjUzNzEwOTA0NjY1MSA0MDQuODcxMDMxMTIwMjI0MjUgTCA1NzkuOTc2NzI1NjY0NDk0OCA0MDIuMTQxODkzMTk0MjkwNzMgTCA1ODAuNTEyODcwMzcxNDA1OSAzOTkuNDQ2NTExNzM1NzQyMSBMIDU4MS4yNTg4Mzk1MTQ5OTQyIDM5Ni44MDE1MDQ2Njc1NzU2NyBMIDU4Mi4yMTAwMzM5NDc0Mjk2IDM5NC4yMjMxNzkzMzc5MjA2NyBMIDU4My4zNjA1ODkyMzg3MzE3IDM5MS43Mjc0MzE5Nzk4MTQ3IEwgNTg0LjcwMzQxMTgzMjkzMTQgMzg5LjMyOTY0OTcwNTY0MDYgTCA1ODYuMjMwMjIyNzgyMjAxNCAzODcuMDQ0NjE1NjQwNDYyMjcgTCA1ODcuOTMxNjA4Nzg5MzIzNSAzODQuODg2NDE3Nzc5MTQyNCBMIDU4OS43OTcwODAyNDM3OTU0IDM4Mi44NjgzNjIxMjkxNjk2NyBMIDU5MS44MTUxMzU4OTM3NjgxIDM4MS4wMDI4OTA2NzQ2OTc3IEwgNTkzLjk3MzMzMzc1NTA4OCAzNzkuMzAxNTA0NjY3NTc1NjcgTCA1OTYuMjU4MzY3ODIwMjY2NCAzNzcuNzc0NjkzNzE4MzA1NTcgTCA1OTguNjU2MTUwMDk0NDQwNSAzNzYuNDMxODcxMTI0MTA1OSBMIDYwMS4xNTE4OTc0NTI1NDY1IDM3NS4yODEzMTU4MzI4MDM4IEwgNjAzLjczMDIyMjc4MjIwMTUgMzc0LjMzMDEyMTQwMDM2ODQgTCA2MDYuMzc1MjI5ODUwMzY4IDM3My41ODQxNTIyNTY3ODAxIEwgNjA5LjA3MDYxMTMwODkxNjYgMzczLjA0ODAwNzU0OTg2OSBMIDYxMS43OTk3NDkyMzQ4NTAxIDM3Mi43MjQ5OTI3OTAwMzkzIEwgNjE0LjU0NTgxNzU4NTMyNDcgMzcyLjYxNzA5OTQ3MDY5ODggTCA2MTcuMjkxODg1OTM1Nzk5MyAzNzIuNzI0OTkyNzkwMDM5MyBMIDYyMC4wMjEwMjM4NjE3MzI4IDM3My4wNDgwMDc1NDk4NjkgTCA2MjIuNzE2NDA1MzIwMjgxNCAzNzMuNTg0MTUyMjU2NzgwMTYgTCA2MjUuMzYxNDEyMzg4NDQ3OSAzNzQuMzMwMTIxNDAwMzY4NSBMIDYyNy45Mzk3Mzc3MTgxMDMgMzc1LjI4MTMxNTgzMjgwMzg0IEwgNjMwLjQzNTQ4NTA3NjIwODkgMzc2LjQzMTg3MTEyNDEwNiBMIDYzMi44MzMyNjczNTAzODMgMzc3Ljc3NDY5MzcxODMwNTcgTCA2MzUuMTE4MzAxNDE1NTYxMyAzNzkuMzAxNTA0NjY3NTc1OCBMIDYzNy4yNzY0OTkyNzY4ODEyIDM4MS4wMDI4OTA2NzQ2OTc5IEwgNjM5LjI5NDU1NDkyNjg1NCAzODIuODY4MzYyMTI5MTY5ODQgTCA2NDEuMTYwMDI2MzgxMzI1OSAzODQuODg2NDE3Nzc5MTQyNiBMIDY0Mi44NjE0MTIzODg0NDc5IDM4Ny4wNDQ2MTU2NDA0NjI1IEwgNjQ0LjM4ODIyMzMzNzcxNzkgMzg5LjMyOTY0OTcwNTY0MDg2IEwgNjQ1LjczMTA0NTkzMTkxNzYgMzkxLjcyNzQzMTk3OTgxNSBMIDY0Ni44ODE2MDEyMjMyMTk3IDM5NC4yMjMxNzkzMzc5MjEgTCA2NDcuODMyNzk1NjU1NjU1MSAzOTYuODAxNTA0NjY3NTc2IEwgNjQ4LjU3ODc2NDc5OTI0MzMgMzk5LjQ0NjUxMTczNTc0MjUgTCA2NDkuMTE0OTA5NTA2MTU0NSA0MDIuMTQxODkzMTk0MjkxMTMgTCA2NDkuNDM3OTI0MjY1OTg0MSA0MDQuODcxMDMxMTIwMjI0NjQgWiIgcGFpbnQtb3JkZXI9InN0cm9rZSBmaWxsIG1hcmtlcnMiIHN0cm9rZT0ibm9uZSIgZmlsbD0icmdiKDEyOCwyMTYsMjU1KSIvPjx0ZXh0IGZpbGwtb3BhY2l0eT0iMSIgdGV4dC1hbmNob3I9Im1pZGRsZSIgeT0iNDE1LjYxNzA5OTQ3MDY5ODgiIHg9IjYxNC41NDU4MTc1ODUzMjQ2IiB0ZXh0LWRlY29yYXRpb249Im5vcm1hbCIgZm9udC13ZWlnaHQ9Im5vcm1hbCIgZm9udC1zdHlsZT0ibm9ybWFsIiBmb250LXNpemU9IjE2cHgiIGZvbnQtZmFtaWx5PSJIZWx2ZXRpY2EgTmV1ZSwgSGVsdmV0aWNhLCBzYW5zLXNlcmlmIiBzdHJva2U9Im5vbmUiIGZpbGw9InJnYigwLDAsMCkiPlRvbWVyIE0gWWFyb248L3RleHQ+PHBhdGggZmlsbC1vcGFjaXR5PSIxIiBkPSJNIDI5NS4wMTY5Njc5MzU2NTc2NSAzNy4yNjUzODUxOTgzMDcyMyBMIDI5NC45MDkwNzQ2MTYzMTcxIDQwLjAxMTQ1MzU0ODc4MTggTCAyOTQuNTg2MDU5ODU2NDg3NDUgNDIuNzQwNTkxNDc0NzE1MzEgTCAyOTQuMDQ5OTE1MTQ5NTc2MzUgNDUuNDM1OTcyOTMzMjYzOTIgTCAyOTMuMzAzOTQ2MDA1OTg4IDQ4LjA4MDk4MDAwMTQzMDM5IEwgMjkyLjM1Mjc1MTU3MzU1MjY3IDUwLjY1OTMwNTMzMTA4NTM3IEwgMjkxLjIwMjE5NjI4MjI1MDUgNTMuMTU1MDUyNjg5MTkxMzY1IEwgMjg5Ljg1OTM3MzY4ODA1MDkgNTUuNTUyODM0OTYzMzY1NDQgTCAyODguMzMyNTYyNzM4NzgwOCA1Ny44Mzc4NjkwMjg1NDM3OSBMIDI4Ni42MzExNzY3MzE2NTg3NCA1OS45OTYwNjY4ODk4NjM2NTYgTCAyODQuNzY1NzA1Mjc3MTg2ODQgNjIuMDE0MTIyNTM5ODM2MzkgTCAyODIuNzQ3NjQ5NjI3MjE0MDYgNjMuODc5NTkzOTk0MzA4MzEgTCAyODAuNTg5NDUxNzY1ODk0MiA2NS41ODA5ODAwMDE0MzAzOSBMIDI3OC4zMDQ0MTc3MDA3MTU5IDY3LjEwNzc5MDk1MDcwMDQ2IEwgMjc1LjkwNjYzNTQyNjU0MTggNjguNDUwNjEzNTQ0OTAwMTEgTCAyNzMuNDEwODg4MDY4NDM1OCA2OS42MDExNjg4MzYyMDIyNiBMIDI3MC44MzI1NjI3Mzg3ODA4IDcwLjU1MjM2MzI2ODYzNzYgTCAyNjguMTg3NTU1NjcwNjE0MzYgNzEuMjk4MzMyNDEyMjI1OSBMIDI2NS40OTIxNzQyMTIwNjU3IDcxLjgzNDQ3NzExOTEzNzA1IEwgMjYyLjc2MzAzNjI4NjEzMjIgNzIuMTU3NDkxODc4OTY2NzEgTCAyNjAuMDE2OTY3OTM1NjU3NjUgNzIuMjY1Mzg1MTk4MzA3MjMgTCAyNTcuMjcwODk5NTg1MTgzMSA3Mi4xNTc0OTE4Nzg5NjY3MSBMIDI1NC41NDE3NjE2NTkyNDk1NyA3MS44MzQ0NzcxMTkxMzcwNSBMIDI1MS44NDYzODAyMDA3MDA5NiA3MS4yOTgzMzI0MTIyMjU5IEwgMjQ5LjIwMTM3MzEzMjUzNDQ4IDcwLjU1MjM2MzI2ODYzNzYgTCAyNDYuNjIzMDQ3ODAyODc5NSA2OS42MDExNjg4MzYyMDIyNiBMIDI0NC4xMjczMDA0NDQ3NzM1IDY4LjQ1MDYxMzU0NDkwMDExIEwgMjQxLjcyOTUxODE3MDU5OTQ1IDY3LjEwNzc5MDk1MDcwMDQ2IEwgMjM5LjQ0NDQ4NDEwNTQyMTA4IDY1LjU4MDk4MDAwMTQzMDM5IEwgMjM3LjI4NjI4NjI0NDEwMTIzIDYzLjg3OTU5Mzk5NDMwODMxIEwgMjM1LjI2ODIzMDU5NDEyODQ4IDYyLjAxNDEyMjUzOTgzNjM5IEwgMjMzLjQwMjc1OTEzOTY1NjU1IDU5Ljk5NjA2Njg4OTg2MzY1NiBMIDIzMS43MDEzNzMxMzI1MzQ0OCA1Ny44Mzc4NjkwMjg1NDM3OSBMIDIzMC4xNzQ1NjIxODMyNjQ0IDU1LjU1MjgzNDk2MzM2NTQ0IEwgMjI4LjgzMTczOTU4OTA2NDc3IDUzLjE1NTA1MjY4OTE5MTM2NSBMIDIyNy42ODExODQyOTc3NjI2MyA1MC42NTkzMDUzMzEwODUzOCBMIDIyNi43Mjk5ODk4NjUzMjcyNyA0OC4wODA5ODAwMDE0MzAzOSBMIDIyNS45ODQwMjA3MjE3Mzg5NyA0NS40MzU5NzI5MzMyNjM5MjYgTCAyMjUuNDQ3ODc2MDE0ODI3ODQgNDIuNzQwNTkxNDc0NzE1MzE2IEwgMjI1LjEyNDg2MTI1NDk5ODE3IDQwLjAxMTQ1MzU0ODc4MTgxIEwgMjI1LjAxNjk2NzkzNTY1NzY1IDM3LjI2NTM4NTE5ODMwNzIzNiBMIDIyNS4xMjQ4NjEyNTQ5OTgxNyAzNC41MTkzMTY4NDc4MzI2NiBMIDIyNS40NDc4NzYwMTQ4Mjc4NCAzMS43OTAxNzg5MjE4OTkxNTUgTCAyMjUuOTg0MDIwNzIxNzM4OTcgMjkuMDk0Nzk3NDYzMzUwNTQ1IEwgMjI2LjcyOTk4OTg2NTMyNzI3IDI2LjQ0OTc5MDM5NTE4NDA3NCBMIDIyNy42ODExODQyOTc3NjI2IDIzLjg3MTQ2NTA2NTUyOTA5IEwgMjI4LjgzMTczOTU4OTA2NDc3IDIxLjM3NTcxNzcwNzQyMzA5MiBMIDIzMC4xNzQ1NjIxODMyNjQ0IDE4Ljk3NzkzNTQzMzI0OTAyMyBMIDIzMS43MDEzNzMxMzI1MzQ0OCAxNi42OTI5MDEzNjgwNzA2NyBMIDIzMy40MDI3NTkxMzk2NTY1NSAxNC41MzQ3MDM1MDY3NTA4MDUgTCAyMzUuMjY4MjMwNTk0MTI4NDggMTIuNTE2NjQ3ODU2Nzc4MDY4IEwgMjM3LjI4NjI4NjI0NDEwMTIgMTAuNjUxMTc2NDAyMzA2MTU2IEwgMjM5LjQ0NDQ4NDEwNTQyMTA4IDguOTQ5NzkwMzk1MTg0MDcgTCAyNDEuNzI5NTE4MTcwNTk5NDUgNy40MjI5Nzk0NDU5MTM5OTUgTCAyNDQuMTI3MzAwNDQ0NzczNTQgNi4wODAxNTY4NTE3MTQzNDIgTCAyNDYuNjIzMDQ3ODAyODc5NTQgNC45Mjk2MDE1NjA0MTIxODEgTCAyNDkuMjAxMzczMTMyNTM0NTQgMy45Nzg0MDcxMjc5NzY4MzcgTCAyNTEuODQ2MzgwMjAwNzAxMDIgMy4yMzI0Mzc5ODQzODg1MzI1IEwgMjU0LjU0MTc2MTY1OTI0OTY2IDIuNjk2MjkzMjc3NDc3Mzk0NyBMIDI1Ny4yNzA4OTk1ODUxODMyIDIuMzczMjc4NTE3NjQ3NzQwNyBMIDI2MC4wMTY5Njc5MzU2NTc3NiAyLjI2NTM4NTE5ODMwNzIyODYgTCAyNjIuNzYzMDM2Mjg2MTMyNCAyLjM3MzI3ODUxNzY0Nzc2MiBMIDI2NS40OTIxNzQyMTIwNjU5IDIuNjk2MjkzMjc3NDc3NDMgTCAyNjguMTg3NTU1NjcwNjE0NSAzLjIzMjQzNzk4NDM4ODU4MiBMIDI3MC44MzI1NjI3Mzg3ODA5NSAzLjk3ODQwNzEyNzk3NjkwOCBMIDI3My40MTA4ODgwNjg0MzU5NSA0LjkyOTYwMTU2MDQxMjI2NiBMIDI3NS45MDY2MzU0MjY1NDIgNi4wODAxNTY4NTE3MTQ0NDkgTCAyNzguMzA0NDE3NzAwNzE2MDQgNy40MjI5Nzk0NDU5MTQxMiBMIDI4MC41ODk0NTE3NjU4OTQ0IDguOTQ5NzkwMzk1MTg0MjEzIEwgMjgyLjc0NzY0OTYyNzIxNDMgMTAuNjUxMTc2NDAyMzA2MzEyIEwgMjg0Ljc2NTcwNTI3NzE4NyAxMi41MTY2NDc4NTY3NzgyNTYgTCAyODYuNjMxMTc2NzMxNjU4OSAxNC41MzQ3MDM1MDY3NTEwMTggTCAyODguMzMyNTYyNzM4NzgxIDE2LjY5MjkwMTM2ODA3MDkxMyBMIDI4OS44NTkzNzM2ODgwNTEwNSAxOC45Nzc5MzU0MzMyNDkyOSBMIDI5MS4yMDIxOTYyODIyNTA2NyAyMS4zNzU3MTc3MDc0MjMzODcgTCAyOTIuMzUyNzUxNTczNTUyODQgMjMuODcxNDY1MDY1NTI5NDA3IEwgMjkzLjMwMzk0NjAwNTk4ODEgMjYuNDQ5NzkwMzk1MTg0NDE1IEwgMjk0LjA0OTkxNTE0OTU3NjQgMjkuMDk0Nzk3NDYzMzUwOTA4IEwgMjk0LjU4NjA1OTg1NjQ4NzUgMzEuNzkwMTc4OTIxODk5NTQgTCAyOTQuOTA5MDc0NjE2MzE3MiAzNC41MTkzMTY4NDc4MzMwNyBaIiBwYWludC1vcmRlcj0ic3Ryb2tlIGZpbGwgbWFya2VycyIgc3Ryb2tlPSJub25lIiBmaWxsPSJyZ2IoMTI4LDIxNiwyNTUpIi8+PHRleHQgZmlsbC1vcGFjaXR5PSIxIiB0ZXh0LWFuY2hvcj0ibWlkZGxlIiB5PSI0NS4yNjUzODUxOTgzMDcyMyIgeD0iMjYwLjAxNjk2NzkzNTY1NzY1IiB0ZXh0LWRlY29yYXRpb249Im5vcm1hbCIgZm9udC13ZWlnaHQ9Im5vcm1hbCIgZm9udC1zdHlsZT0ibm9ybWFsIiBmb250LXNpemU9IjE2cHgiIGZvbnQtZmFtaWx5PSJIZWx2ZXRpY2EgTmV1ZSwgSGVsdmV0aWNhLCBzYW5zLXNlcmlmIiBzdHJva2U9Im5vbmUiIGZpbGw9InJnYigwLDAsMCkiPkZyYW5jZXNjYSBQaWEgQ2FydXNvPC90ZXh0PjxwYXRoIGZpbGwtb3BhY2l0eT0iMSIgZD0iTSA3OTAuMzMxNTU2MDUxNDk5NyAzMTEuNjY0MTQzNDYzMzIzNCBMIDc5MC4yMjM2NjI3MzIxNTkxIDMxNC40MTAyMTE4MTM3OTc5NiBMIDc4OS45MDA2NDc5NzIzMjk1IDMxNy4xMzkzNDk3Mzk3MzE1IEwgNzg5LjM2NDUwMzI2NTQxODMgMzE5LjgzNDczMTE5ODI4MDEgTCA3ODguNjE4NTM0MTIxODMwMSAzMjIuNDc5NzM4MjY2NDQ2NTMgTCA3ODcuNjY3MzM5Njg5Mzk0NyAzMjUuMDU4MDYzNTk2MTAxNTMgTCA3ODYuNTE2Nzg0Mzk4MDkyNiAzMjcuNTUzODEwOTU0MjA3NSBMIDc4NS4xNzM5NjE4MDM4OTI5IDMyOS45NTE1OTMyMjgzODE2IEwgNzgzLjY0NzE1MDg1NDYyMjkgMzMyLjIzNjYyNzI5MzU1OTkzIEwgNzgxLjk0NTc2NDg0NzUwMDggMzM0LjM5NDgyNTE1NDg3OTggTCA3ODAuMDgwMjkzMzkzMDI4OCAzMzYuNDEyODgwODA0ODUyNTMgTCA3NzguMDYyMjM3NzQzMDU2MSAzMzguMjc4MzUyMjU5MzI0NSBMIDc3NS45MDQwMzk4ODE3MzYzIDMzOS45Nzk3MzgyNjY0NDY2IEwgNzczLjYxOTAwNTgxNjU1NzkgMzQxLjUwNjU0OTIxNTcxNjYzIEwgNzcxLjIyMTIyMzU0MjM4MzggMzQyLjg0OTM3MTgwOTkxNjI1IEwgNzY4LjcyNTQ3NjE4NDI3NzggMzQzLjk5OTkyNzEwMTIxODQgTCA3NjYuMTQ3MTUwODU0NjIyOSAzNDQuOTUxMTIxNTMzNjUzNzUgTCA3NjMuNTAyMTQzNzg2NDU2NCAzNDUuNjk3MDkwNjc3MjQyMSBMIDc2MC44MDY3NjIzMjc5MDc4IDM0Ni4yMzMyMzUzODQxNTMyIEwgNzU4LjA3NzYyNDQwMTk3NDMgMzQ2LjU1NjI1MDE0Mzk4MjkgTCA3NTUuMzMxNTU2MDUxNDk5NyAzNDYuNjY0MTQzNDYzMzIzNCBMIDc1Mi41ODU0ODc3MDEwMjUgMzQ2LjU1NjI1MDE0Mzk4MjkgTCA3NDkuODU2MzQ5Nzc1MDkxNSAzNDYuMjMzMjM1Mzg0MTUzMiBMIDc0Ny4xNjA5NjgzMTY1NDMgMzQ1LjY5NzA5MDY3NzI0MjEgTCA3NDQuNTE1OTYxMjQ4Mzc2NSAzNDQuOTUxMTIxNTMzNjUzOCBMIDc0MS45Mzc2MzU5MTg3MjE1IDM0My45OTk5MjcxMDEyMTg0IEwgNzM5LjQ0MTg4ODU2MDYxNTYgMzQyLjg0OTM3MTgwOTkxNjI1IEwgNzM3LjA0NDEwNjI4NjQ0MTQgMzQxLjUwNjU0OTIxNTcxNjYzIEwgNzM0Ljc1OTA3MjIyMTI2MzEgMzM5Ljk3OTczODI2NjQ0NjYgTCA3MzIuNjAwODc0MzU5OTQzMiAzMzguMjc4MzUyMjU5MzI0NSBMIDczMC41ODI4MTg3MDk5NzA1IDMzNi40MTI4ODA4MDQ4NTI1MyBMIDcyOC43MTczNDcyNTU0OTg2IDMzNC4zOTQ4MjUxNTQ4Nzk4IEwgNzI3LjAxNTk2MTI0ODM3NjUgMzMyLjIzNjYyNzI5MzU2IEwgNzI1LjQ4OTE1MDI5OTEwNjQgMzI5Ljk1MTU5MzIyODM4MTYgTCA3MjQuMTQ2MzI3NzA0OTA2OCAzMjcuNTUzODEwOTU0MjA3NTYgTCA3MjIuOTk1NzcyNDEzNjA0NiAzMjUuMDU4MDYzNTk2MTAxNTMgTCA3MjIuMDQ0NTc3OTgxMTY5MyAzMjIuNDc5NzM4MjY2NDQ2NiBMIDcyMS4yOTg2MDg4Mzc1ODEgMzE5LjgzNDczMTE5ODI4MDEgTCA3MjAuNzYyNDY0MTMwNjY5OSAzMTcuMTM5MzQ5NzM5NzMxNSBMIDcyMC40Mzk0NDkzNzA4NDAyIDMxNC40MTAyMTE4MTM3OTc5NiBMIDcyMC4zMzE1NTYwNTE0OTk3IDMxMS42NjQxNDM0NjMzMjM0IEwgNzIwLjQzOTQ0OTM3MDg0MDIgMzA4LjkxODA3NTExMjg0ODg0IEwgNzIwLjc2MjQ2NDEzMDY2OTkgMzA2LjE4ODkzNzE4NjkxNTMgTCA3MjEuMjk4NjA4ODM3NTgxIDMwMy40OTM1NTU3MjgzNjY3IEwgNzIyLjA0NDU3Nzk4MTE2OTMgMzAwLjg0ODU0ODY2MDIwMDI3IEwgNzIyLjk5NTc3MjQxMzYwNDYgMjk4LjI3MDIyMzMzMDU0NTI2IEwgNzI0LjE0NjMyNzcwNDkwNjggMjk1Ljc3NDQ3NTk3MjQzOTMgTCA3MjUuNDg5MTUwMjk5MTA2NCAyOTMuMzc2NjkzNjk4MjY1MTcgTCA3MjcuMDE1OTYxMjQ4Mzc2NSAyOTEuMDkxNjU5NjMzMDg2ODYgTCA3MjguNzE3MzQ3MjU1NDk4NiAyODguOTMzNDYxNzcxNzY3IEwgNzMwLjU4MjgxODcwOTk3MDUgMjg2LjkxNTQwNjEyMTc5NDI2IEwgNzMyLjYwMDg3NDM1OTk0MzIgMjg1LjA0OTkzNDY2NzMyMjMgTCA3MzQuNzU5MDcyMjIxMjYzMSAyODMuMzQ4NTQ4NjYwMjAwMjcgTCA3MzcuMDQ0MTA2Mjg2NDQxNCAyODEuODIxNzM3NzEwOTMwMTcgTCA3MzkuNDQxODg4NTYwNjE1NiAyODAuNDc4OTE1MTE2NzMwNSBMIDc0MS45Mzc2MzU5MTg3MjE1IDI3OS4zMjgzNTk4MjU0Mjg0IEwgNzQ0LjUxNTk2MTI0ODM3NjYgMjc4LjM3NzE2NTM5Mjk5MyBMIDc0Ny4xNjA5NjgzMTY1NDMxIDI3Ny42MzExOTYyNDk0MDQ3IEwgNzQ5Ljg1NjM0OTc3NTA5MTYgMjc3LjA5NTA1MTU0MjQ5MzYgTCA3NTIuNTg1NDg3NzAxMDI1MiAyNzYuNzcyMDM2NzgyNjYzOSBMIDc1NS4zMzE1NTYwNTE0OTk4IDI3Ni42NjQxNDM0NjMzMjM0IEwgNzU4LjA3NzYyNDQwMTk3NDQgMjc2Ljc3MjAzNjc4MjY2MzkgTCA3NjAuODA2NzYyMzI3OTA3OSAyNzcuMDk1MDUxNTQyNDkzNiBMIDc2My41MDIxNDM3ODY0NTY1IDI3Ny42MzExOTYyNDk0MDQ3NSBMIDc2Ni4xNDcxNTA4NTQ2MjMgMjc4LjM3NzE2NTM5Mjk5MzEgTCA3NjguNzI1NDc2MTg0Mjc4IDI3OS4zMjgzNTk4MjU0Mjg0NCBMIDc3MS4yMjEyMjM1NDIzODQgMjgwLjQ3ODkxNTExNjczMDYgTCA3NzMuNjE5MDA1ODE2NTU4MSAyODEuODIxNzM3NzEwOTMwMyBMIDc3NS45MDQwMzk4ODE3MzY0IDI4My4zNDg1NDg2NjAyMDA0IEwgNzc4LjA2MjIzNzc0MzA1NjIgMjg1LjA0OTkzNDY2NzMyMjUgTCA3ODAuMDgwMjkzMzkzMDI5IDI4Ni45MTU0MDYxMjE3OTQ0MyBMIDc4MS45NDU3NjQ4NDc1MDEgMjg4LjkzMzQ2MTc3MTc2NzIgTCA3ODMuNjQ3MTUwODU0NjIzIDI5MS4wOTE2NTk2MzMwODcxIEwgNzg1LjE3Mzk2MTgwMzg5MyAyOTMuMzc2NjkzNjk4MjY1NDYgTCA3ODYuNTE2Nzg0Mzk4MDkyNyAyOTUuNzc0NDc1OTcyNDM5NiBMIDc4Ny42NjczMzk2ODkzOTQ4IDI5OC4yNzAyMjMzMzA1NDU2IEwgNzg4LjYxODUzNDEyMTgzMDIgMzAwLjg0ODU0ODY2MDIwMDYgTCA3ODkuMzY0NTAzMjY1NDE4NCAzMDMuNDkzNTU1NzI4MzY3MSBMIDc4OS45MDA2NDc5NzIzMjk2IDMwNi4xODg5MzcxODY5MTU3IEwgNzkwLjIyMzY2MjczMjE1OTEgMzA4LjkxODA3NTExMjg0OTI0IFoiIHBhaW50LW9yZGVyPSJzdHJva2UgZmlsbCBtYXJrZXJzIiBzdHJva2U9Im5vbmUiIGZpbGw9InJnYigxMjgsMjE2LDI1NSkiLz48dGV4dCBmaWxsLW9wYWNpdHk9IjEiIHRleHQtYW5jaG9yPSJtaWRkbGUiIHk9IjMxOS42NjQxNDM0NjMzMjM0IiB4PSI3NTUuMzMxNTU2MDUxNDk5NyIgdGV4dC1kZWNvcmF0aW9uPSJub3JtYWwiIGZvbnQtd2VpZ2h0PSJub3JtYWwiIGZvbnQtc3R5bGU9Im5vcm1hbCIgZm9udC1zaXplPSIxNnB4IiBmb250LWZhbWlseT0iSGVsdmV0aWNhIE5ldWUsIEhlbHZldGljYSwgc2Fucy1zZXJpZiIgc3Ryb2tlPSJub25lIiBmaWxsPSJyZ2IoMCwwLDApIj5OaWNvbGUgVGlnbm9yPC90ZXh0PjxwYXRoIGZpbGwtb3BhY2l0eT0iMSIgZD0iTSA0ODUuMTkyMzQ0MzkxMjYwNiA3NTYuNzAyMzg4OTQ2ODcwMiBMIDQ4NS4wODQ0NTEwNzE5MjAwNiA3NTkuNDQ4NDU3Mjk3MzQ0OCBMIDQ4NC43NjE0MzYzMTIwOTA0IDc2Mi4xNzc1OTUyMjMyNzgzIEwgNDg0LjIyNTI5MTYwNTE3OTMgNzY0Ljg3Mjk3NjY4MTgyNjkgTCA0ODMuNDc5MzIyNDYxNTkwOSA3NjcuNTE3OTgzNzQ5OTkzNCBMIDQ4Mi41MjgxMjgwMjkxNTU2IDc3MC4wOTYzMDkwNzk2NDgzIEwgNDgxLjM3NzU3MjczNzg1MzQgNzcyLjU5MjA1NjQzNzc1NDMgTCA0ODAuMDM0NzUwMTQzNjUzOCA3NzQuOTg5ODM4NzExOTI4NCBMIDQ3OC41MDc5MzkxOTQzODM3NyA3NzcuMjc0ODcyNzc3MTA2OCBMIDQ3Ni44MDY1NTMxODcyNjE2NyA3NzkuNDMzMDcwNjM4NDI2NyBMIDQ3NC45NDEwODE3MzI3ODk3IDc4MS40NTExMjYyODgzOTkzIEwgNDcyLjkyMzAyNjA4MjgxNyA3ODMuMzE2NTk3NzQyODcxMyBMIDQ3MC43NjQ4MjgyMjE0OTcxIDc4NS4wMTc5ODM3NDk5OTM0IEwgNDY4LjQ3OTc5NDE1NjMxODggNzg2LjU0NDc5NDY5OTI2MzQgTCA0NjYuMDgyMDExODgyMTQ0NzQgNzg3Ljg4NzYxNzI5MzQ2MzEgTCA0NjMuNTg2MjY0NTI0MDM4NyA3ODkuMDM4MTcyNTg0NzY1MiBMIDQ2MS4wMDc5MzkxOTQzODM3NyA3ODkuOTg5MzY3MDE3MjAwNiBMIDQ1OC4zNjI5MzIxMjYyMTczIDc5MC43MzUzMzYxNjA3ODg4IEwgNDU1LjY2NzU1MDY2NzY2ODY1IDc5MS4yNzE0ODA4Njc3IEwgNDUyLjkzODQxMjc0MTczNTE0IDc5MS41OTQ0OTU2Mjc1Mjk3IEwgNDUwLjE5MjM0NDM5MTI2MDYgNzkxLjcwMjM4ODk0Njg3MDIgTCA0NDcuNDQ2Mjc2MDQwNzg2IDc5MS41OTQ0OTU2Mjc1Mjk3IEwgNDQ0LjcxNzEzODExNDg1MjUgNzkxLjI3MTQ4MDg2NzcgTCA0NDIuMDIxNzU2NjU2MzAzODYgNzkwLjczNTMzNjE2MDc4ODggTCA0MzkuMzc2NzQ5NTg4MTM3NDQgNzg5Ljk4OTM2NzAxNzIwMDYgTCA0MzYuNzk4NDI0MjU4NDgyNDQgNzg5LjAzODE3MjU4NDc2NTIgTCA0MzQuMzAyNjc2OTAwMzc2NDcgNzg3Ljg4NzYxNzI5MzQ2MzEgTCA0MzEuOTA0ODk0NjI2MjAyMzUgNzg2LjU0NDc5NDY5OTI2MzQgTCA0MjkuNjE5ODYwNTYxMDI0MDQgNzg1LjAxNzk4Mzc0OTk5MzQgTCA0MjcuNDYxNjYyNjk5NzA0MTYgNzgzLjMxNjU5Nzc0Mjg3MTMgTCA0MjUuNDQzNjA3MDQ5NzMxNDQgNzgxLjQ1MTEyNjI4ODM5OTMgTCA0MjMuNTc4MTM1NTk1MjU5NSA3NzkuNDMzMDcwNjM4NDI2NyBMIDQyMS44NzY3NDk1ODgxMzc0NCA3NzcuMjc0ODcyNzc3MTA2OCBMIDQyMC4zNDk5Mzg2Mzg4NjczNCA3NzQuOTg5ODM4NzExOTI4NCBMIDQxOS4wMDcxMTYwNDQ2Njc3IDc3Mi41OTIwNTY0Mzc3NTQzIEwgNDE3Ljg1NjU2MDc1MzM2NTU2IDc3MC4wOTYzMDkwNzk2NDgzIEwgNDE2LjkwNTM2NjMyMDkzMDIgNzY3LjUxNzk4Mzc0OTk5MzQgTCA0MTYuMTU5Mzk3MTc3MzQxOSA3NjQuODcyOTc2NjgxODI2OSBMIDQxNS42MjMyNTI0NzA0MzA3NyA3NjIuMTc3NTk1MjIzMjc4MyBMIDQxNS4zMDAyMzc3MTA2MDExIDc1OS40NDg0NTcyOTczNDQ4IEwgNDE1LjE5MjM0NDM5MTI2MDYgNzU2LjcwMjM4ODk0Njg3MDIgTCA0MTUuMzAwMjM3NzEwNjAxMSA3NTMuOTU2MzIwNTk2Mzk1NiBMIDQxNS42MjMyNTI0NzA0MzA3NyA3NTEuMjI3MTgyNjcwNDYyMSBMIDQxNi4xNTkzOTcxNzczNDE5IDc0OC41MzE4MDEyMTE5MTM1IEwgNDE2LjkwNTM2NjMyMDkzMDE3IDc0NS44ODY3OTQxNDM3NDcgTCA0MTcuODU2NTYwNzUzMzY1NTYgNzQzLjMwODQ2ODgxNDA5MjEgTCA0MTkuMDA3MTE2MDQ0NjY3NyA3NDAuODEyNzIxNDU1OTg2MSBMIDQyMC4zNDk5Mzg2Mzg4NjczNCA3MzguNDE0OTM5MTgxODEyIEwgNDIxLjg3Njc0OTU4ODEzNzQgNzM2LjEyOTkwNTExNjYzMzYgTCA0MjMuNTc4MTM1NTk1MjU5NSA3MzMuOTcxNzA3MjU1MzEzNyBMIDQyNS40NDM2MDcwNDk3MzE0IDczMS45NTM2NTE2MDUzNDExIEwgNDI3LjQ2MTY2MjY5OTcwNDEgNzMwLjA4ODE4MDE1MDg2OTEgTCA0MjkuNjE5ODYwNTYxMDI0IDcyOC4zODY3OTQxNDM3NDcgTCA0MzEuOTA0ODk0NjI2MjAyMzUgNzI2Ljg1OTk4MzE5NDQ3NyBMIDQzNC4zMDI2NzY5MDAzNzY0NyA3MjUuNTE3MTYwNjAwMjc3MyBMIDQzNi43OTg0MjQyNTg0ODI1IDcyNC4zNjY2MDUzMDg5NzUyIEwgNDM5LjM3Njc0OTU4ODEzNzQ0IDcyMy40MTU0MTA4NzY1Mzk4IEwgNDQyLjAyMTc1NjY1NjMwNCA3MjIuNjY5NDQxNzMyOTUxNiBMIDQ0NC43MTcxMzgxMTQ4NTI1NiA3MjIuMTMzMjk3MDI2MDQwNCBMIDQ0Ny40NDYyNzYwNDA3ODYxMyA3MjEuODEwMjgyMjY2MjEwNyBMIDQ1MC4xOTIzNDQzOTEyNjA3IDcyMS43MDIzODg5NDY4NzAyIEwgNDUyLjkzODQxMjc0MTczNTMgNzIxLjgxMDI4MjI2NjIxMDcgTCA0NTUuNjY3NTUwNjY3NjY4OCA3MjIuMTMzMjk3MDI2MDQwNCBMIDQ1OC4zNjI5MzIxMjYyMTc0IDcyMi42Njk0NDE3MzI5NTE2IEwgNDYxLjAwNzkzOTE5NDM4MzkgNzIzLjQxNTQxMDg3NjUzOTkgTCA0NjMuNTg2MjY0NTI0MDM4OSA3MjQuMzY2NjA1MzA4OTc1MyBMIDQ2Ni4wODIwMTE4ODIxNDQ5IDcyNS41MTcxNjA2MDAyNzc0IEwgNDY4LjQ3OTc5NDE1NjMxOSA3MjYuODU5OTgzMTk0NDc3MSBMIDQ3MC43NjQ4MjgyMjE0OTczNCA3MjguMzg2Nzk0MTQzNzQ3MiBMIDQ3Mi45MjMwMjYwODI4MTcyIDczMC4wODgxODAxNTA4NjkzIEwgNDc0Ljk0MTA4MTczMjc4OTk0IDczMS45NTM2NTE2MDUzNDEyIEwgNDc2LjgwNjU1MzE4NzI2MTg0IDczMy45NzE3MDcyNTUzMTQgTCA0NzguNTA3OTM5MTk0MzgzOTQgNzM2LjEyOTkwNTExNjYzMzggTCA0ODAuMDM0NzUwMTQzNjU0IDczOC40MTQ5MzkxODE4MTIzIEwgNDgxLjM3NzU3MjczNzg1MzYgNzQwLjgxMjcyMTQ1NTk4NjMgTCA0ODIuNTI4MTI4MDI5MTU1NzcgNzQzLjMwODQ2ODgxNDA5MjQgTCA0ODMuNDc5MzIyNDYxNTkxMDQgNzQ1Ljg4Njc5NDE0Mzc0NzQgTCA0ODQuMjI1MjkxNjA1MTc5MzQgNzQ4LjUzMTgwMTIxMTkxMzggTCA0ODQuNzYxNDM2MzEyMDkwNDQgNzUxLjIyNzE4MjY3MDQ2MjUgTCA0ODUuMDg0NDUxMDcxOTIwMDYgNzUzLjk1NjMyMDU5NjM5NiBaIiBwYWludC1vcmRlcj0ic3Ryb2tlIGZpbGwgbWFya2VycyIgc3Ryb2tlPSJub25lIiBmaWxsPSJyZ2IoMTI4LDIxNiwyNTUpIi8+PHRleHQgZmlsbC1vcGFjaXR5PSIxIiB0ZXh0LWFuY2hvcj0ibWlkZGxlIiB5PSI3NjQuNzAyMzg4OTQ2ODcwMiIgeD0iNDUwLjE5MjM0NDM5MTI2MDYiIHRleHQtZGVjb3JhdGlvbj0ibm9ybWFsIiBmb250LXdlaWdodD0ibm9ybWFsIiBmb250LXN0eWxlPSJub3JtYWwiIGZvbnQtc2l6ZT0iMTZweCIgZm9udC1mYW1pbHk9IkhlbHZldGljYSBOZXVlLCBIZWx2ZXRpY2EsIHNhbnMtc2VyaWYiIHN0cm9rZT0ibm9uZSIgZmlsbD0icmdiKDAsMCwwKSI+Sm9zaHVhIE0gV2FuZzwvdGV4dD48cGF0aCBmaWxsLW9wYWNpdHk9IjEiIGQ9Ik0gMTM4Ljk1MzkyOTc0MjcyNTg1IDU3MC43Njk3NTQ5NTkxODI4IEwgMTM4Ljg0NjAzNjQyMzM4NTMzIDU3My41MTU4MjMzMDk2NTc0IEwgMTM4LjUyMzAyMTY2MzU1NTY1IDU3Ni4yNDQ5NjEyMzU1OTEgTCAxMzcuOTg2ODc2OTU2NjQ0NTIgNTc4Ljk0MDM0MjY5NDEzOTUgTCAxMzcuMjQwOTA3ODEzMDU2MjIgNTgxLjU4NTM0OTc2MjMwNiBMIDEzNi4yODk3MTMzODA2MjA4NyA1ODQuMTYzNjc1MDkxOTYxIEwgMTM1LjEzOTE1ODA4OTMxODczIDU4Ni42NTk0MjI0NTAwNjY5IEwgMTMzLjc5NjMzNTQ5NTExOTA4IDU4OS4wNTcyMDQ3MjQyNDEgTCAxMzIuMjY5NTI0NTQ1ODQ5IDU5MS4zNDIyMzg3ODk0MTk0IEwgMTMwLjU2ODEzODUzODcyNjk0IDU5My41MDA0MzY2NTA3MzkzIEwgMTI4LjcwMjY2NzA4NDI1NSA1OTUuNTE4NDkyMzAwNzEyIEwgMTI2LjY4NDYxMTQzNDI4MjI3IDU5Ny4zODM5NjM3NTUxODM5IEwgMTI0LjUyNjQxMzU3Mjk2MjQxIDU5OS4wODUzNDk3NjIzMDYgTCAxMjIuMjQxMzc5NTA3Nzg0MDYgNjAwLjYxMjE2MDcxMTU3NiBMIDExOS44NDM1OTcyMzM2MDk5OCA2MDEuOTU0OTgzMzA1Nzc1NyBMIDExNy4zNDc4NDk4NzU1MDQgNjAzLjEwNTUzODU5NzA3NzggTCAxMTQuNzY5NTI0NTQ1ODQ5MDEgNjA0LjA1NjczMzAyOTUxMzIgTCAxMTIuMTI0NTE3NDc3NjgyNTUgNjA0LjgwMjcwMjE3MzEwMTUgTCAxMDkuNDI5MTM2MDE5MTMzOTQgNjA1LjMzODg0Njg4MDAxMjYgTCAxMDYuNjk5OTk4MDkzMjAwNDIgNjA1LjY2MTg2MTYzOTg0MjMgTCAxMDMuOTUzOTI5NzQyNzI1ODUgNjA1Ljc2OTc1NDk1OTE4MjggTCAxMDEuMjA3ODYxMzkyMjUxMjcgNjA1LjY2MTg2MTYzOTg0MjMgTCA5OC40Nzg3MjM0NjYzMTc3NyA2MDUuMzM4ODQ2ODgwMDEyNiBMIDk1Ljc4MzM0MjAwNzc2OTE2IDYwNC44MDI3MDIxNzMxMDE1IEwgOTMuMTM4MzM0OTM5NjAyNjkgNjA0LjA1NjczMzAyOTUxMzIgTCA5MC41NjAwMDk2MDk5NDc3MSA2MDMuMTA1NTM4NTk3MDc3OCBMIDg4LjA2NDI2MjI1MTg0MTcxIDYwMS45NTQ5ODMzMDU3NzU3IEwgODUuNjY2NDc5OTc3NjY3NjMgNjAwLjYxMjE2MDcxMTU3NiBMIDgzLjM4MTQ0NTkxMjQ4OTI4IDU5OS4wODUzNDk3NjIzMDYgTCA4MS4yMjMyNDgwNTExNjk0MiA1OTcuMzgzOTYzNzU1MTgzOSBMIDc5LjIwNTE5MjQwMTE5NjY4IDU5NS41MTg0OTIzMDA3MTIgTCA3Ny4zMzk3MjA5NDY3MjQ3NyA1OTMuNTAwNDM2NjUwNzM5MyBMIDc1LjYzODMzNDkzOTYwMjY5IDU5MS4zNDIyMzg3ODk0MTk0IEwgNzQuMTExNTIzOTkwMzMyNjEgNTg5LjA1NzIwNDcyNDI0MSBMIDcyLjc2ODcwMTM5NjEzMjk3IDU4Ni42NTk0MjI0NTAwNjY5IEwgNzEuNjE4MTQ2MTA0ODMwODEgNTg0LjE2MzY3NTA5MTk2MSBMIDcwLjY2Njk1MTY3MjM5NTQ3IDU4MS41ODUzNDk3NjIzMDYgTCA2OS45MjA5ODI1Mjg4MDcxNyA1NzguOTQwMzQyNjk0MTM5NSBMIDY5LjM4NDgzNzgyMTg5NjAzIDU3Ni4yNDQ5NjEyMzU1OTEgTCA2OS4wNjE4MjMwNjIwNjYzNyA1NzMuNTE1ODIzMzA5NjU3NCBMIDY4Ljk1MzkyOTc0MjcyNTg1IDU3MC43Njk3NTQ5NTkxODI4IEwgNjkuMDYxODIzMDYyMDY2MzcgNTY4LjAyMzY4NjYwODcwODIgTCA2OS4zODQ4Mzc4MjE4OTYwMyA1NjUuMjk0NTQ4NjgyNzc0NyBMIDY5LjkyMDk4MjUyODgwNzE3IDU2Mi41OTkxNjcyMjQyMjYxIEwgNzAuNjY2OTUxNjcyMzk1NDcgNTU5Ljk1NDE2MDE1NjA1OTYgTCA3MS42MTgxNDYxMDQ4MzA4IDU1Ny4zNzU4MzQ4MjY0MDQ3IEwgNzIuNzY4NzAxMzk2MTMyOTcgNTU0Ljg4MDA4NzQ2ODI5ODcgTCA3NC4xMTE1MjM5OTAzMzI2MSA1NTIuNDgyMzA1MTk0MTI0NiBMIDc1LjYzODMzNDkzOTYwMjY5IDU1MC4xOTcyNzExMjg5NDYyIEwgNzcuMzM5NzIwOTQ2NzI0NzUgNTQ4LjAzOTA3MzI2NzYyNjMgTCA3OS4yMDUxOTI0MDExOTY2OCA1NDYuMDIxMDE3NjE3NjUzNyBMIDgxLjIyMzI0ODA1MTE2OTQgNTQ0LjE1NTU0NjE2MzE4MTcgTCA4My4zODE0NDU5MTI0ODkyOCA1NDIuNDU0MTYwMTU2MDU5NiBMIDg1LjY2NjQ3OTk3NzY2NzY1IDU0MC45MjczNDkyMDY3ODk2IEwgODguMDY0MjYyMjUxODQxNzQgNTM5LjU4NDUyNjYxMjU4OTkgTCA5MC41NjAwMDk2MDk5NDc3NCA1MzguNDMzOTcxMzIxMjg3OCBMIDkzLjEzODMzNDkzOTYwMjc0IDUzNy40ODI3NzY4ODg4NTI0IEwgOTUuNzgzMzQyMDA3NzY5MjIgNTM2LjczNjgwNzc0NTI2NDIgTCA5OC40Nzg3MjM0NjYzMTc4NiA1MzYuMjAwNjYzMDM4MzUzIEwgMTAxLjIwNzg2MTM5MjI1MTM3IDUzNS44Nzc2NDgyNzg1MjMzIEwgMTAzLjk1MzkyOTc0MjcyNTk2IDUzNS43Njk3NTQ5NTkxODI4IEwgMTA2LjY5OTk5ODA5MzIwMDU1IDUzNS44Nzc2NDgyNzg1MjMzIEwgMTA5LjQyOTEzNjAxOTEzNDA4IDUzNi4yMDA2NjMwMzgzNTMgTCAxMTIuMTI0NTE3NDc3NjgyNyA1MzYuNzM2ODA3NzQ1MjY0MiBMIDExNC43Njk1MjQ1NDU4NDkxOCA1MzcuNDgyNzc2ODg4ODUyNSBMIDExNy4zNDc4NDk4NzU1MDQxNyA1MzguNDMzOTcxMzIxMjg3OCBMIDExOS44NDM1OTcyMzM2MTAxNyA1MzkuNTg0NTI2NjEyNTkgTCAxMjIuMjQxMzc5NTA3Nzg0MjUgNTQwLjkyNzM0OTIwNjc4OTcgTCAxMjQuNTI2NDEzNTcyOTYyNjEgNTQyLjQ1NDE2MDE1NjA1OTkgTCAxMjYuNjg0NjExNDM0MjgyNDcgNTQ0LjE1NTU0NjE2MzE4MiBMIDEyOC43MDI2NjcwODQyNTUyIDU0Ni4wMjEwMTc2MTc2NTM4IEwgMTMwLjU2ODEzODUzODcyNzEgNTQ4LjAzOTA3MzI2NzYyNjYgTCAxMzIuMjY5NTI0NTQ1ODQ5MTggNTUwLjE5NzI3MTEyODk0NjUgTCAxMzMuNzk2MzM1NDk1MTE5MjUgNTUyLjQ4MjMwNTE5NDEyNDkgTCAxMzUuMTM5MTU4MDg5MzE4ODcgNTU0Ljg4MDA4NzQ2ODI5ODkgTCAxMzYuMjg5NzEzMzgwNjIxIDU1Ny4zNzU4MzQ4MjY0MDUgTCAxMzcuMjQwOTA3ODEzMDU2MzQgNTU5Ljk1NDE2MDE1NjA2IEwgMTM3Ljk4Njg3Njk1NjY0NDYgNTYyLjU5OTE2NzIyNDIyNjQgTCAxMzguNTIzMDIxNjYzNTU1NzQgNTY1LjI5NDU0ODY4Mjc3NTEgTCAxMzguODQ2MDM2NDIzMzg1MzYgNTY4LjAyMzY4NjYwODcwODcgWiIgcGFpbnQtb3JkZXI9InN0cm9rZSBmaWxsIG1hcmtlcnMiIHN0cm9rZT0ibm9uZSIgZmlsbD0icmdiKDEyOCwyMTYsMjU1KSIvPjx0ZXh0IGZpbGwtb3BhY2l0eT0iMSIgdGV4dC1hbmNob3I9Im1pZGRsZSIgeT0iNTc4Ljc2OTc1NDk1OTE4MjgiIHg9IjEwMy45NTM5Mjk3NDI3MjU4NSIgdGV4dC1kZWNvcmF0aW9uPSJub3JtYWwiIGZvbnQtd2VpZ2h0PSJub3JtYWwiIGZvbnQtc3R5bGU9Im5vcm1hbCIgZm9udC1zaXplPSIxNnB4IiBmb250LWZhbWlseT0iSGVsdmV0aWNhIE5ldWUsIEhlbHZldGljYSwgc2Fucy1zZXJpZiIgc3Ryb2tlPSJub25lIiBmaWxsPSJyZ2IoMCwwLDApIj5EYW5pZWwgQ2hhcnl0b25vd2ljejwvdGV4dD48cGF0aCBmaWxsLW9wYWNpdHk9IjEiIGQ9Ik0gNjI1LjI0NjYyODcwOTE1MyA1NDguOTA2NDMxMjU0NDM2NSBMIDYyNS4xMzg3MzUzODk4MTI1IDU1MS42NTI0OTk2MDQ5MTExIEwgNjI0LjgxNTcyMDYyOTk4MjggNTU0LjM4MTYzNzUzMDg0NDYgTCA2MjQuMjc5NTc1OTIzMDcxNyA1NTcuMDc3MDE4OTg5MzkzMiBMIDYyMy41MzM2MDY3Nzk0ODM0IDU1OS43MjIwMjYwNTc1NTk3IEwgNjIyLjU4MjQxMjM0NzA0OCA1NjIuMzAwMzUxMzg3MjE0NiBMIDYyMS40MzE4NTcwNTU3NDU5IDU2NC43OTYwOTg3NDUzMjA2IEwgNjIwLjA4OTAzNDQ2MTU0NjIgNTY3LjE5Mzg4MTAxOTQ5NDcgTCA2MTguNTYyMjIzNTEyMjc2MiA1NjkuNDc4OTE1MDg0NjczMSBMIDYxNi44NjA4Mzc1MDUxNTQxIDU3MS42MzcxMTI5NDU5OTMgTCA2MTQuOTk1MzY2MDUwNjgyMiA1NzMuNjU1MTY4NTk1OTY1NiBMIDYxMi45NzczMTA0MDA3MDk1IDU3NS41MjA2NDAwNTA0Mzc2IEwgNjEwLjgxOTExMjUzOTM4OTYgNTc3LjIyMjAyNjA1NzU1OTcgTCA2MDguNTM0MDc4NDc0MjExMiA1NzguNzQ4ODM3MDA2ODI5NyBMIDYwNi4xMzYyOTYyMDAwMzcxIDU4MC4wOTE2NTk2MDEwMjk0IEwgNjAzLjY0MDU0ODg0MTkzMTEgNTgxLjI0MjIxNDg5MjMzMTUgTCA2MDEuMDYyMjIzNTEyMjc2MiA1ODIuMTkzNDA5MzI0NzY2OSBMIDU5OC40MTcyMTY0NDQxMDk3IDU4Mi45MzkzNzg0NjgzNTUxIEwgNTk1LjcyMTgzNDk4NTU2MTEgNTgzLjQ3NTUyMzE3NTI2NjMgTCA1OTIuOTkyNjk3MDU5NjI3NiA1ODMuNzk4NTM3OTM1MDk2IEwgNTkwLjI0NjYyODcwOTE1MyA1ODMuOTA2NDMxMjU0NDM2NSBMIDU4Ny41MDA1NjAzNTg2Nzg0IDU4My43OTg1Mzc5MzUwOTYgTCA1ODQuNzcxNDIyNDMyNzQ0OSA1ODMuNDc1NTIzMTc1MjY2MyBMIDU4Mi4wNzYwNDA5NzQxOTYzIDU4Mi45MzkzNzg0NjgzNTUxIEwgNTc5LjQzMTAzMzkwNjAyOTggNTgyLjE5MzQwOTMyNDc2NjkgTCA1NzYuODUyNzA4NTc2Mzc0OSA1ODEuMjQyMjE0ODkyMzMxNSBMIDU3NC4zNTY5NjEyMTgyNjg5IDU4MC4wOTE2NTk2MDEwMjk0IEwgNTcxLjk1OTE3ODk0NDA5NDggNTc4Ljc0ODgzNzAwNjgyOTcgTCA1NjkuNjc0MTQ0ODc4OTE2NCA1NzcuMjIyMDI2MDU3NTU5NyBMIDU2Ny41MTU5NDcwMTc1OTY1IDU3NS41MjA2NDAwNTA0Mzc2IEwgNTY1LjQ5Nzg5MTM2NzYyMzkgNTczLjY1NTE2ODU5NTk2NTYgTCA1NjMuNjMyNDE5OTEzMTUxOSA1NzEuNjM3MTEyOTQ1OTkzIEwgNTYxLjkzMTAzMzkwNjAyOTggNTY5LjQ3ODkxNTA4NDY3MzEgTCA1NjAuNDA0MjIyOTU2NzU5OCA1NjcuMTkzODgxMDE5NDk0NyBMIDU1OS4wNjE0MDAzNjI1NjAxIDU2NC43OTYwOTg3NDUzMjA2IEwgNTU3LjkxMDg0NTA3MTI1OCA1NjIuMzAwMzUxMzg3MjE0NiBMIDU1Ni45NTk2NTA2Mzg4MjI2IDU1OS43MjIwMjYwNTc1NTk3IEwgNTU2LjIxMzY4MTQ5NTIzNDQgNTU3LjA3NzAxODk4OTM5MzIgTCA1NTUuNjc3NTM2Nzg4MzIzMiA1NTQuMzgxNjM3NTMwODQ0NiBMIDU1NS4zNTQ1MjIwMjg0OTM1IDU1MS42NTI0OTk2MDQ5MTExIEwgNTU1LjI0NjYyODcwOTE1MyA1NDguOTA2NDMxMjU0NDM2NSBMIDU1NS4zNTQ1MjIwMjg0OTM1IDU0Ni4xNjAzNjI5MDM5NjE5IEwgNTU1LjY3NzUzNjc4ODMyMzIgNTQzLjQzMTIyNDk3ODAyODQgTCA1NTYuMjEzNjgxNDk1MjM0NCA1NDAuNzM1ODQzNTE5NDc5OCBMIDU1Ni45NTk2NTA2Mzg4MjI2IDUzOC4wOTA4MzY0NTEzMTMzIEwgNTU3LjkxMDg0NTA3MTI1OCA1MzUuNTEyNTExMTIxNjU4MyBMIDU1OS4wNjE0MDAzNjI1NjAxIDUzMy4wMTY3NjM3NjM1NTI0IEwgNTYwLjQwNDIyMjk1Njc1OTggNTMwLjYxODk4MTQ4OTM3ODMgTCA1NjEuOTMxMDMzOTA2MDI5OCA1MjguMzMzOTQ3NDI0MTk5OSBMIDU2My42MzI0MTk5MTMxNTE5IDUyNi4xNzU3NDk1NjI4OCBMIDU2NS40OTc4OTEzNjc2MjM5IDUyNC4xNTc2OTM5MTI5MDczIEwgNTY3LjUxNTk0NzAxNzU5NjUgNTIyLjI5MjIyMjQ1ODQzNTQgTCA1NjkuNjc0MTQ0ODc4OTE2NCA1MjAuNTkwODM2NDUxMzEzMyBMIDU3MS45NTkxNzg5NDQwOTQ4IDUxOS4wNjQwMjU1MDIwNDMzIEwgNTc0LjM1Njk2MTIxODI2ODkgNTE3LjcyMTIwMjkwNzg0MzYgTCA1NzYuODUyNzA4NTc2Mzc0OSA1MTYuNTcwNjQ3NjE2NTQxNSBMIDU3OS40MzEwMzM5MDYwMjk5IDUxNS42MTk0NTMxODQxMDYxIEwgNTgyLjA3NjA0MDk3NDE5NjQgNTE0Ljg3MzQ4NDA0MDUxNzggTCA1ODQuNzcxNDIyNDMyNzQ1IDUxNC4zMzczMzkzMzM2MDY3IEwgNTg3LjUwMDU2MDM1ODY3ODUgNTE0LjAxNDMyNDU3Mzc3NyBMIDU5MC4yNDY2Mjg3MDkxNTMxIDUxMy45MDY0MzEyNTQ0MzY1IEwgNTkyLjk5MjY5NzA1OTYyNzcgNTE0LjAxNDMyNDU3Mzc3NyBMIDU5NS43MjE4MzQ5ODU1NjEzIDUxNC4zMzczMzkzMzM2MDY3IEwgNTk4LjQxNzIxNjQ0NDEwOTggNTE0Ljg3MzQ4NDA0MDUxNzggTCA2MDEuMDYyMjIzNTEyMjc2MyA1MTUuNjE5NDUzMTg0MTA2MiBMIDYwMy42NDA1NDg4NDE5MzE0IDUxNi41NzA2NDc2MTY1NDE1IEwgNjA2LjEzNjI5NjIwMDAzNzMgNTE3LjcyMTIwMjkwNzg0MzcgTCA2MDguNTM0MDc4NDc0MjExNSA1MTkuMDY0MDI1NTAyMDQzNCBMIDYxMC44MTkxMTI1MzkzODk3IDUyMC41OTA4MzY0NTEzMTM1IEwgNjEyLjk3NzMxMDQwMDcwOTYgNTIyLjI5MjIyMjQ1ODQzNTYgTCA2MTQuOTk1MzY2MDUwNjgyNCA1MjQuMTU3NjkzOTEyOTA3NSBMIDYxNi44NjA4Mzc1MDUxNTQzIDUyNi4xNzU3NDk1NjI4ODAyIEwgNjE4LjU2MjIyMzUxMjI3NjMgNTI4LjMzMzk0NzQyNDIwMDEgTCA2MjAuMDg5MDM0NDYxNTQ2NCA1MzAuNjE4OTgxNDg5Mzc4NiBMIDYyMS40MzE4NTcwNTU3NDYgNTMzLjAxNjc2Mzc2MzU1MjYgTCA2MjIuNTgyNDEyMzQ3MDQ4MSA1MzUuNTEyNTExMTIxNjU4NyBMIDYyMy41MzM2MDY3Nzk0ODM1IDUzOC4wOTA4MzY0NTEzMTM2IEwgNjI0LjI3OTU3NTkyMzA3MTggNTQwLjczNTg0MzUxOTQ4MDEgTCA2MjQuODE1NzIwNjI5OTgyOSA1NDMuNDMxMjI0OTc4MDI4OCBMIDYyNS4xMzg3MzUzODk4MTI1IDU0Ni4xNjAzNjI5MDM5NjIzIFoiIHBhaW50LW9yZGVyPSJzdHJva2UgZmlsbCBtYXJrZXJzIiBzdHJva2U9Im5vbmUiIGZpbGw9InJnYigxMjgsMjE2LDI1NSkiLz48dGV4dCBmaWxsLW9wYWNpdHk9IjEiIHRleHQtYW5jaG9yPSJtaWRkbGUiIHk9IjU1Ni45MDY0MzEyNTQ0MzY1IiB4PSI1OTAuMjQ2NjI4NzA5MTUzIiB0ZXh0LWRlY29yYXRpb249Im5vcm1hbCIgZm9udC13ZWlnaHQ9Im5vcm1hbCIgZm9udC1zdHlsZT0ibm9ybWFsIiBmb250LXNpemU9IjE2cHgiIGZvbnQtZmFtaWx5PSJIZWx2ZXRpY2EgTmV1ZSwgSGVsdmV0aWNhLCBzYW5zLXNlcmlmIiBzdHJva2U9Im5vbmUiIGZpbGw9InJnYigwLDAsMCkiPkVtaWx5IE0gSHVudHNtYW48L3RleHQ+PHBhdGggZmlsbC1vcGFjaXR5PSIxIiBkPSJNIDc2NS4wNzE4NzAyMDUzMTY4IDU5MS44MTQzNjE4MjI0OTUyIEwgNzY0Ljk2Mzk3Njg4NTk3NjMgNTk0LjU2MDQzMDE3Mjk2OTkgTCA3NjQuNjQwOTYyMTI2MTQ2NiA1OTcuMjg5NTY4MDk4OTAzNCBMIDc2NC4xMDQ4MTc0MTkyMzU1IDU5OS45ODQ5NDk1NTc0NTIgTCA3NjMuMzU4ODQ4Mjc1NjQ3MiA2MDIuNjI5OTU2NjI1NjE4NCBMIDc2Mi40MDc2NTM4NDMyMTE4IDYwNS4yMDgyODE5NTUyNzM0IEwgNzYxLjI1NzA5ODU1MTkwOTcgNjA3LjcwNDAyOTMxMzM3OTQgTCA3NTkuOTE0Mjc1OTU3NzEwMSA2MTAuMTAxODExNTg3NTUzNSBMIDc1OC4zODc0NjUwMDg0NCA2MTIuMzg2ODQ1NjUyNzMxOCBMIDc1Ni42ODYwNzkwMDEzMTc5IDYxNC41NDUwNDM1MTQwNTE3IEwgNzU0LjgyMDYwNzU0Njg0NiA2MTYuNTYzMDk5MTY0MDI0NCBMIDc1Mi44MDI1NTE4OTY4NzMzIDYxOC40Mjg1NzA2MTg0OTYzIEwgNzUwLjY0NDM1NDAzNTU1MzQgNjIwLjEyOTk1NjYyNTYxODQgTCA3NDguMzU5MzE5OTcwMzc1IDYyMS42NTY3Njc1NzQ4ODg1IEwgNzQ1Ljk2MTUzNzY5NjIwMDkgNjIyLjk5OTU5MDE2OTA4ODIgTCA3NDMuNDY1NzkwMzM4MDk1IDYyNC4xNTAxNDU0NjAzOTAzIEwgNzQwLjg4NzQ2NTAwODQ0IDYyNS4xMDEzMzk4OTI4MjU2IEwgNzM4LjI0MjQ1Nzk0MDI3MzUgNjI1Ljg0NzMwOTAzNjQxMzkgTCA3MzUuNTQ3MDc2NDgxNzI1IDYyNi4zODM0NTM3NDMzMjUgTCA3MzIuODE3OTM4NTU1NzkxNCA2MjYuNzA2NDY4NTAzMTU0NyBMIDczMC4wNzE4NzAyMDUzMTY4IDYyNi44MTQzNjE4MjI0OTUyIEwgNzI3LjMyNTgwMTg1NDg0MjIgNjI2LjcwNjQ2ODUwMzE1NDcgTCA3MjQuNTk2NjYzOTI4OTA4NyA2MjYuMzgzNDUzNzQzMzI1IEwgNzIxLjkwMTI4MjQ3MDM2MDEgNjI1Ljg0NzMwOTAzNjQxMzkgTCA3MTkuMjU2Mjc1NDAyMTkzNiA2MjUuMTAxMzM5ODkyODI1NiBMIDcxNi42Nzc5NTAwNzI1Mzg3IDYyNC4xNTAxNDU0NjAzOTAzIEwgNzE0LjE4MjIwMjcxNDQzMjcgNjIyLjk5OTU5MDE2OTA4ODIgTCA3MTEuNzg0NDIwNDQwMjU4NiA2MjEuNjU2NzY3NTc0ODg4NSBMIDcwOS40OTkzODYzNzUwODAyIDYyMC4xMjk5NTY2MjU2MTg0IEwgNzA3LjM0MTE4ODUxMzc2MDQgNjE4LjQyODU3MDYxODQ5NjMgTCA3MDUuMzIzMTMyODYzNzg3NyA2MTYuNTYzMDk5MTY0MDI0NCBMIDcwMy40NTc2NjE0MDkzMTU3IDYxNC41NDUwNDM1MTQwNTE3IEwgNzAxLjc1NjI3NTQwMjE5MzYgNjEyLjM4Njg0NTY1MjczMTggTCA3MDAuMjI5NDY0NDUyOTIzNiA2MTAuMTAxODExNTg3NTUzNSBMIDY5OC44ODY2NDE4NTg3MjM5IDYwNy43MDQwMjkzMTMzNzk0IEwgNjk3LjczNjA4NjU2NzQyMTggNjA1LjIwODI4MTk1NTI3MzQgTCA2OTYuNzg0ODkyMTM0OTg2NCA2MDIuNjI5OTU2NjI1NjE4NCBMIDY5Ni4wMzg5MjI5OTEzOTgyIDU5OS45ODQ5NDk1NTc0NTIgTCA2OTUuNTAyNzc4Mjg0NDg3IDU5Ny4yODk1NjgwOTg5MDM0IEwgNjk1LjE3OTc2MzUyNDY1NzMgNTk0LjU2MDQzMDE3Mjk2OTkgTCA2OTUuMDcxODcwMjA1MzE2OCA1OTEuODE0MzYxODIyNDk1MiBMIDY5NS4xNzk3NjM1MjQ2NTczIDU4OS4wNjgyOTM0NzIwMjA2IEwgNjk1LjUwMjc3ODI4NDQ4NyA1ODYuMzM5MTU1NTQ2MDg3MSBMIDY5Ni4wMzg5MjI5OTEzOTgyIDU4My42NDM3NzQwODc1Mzg1IEwgNjk2Ljc4NDg5MjEzNDk4NjQgNTgwLjk5ODc2NzAxOTM3MiBMIDY5Ny43MzYwODY1Njc0MjE4IDU3OC40MjA0NDE2ODk3MTcxIEwgNjk4Ljg4NjY0MTg1ODcyMzkgNTc1LjkyNDY5NDMzMTYxMTEgTCA3MDAuMjI5NDY0NDUyOTIzNiA1NzMuNTI2OTEyMDU3NDM3IEwgNzAxLjc1NjI3NTQwMjE5MzYgNTcxLjI0MTg3Nzk5MjI1ODcgTCA3MDMuNDU3NjYxNDA5MzE1NyA1NjkuMDgzNjgwMTMwOTM4OCBMIDcwNS4zMjMxMzI4NjM3ODc3IDU2Ny4wNjU2MjQ0ODA5NjYxIEwgNzA3LjM0MTE4ODUxMzc2MDQgNTY1LjIwMDE1MzAyNjQ5NDEgTCA3MDkuNDk5Mzg2Mzc1MDgwMiA1NjMuNDk4NzY3MDE5MzcyIEwgNzExLjc4NDQyMDQ0MDI1ODYgNTYxLjk3MTk1NjA3MDEwMiBMIDcxNC4xODIyMDI3MTQ0MzI3IDU2MC42MjkxMzM0NzU5MDIzIEwgNzE2LjY3Nzk1MDA3MjUzODcgNTU5LjQ3ODU3ODE4NDYwMDIgTCA3MTkuMjU2Mjc1NDAyMTkzOCA1NTguNTI3MzgzNzUyMTY0OCBMIDcyMS45MDEyODI0NzAzNjAyIDU1Ny43ODE0MTQ2MDg1NzY2IEwgNzI0LjU5NjY2MzkyODkwODggNTU3LjI0NTI2OTkwMTY2NTQgTCA3MjcuMzI1ODAxODU0ODQyMyA1NTYuOTIyMjU1MTQxODM1OCBMIDczMC4wNzE4NzAyMDUzMTY5IDU1Ni44MTQzNjE4MjI0OTUyIEwgNzMyLjgxNzkzODU1NTc5MTYgNTU2LjkyMjI1NTE0MTgzNTggTCA3MzUuNTQ3MDc2NDgxNzI1MSA1NTcuMjQ1MjY5OTAxNjY1NCBMIDczOC4yNDI0NTc5NDAyNzM3IDU1Ny43ODE0MTQ2MDg1NzY2IEwgNzQwLjg4NzQ2NTAwODQ0MDEgNTU4LjUyNzM4Mzc1MjE2NSBMIDc0My40NjU3OTAzMzgwOTUyIDU1OS40Nzg1NzgxODQ2MDAzIEwgNzQ1Ljk2MTUzNzY5NjIwMTIgNTYwLjYyOTEzMzQ3NTkwMjQgTCA3NDguMzU5MzE5OTcwMzc1MyA1NjEuOTcxOTU2MDcwMTAyMSBMIDc1MC42NDQzNTQwMzU1NTM1IDU2My40OTg3NjcwMTkzNzIzIEwgNzUyLjgwMjU1MTg5Njg3MzQgNTY1LjIwMDE1MzAyNjQ5NDQgTCA3NTQuODIwNjA3NTQ2ODQ2MiA1NjcuMDY1NjI0NDgwOTY2MiBMIDc1Ni42ODYwNzkwMDEzMTgxIDU2OS4wODM2ODAxMzA5MzkgTCA3NTguMzg3NDY1MDA4NDQwMSA1NzEuMjQxODc3OTkyMjU4OSBMIDc1OS45MTQyNzU5NTc3MTAyIDU3My41MjY5MTIwNTc0Mzc0IEwgNzYxLjI1NzA5ODU1MTkwOTggNTc1LjkyNDY5NDMzMTYxMTQgTCA3NjIuNDA3NjUzODQzMjEyIDU3OC40MjA0NDE2ODk3MTc0IEwgNzYzLjM1ODg0ODI3NTY0NzMgNTgwLjk5ODc2NzAxOTM3MjQgTCA3NjQuMTA0ODE3NDE5MjM1NiA1ODMuNjQzNzc0MDg3NTM4OSBMIDc2NC42NDA5NjIxMjYxNDY3IDU4Ni4zMzkxNTU1NDYwODc2IEwgNzY0Ljk2Mzk3Njg4NTk3NjMgNTg5LjA2ODI5MzQ3MjAyMTEgWiIgcGFpbnQtb3JkZXI9InN0cm9rZSBmaWxsIG1hcmtlcnMiIHN0cm9rZT0ibm9uZSIgZmlsbD0icmdiKDEyOCwyMTYsMjU1KSIvPjx0ZXh0IGZpbGwtb3BhY2l0eT0iMSIgdGV4dC1hbmNob3I9Im1pZGRsZSIgeT0iNTk5LjgxNDM2MTgyMjQ5NTIiIHg9IjczMC4wNzE4NzAyMDUzMTY4IiB0ZXh0LWRlY29yYXRpb249Im5vcm1hbCIgZm9udC13ZWlnaHQ9Im5vcm1hbCIgZm9udC1zdHlsZT0ibm9ybWFsIiBmb250LXNpemU9IjE2cHgiIGZvbnQtZmFtaWx5PSJIZWx2ZXRpY2EgTmV1ZSwgSGVsdmV0aWNhLCBzYW5zLXNlcmlmIiBzdHJva2U9Im5vbmUiIGZpbGw9InJnYigwLDAsMCkiPlhpYW95dSBTb25nPC90ZXh0PjxwYXRoIGZpbGwtb3BhY2l0eT0iMSIgZD0iTSA2NTAuOTMxODkyMjM0ODgxNiAyNjYuNDU1MTQ2MjU2NzA2NiBMIDY1MC44MjM5OTg5MTU1NDExIDI2OS4yMDEyMTQ2MDcxODExNiBMIDY1MC41MDA5ODQxNTU3MTE0IDI3MS45MzAzNTI1MzMxMTQ3IEwgNjQ5Ljk2NDgzOTQ0ODgwMDMgMjc0LjYyNTczMzk5MTY2MzMgTCA2NDkuMjE4ODcwMzA1MjEyIDI3Ny4yNzA3NDEwNTk4Mjk3MyBMIDY0OC4yNjc2NzU4NzI3NzY2IDI3OS44NDkwNjYzODk0ODQ3MyBMIDY0Ny4xMTcxMjA1ODE0NzQ1IDI4Mi4zNDQ4MTM3NDc1OTA3IEwgNjQ1Ljc3NDI5Nzk4NzI3NDggMjg0Ljc0MjU5NjAyMTc2NDggTCA2NDQuMjQ3NDg3MDM4MDA0OCAyODcuMDI3NjMwMDg2OTQzMTMgTCA2NDIuNTQ2MTAxMDMwODgyNyAyODkuMTg1ODI3OTQ4MjYzIEwgNjQwLjY4MDYyOTU3NjQxMDggMjkxLjIwMzg4MzU5ODIzNTczIEwgNjM4LjY2MjU3MzkyNjQzODEgMjkzLjA2OTM1NTA1MjcwNzcgTCA2MzYuNTA0Mzc2MDY1MTE4MiAyOTQuNzcwNzQxMDU5ODI5OCBMIDYzNC4yMTkzNDE5OTk5Mzk4IDI5Ni4yOTc1NTIwMDkwOTk4MyBMIDYzMS44MjE1NTk3MjU3NjU3IDI5Ny42NDAzNzQ2MDMyOTk0NSBMIDYyOS4zMjU4MTIzNjc2NTk4IDI5OC43OTA5Mjk4OTQ2MDE2IEwgNjI2Ljc0NzQ4NzAzODAwNDggMjk5Ljc0MjEyNDMyNzAzNjk1IEwgNjI0LjEwMjQ3OTk2OTgzODMgMzAwLjQ4ODA5MzQ3MDYyNTMgTCA2MjEuNDA3MDk4NTExMjg5NyAzMDEuMDI0MjM4MTc3NTM2NCBMIDYxOC42Nzc5NjA1ODUzNTYyIDMwMS4zNDcyNTI5MzczNjYxIEwgNjE1LjkzMTg5MjIzNDg4MTYgMzAxLjQ1NTE0NjI1NjcwNjYgTCA2MTMuMTg1ODIzODg0NDA3IDMwMS4zNDcyNTI5MzczNjYxIEwgNjEwLjQ1NjY4NTk1ODQ3MzUgMzAxLjAyNDIzODE3NzUzNjQgTCA2MDcuNzYxMzA0NDk5OTI0OSAzMDAuNDg4MDkzNDcwNjI1MyBMIDYwNS4xMTYyOTc0MzE3NTg0IDI5OS43NDIxMjQzMjcwMzcgTCA2MDIuNTM3OTcyMTAyMTAzNSAyOTguNzkwOTI5ODk0NjAxNiBMIDYwMC4wNDIyMjQ3NDM5OTc1IDI5Ny42NDAzNzQ2MDMyOTk0NSBMIDU5Ny42NDQ0NDI0Njk4MjM0IDI5Ni4yOTc1NTIwMDkwOTk4MyBMIDU5NS4zNTk0MDg0MDQ2NDUgMjk0Ljc3MDc0MTA1OTgyOTggTCA1OTMuMjAxMjEwNTQzMzI1MSAyOTMuMDY5MzU1MDUyNzA3NyBMIDU5MS4xODMxNTQ4OTMzNTI1IDI5MS4yMDM4ODM1OTgyMzU3MyBMIDU4OS4zMTc2ODM0Mzg4ODA1IDI4OS4xODU4Mjc5NDgyNjMgTCA1ODcuNjE2Mjk3NDMxNzU4NCAyODcuMDI3NjMwMDg2OTQzMiBMIDU4Ni4wODk0ODY0ODI0ODg0IDI4NC43NDI1OTYwMjE3NjQ4IEwgNTg0Ljc0NjY2Mzg4ODI4ODcgMjgyLjM0NDgxMzc0NzU5MDc2IEwgNTgzLjU5NjEwODU5Njk4NjYgMjc5Ljg0OTA2NjM4OTQ4NDczIEwgNTgyLjY0NDkxNDE2NDU1MTIgMjc3LjI3MDc0MTA1OTgyOTggTCA1ODEuODk4OTQ1MDIwOTYzIDI3NC42MjU3MzM5OTE2NjMzIEwgNTgxLjM2MjgwMDMxNDA1MTggMjcxLjkzMDM1MjUzMzExNDcgTCA1ODEuMDM5Nzg1NTU0MjIyMSAyNjkuMjAxMjE0NjA3MTgxMTYgTCA1ODAuOTMxODkyMjM0ODgxNiAyNjYuNDU1MTQ2MjU2NzA2NiBMIDU4MS4wMzk3ODU1NTQyMjIxIDI2My43MDkwNzc5MDYyMzIwNCBMIDU4MS4zNjI4MDAzMTQwNTE4IDI2MC45Nzk5Mzk5ODAyOTg1IEwgNTgxLjg5ODk0NTAyMDk2MyAyNTguMjg0NTU4NTIxNzQ5OSBMIDU4Mi42NDQ5MTQxNjQ1NTEyIDI1NS42Mzk1NTE0NTM1ODM0NCBMIDU4My41OTYxMDg1OTY5ODY2IDI1My4wNjEyMjYxMjM5Mjg0NiBMIDU4NC43NDY2NjM4ODgyODg3IDI1MC41NjU0Nzg3NjU4MjI0NiBMIDU4Ni4wODk0ODY0ODI0ODg0IDI0OC4xNjc2OTY0OTE2NDg0IEwgNTg3LjYxNjI5NzQzMTc1ODQgMjQ1Ljg4MjY2MjQyNjQ3MDAzIEwgNTg5LjMxNzY4MzQzODg4MDUgMjQzLjcyNDQ2NDU2NTE1MDE5IEwgNTkxLjE4MzE1NDg5MzM1MjUgMjQxLjcwNjQwODkxNTE3NzQzIEwgNTkzLjIwMTIxMDU0MzMyNTEgMjM5Ljg0MDkzNzQ2MDcwNTUzIEwgNTk1LjM1OTQwODQwNDY0NSAyMzguMTM5NTUxNDUzNTgzNDQgTCA1OTcuNjQ0NDQyNDY5ODIzNCAyMzYuNjEyNzQwNTA0MzEzMzYgTCA2MDAuMDQyMjI0NzQzOTk3NSAyMzUuMjY5OTE3OTEwMTEzNzIgTCA2MDIuNTM3OTcyMTAyMTAzNSAyMzQuMTE5MzYyNjE4ODExNTUgTCA2MDUuMTE2Mjk3NDMxNzU4NSAyMzMuMTY4MTY4MTg2Mzc2MiBMIDYwNy43NjEzMDQ0OTk5MjUgMjMyLjQyMjE5OTA0Mjc4NzkgTCA2MTAuNDU2Njg1OTU4NDczNiAyMzEuODg2MDU0MzM1ODc2NzYgTCA2MTMuMTg1ODIzODg0NDA3MSAyMzEuNTYzMDM5NTc2MDQ3MTIgTCA2MTUuOTMxODkyMjM0ODgxNyAyMzEuNDU1MTQ2MjU2NzA2NiBMIDYxOC42Nzc5NjA1ODUzNTYzIDIzMS41NjMwMzk1NzYwNDcxMiBMIDYyMS40MDcwOTg1MTEyODk5IDIzMS44ODYwNTQzMzU4NzY4IEwgNjI0LjEwMjQ3OTk2OTgzODQgMjMyLjQyMjE5OTA0Mjc4Nzk1IEwgNjI2Ljc0NzQ4NzAzODAwNDkgMjMzLjE2ODE2ODE4NjM3NjI4IEwgNjI5LjMyNTgxMjM2NzY2IDIzNC4xMTkzNjI2MTg4MTE2NCBMIDYzMS44MjE1NTk3MjU3NjYgMjM1LjI2OTkxNzkxMDExMzggTCA2MzQuMjE5MzQxOTk5OTQwMSAyMzYuNjEyNzQwNTA0MzEzNDggTCA2MzYuNTA0Mzc2MDY1MTE4MyAyMzguMTM5NTUxNDUzNTgzNTggTCA2MzguNjYyNTczOTI2NDM4MiAyMzkuODQwOTM3NDYwNzA1NjcgTCA2NDAuNjgwNjI5NTc2NDExIDI0MS43MDY0MDg5MTUxNzc2MyBMIDY0Mi41NDYxMDEwMzA4ODI5IDI0My43MjQ0NjQ1NjUxNTAzOCBMIDY0NC4yNDc0ODcwMzgwMDQ5IDI0NS44ODI2NjI0MjY0NzAzIEwgNjQ1Ljc3NDI5Nzk4NzI3NSAyNDguMTY3Njk2NDkxNjQ4NjYgTCA2NDcuMTE3MTIwNTgxNDc0NiAyNTAuNTY1NDc4NzY1ODIyNzUgTCA2NDguMjY3Njc1ODcyNzc2NyAyNTMuMDYxMjI2MTIzOTI4NzggTCA2NDkuMjE4ODcwMzA1MjEyMSAyNTUuNjM5NTUxNDUzNTgzNzggTCA2NDkuOTY0ODM5NDQ4ODAwNCAyNTguMjg0NTU4NTIxNzUwMyBMIDY1MC41MDA5ODQxNTU3MTE1IDI2MC45Nzk5Mzk5ODAyOTg5IEwgNjUwLjgyMzk5ODkxNTU0MTEgMjYzLjcwOTA3NzkwNjIzMjQ0IFoiIHBhaW50LW9yZGVyPSJzdHJva2UgZmlsbCBtYXJrZXJzIiBzdHJva2U9Im5vbmUiIGZpbGw9InJnYigxMjgsMjE2LDI1NSkiLz48dGV4dCBmaWxsLW9wYWNpdHk9IjEiIHRleHQtYW5jaG9yPSJtaWRkbGUiIHk9IjI3NC40NTUxNDYyNTY3MDY2IiB4PSI2MTUuOTMxODkyMjM0ODgxNiIgdGV4dC1kZWNvcmF0aW9uPSJub3JtYWwiIGZvbnQtd2VpZ2h0PSJub3JtYWwiIGZvbnQtc3R5bGU9Im5vcm1hbCIgZm9udC1zaXplPSIxNnB4IiBmb250LWZhbWlseT0iSGVsdmV0aWNhIE5ldWUsIEhlbHZldGljYSwgc2Fucy1zZXJpZiIgc3Ryb2tlPSJub25lIiBmaWxsPSJyZ2IoMCwwLDApIj5LYXJlbiBFIENocmlzdGlhbnNvbjwvdGV4dD48ZyB0cmFuc2Zvcm09InNjYWxlKDEuMjQwMTU5OTgyNzI5NDg0NywxLjI0MDE1OTk4MjcyOTQ4NDcpIHRyYW5zbGF0ZSgtODMuODIxMDg2MDQwOTU2MDUsLTI5LjgwNjM0NzU3OTI4NDkyNSkiLz48L2c+PC9zdmc+;" vertex="1" parent="1">
          <mxGeometry x="1256.36" y="389.1" width="181.03" height="170.9" as="geometry" />
        </mxCell>
      </root>
    </mxGraphModel>
  </diagram>
</mxfile>
